%TF.GenerationSoftware,KiCad,Pcbnew,6.0.9-8da3e8f707~116~ubuntu22.04.1*%
%TF.CreationDate,2023-09-17T15:53:30-04:00*%
%TF.ProjectId,Recovery_DoubleStage,5265636f-7665-4727-995f-446f75626c65,rev?*%
%TF.SameCoordinates,Original*%
%TF.FileFunction,Legend,Top*%
%TF.FilePolarity,Positive*%
%FSLAX46Y46*%
G04 Gerber Fmt 4.6, Leading zero omitted, Abs format (unit mm)*
G04 Created by KiCad (PCBNEW 6.0.9-8da3e8f707~116~ubuntu22.04.1) date 2023-09-17 15:53:30*
%MOMM*%
%LPD*%
G01*
G04 APERTURE LIST*
%ADD10C,0.150000*%
%ADD11C,0.254000*%
%ADD12C,0.120000*%
%ADD13C,0.200000*%
%ADD14C,0.250000*%
%ADD15C,0.100000*%
%ADD16C,0.010000*%
G04 APERTURE END LIST*
D10*
%TO.C,J6*%
X28266980Y-21598533D02*
X28981266Y-21598533D01*
X29124123Y-21646152D01*
X29219361Y-21741390D01*
X29266980Y-21884247D01*
X29266980Y-21979485D01*
X28266980Y-20693771D02*
X28266980Y-20884247D01*
X28314600Y-20979485D01*
X28362219Y-21027104D01*
X28505076Y-21122342D01*
X28695552Y-21169961D01*
X29076504Y-21169961D01*
X29171742Y-21122342D01*
X29219361Y-21074723D01*
X29266980Y-20979485D01*
X29266980Y-20789009D01*
X29219361Y-20693771D01*
X29171742Y-20646152D01*
X29076504Y-20598533D01*
X28838409Y-20598533D01*
X28743171Y-20646152D01*
X28695552Y-20693771D01*
X28647933Y-20789009D01*
X28647933Y-20979485D01*
X28695552Y-21074723D01*
X28743171Y-21122342D01*
X28838409Y-21169961D01*
%TO.C,C15*%
X94962742Y-69090142D02*
X94915123Y-69137761D01*
X94772266Y-69185380D01*
X94677028Y-69185380D01*
X94534171Y-69137761D01*
X94438933Y-69042523D01*
X94391314Y-68947285D01*
X94343695Y-68756809D01*
X94343695Y-68613952D01*
X94391314Y-68423476D01*
X94438933Y-68328238D01*
X94534171Y-68233000D01*
X94677028Y-68185380D01*
X94772266Y-68185380D01*
X94915123Y-68233000D01*
X94962742Y-68280619D01*
X95915123Y-69185380D02*
X95343695Y-69185380D01*
X95629409Y-69185380D02*
X95629409Y-68185380D01*
X95534171Y-68328238D01*
X95438933Y-68423476D01*
X95343695Y-68471095D01*
X96819885Y-68185380D02*
X96343695Y-68185380D01*
X96296076Y-68661571D01*
X96343695Y-68613952D01*
X96438933Y-68566333D01*
X96677028Y-68566333D01*
X96772266Y-68613952D01*
X96819885Y-68661571D01*
X96867504Y-68756809D01*
X96867504Y-68994904D01*
X96819885Y-69090142D01*
X96772266Y-69137761D01*
X96677028Y-69185380D01*
X96438933Y-69185380D01*
X96343695Y-69137761D01*
X96296076Y-69090142D01*
D11*
%TO.C,IC1*%
X41400238Y-56324523D02*
X41400238Y-55054523D01*
X42730714Y-56203571D02*
X42670238Y-56264047D01*
X42488809Y-56324523D01*
X42367857Y-56324523D01*
X42186428Y-56264047D01*
X42065476Y-56143095D01*
X42005000Y-56022142D01*
X41944523Y-55780238D01*
X41944523Y-55598809D01*
X42005000Y-55356904D01*
X42065476Y-55235952D01*
X42186428Y-55115000D01*
X42367857Y-55054523D01*
X42488809Y-55054523D01*
X42670238Y-55115000D01*
X42730714Y-55175476D01*
X43940238Y-56324523D02*
X43214523Y-56324523D01*
X43577380Y-56324523D02*
X43577380Y-55054523D01*
X43456428Y-55235952D01*
X43335476Y-55356904D01*
X43214523Y-55417380D01*
D10*
%TO.C,D1*%
X33479904Y-42068380D02*
X33479904Y-41068380D01*
X33718000Y-41068380D01*
X33860857Y-41116000D01*
X33956095Y-41211238D01*
X34003714Y-41306476D01*
X34051333Y-41496952D01*
X34051333Y-41639809D01*
X34003714Y-41830285D01*
X33956095Y-41925523D01*
X33860857Y-42020761D01*
X33718000Y-42068380D01*
X33479904Y-42068380D01*
X35003714Y-42068380D02*
X34432285Y-42068380D01*
X34718000Y-42068380D02*
X34718000Y-41068380D01*
X34622761Y-41211238D01*
X34527523Y-41306476D01*
X34432285Y-41354095D01*
D11*
%TO.C,IC5*%
X64155023Y-57885761D02*
X62885023Y-57885761D01*
X64034071Y-56555285D02*
X64094547Y-56615761D01*
X64155023Y-56797190D01*
X64155023Y-56918142D01*
X64094547Y-57099571D01*
X63973595Y-57220523D01*
X63852642Y-57281000D01*
X63610738Y-57341476D01*
X63429309Y-57341476D01*
X63187404Y-57281000D01*
X63066452Y-57220523D01*
X62945500Y-57099571D01*
X62885023Y-56918142D01*
X62885023Y-56797190D01*
X62945500Y-56615761D01*
X63005976Y-56555285D01*
X62885023Y-55406238D02*
X62885023Y-56011000D01*
X63489785Y-56071476D01*
X63429309Y-56011000D01*
X63368833Y-55890047D01*
X63368833Y-55587666D01*
X63429309Y-55466714D01*
X63489785Y-55406238D01*
X63610738Y-55345761D01*
X63913119Y-55345761D01*
X64034071Y-55406238D01*
X64094547Y-55466714D01*
X64155023Y-55587666D01*
X64155023Y-55890047D01*
X64094547Y-56011000D01*
X64034071Y-56071476D01*
D10*
%TO.C,TP12*%
X49537904Y-69934380D02*
X50109333Y-69934380D01*
X49823619Y-70934380D02*
X49823619Y-69934380D01*
X50442666Y-70934380D02*
X50442666Y-69934380D01*
X50823619Y-69934380D01*
X50918857Y-69982000D01*
X50966476Y-70029619D01*
X51014095Y-70124857D01*
X51014095Y-70267714D01*
X50966476Y-70362952D01*
X50918857Y-70410571D01*
X50823619Y-70458190D01*
X50442666Y-70458190D01*
X51966476Y-70934380D02*
X51395047Y-70934380D01*
X51680761Y-70934380D02*
X51680761Y-69934380D01*
X51585523Y-70077238D01*
X51490285Y-70172476D01*
X51395047Y-70220095D01*
X52347428Y-70029619D02*
X52395047Y-69982000D01*
X52490285Y-69934380D01*
X52728380Y-69934380D01*
X52823619Y-69982000D01*
X52871238Y-70029619D01*
X52918857Y-70124857D01*
X52918857Y-70220095D01*
X52871238Y-70362952D01*
X52299809Y-70934380D01*
X52918857Y-70934380D01*
D11*
%TO.C,IC3*%
X58196238Y-33927523D02*
X58196238Y-32657523D01*
X59526714Y-33806571D02*
X59466238Y-33867047D01*
X59284809Y-33927523D01*
X59163857Y-33927523D01*
X58982428Y-33867047D01*
X58861476Y-33746095D01*
X58801000Y-33625142D01*
X58740523Y-33383238D01*
X58740523Y-33201809D01*
X58801000Y-32959904D01*
X58861476Y-32838952D01*
X58982428Y-32718000D01*
X59163857Y-32657523D01*
X59284809Y-32657523D01*
X59466238Y-32718000D01*
X59526714Y-32778476D01*
X59950047Y-32657523D02*
X60736238Y-32657523D01*
X60312904Y-33141333D01*
X60494333Y-33141333D01*
X60615285Y-33201809D01*
X60675761Y-33262285D01*
X60736238Y-33383238D01*
X60736238Y-33685619D01*
X60675761Y-33806571D01*
X60615285Y-33867047D01*
X60494333Y-33927523D01*
X60131476Y-33927523D01*
X60010523Y-33867047D01*
X59950047Y-33806571D01*
D10*
%TO.C,H2*%
X108153295Y-83612380D02*
X108153295Y-82612380D01*
X108153295Y-83088571D02*
X108724723Y-83088571D01*
X108724723Y-83612380D02*
X108724723Y-82612380D01*
X109153295Y-82707619D02*
X109200914Y-82660000D01*
X109296152Y-82612380D01*
X109534247Y-82612380D01*
X109629485Y-82660000D01*
X109677104Y-82707619D01*
X109724723Y-82802857D01*
X109724723Y-82898095D01*
X109677104Y-83040952D01*
X109105676Y-83612380D01*
X109724723Y-83612380D01*
%TO.C,H4*%
X108407295Y-14422780D02*
X108407295Y-13422780D01*
X108407295Y-13898971D02*
X108978723Y-13898971D01*
X108978723Y-14422780D02*
X108978723Y-13422780D01*
X109883485Y-13756114D02*
X109883485Y-14422780D01*
X109645390Y-13375161D02*
X109407295Y-14089447D01*
X110026342Y-14089447D01*
%TO.C,TP14*%
X51524904Y-77610380D02*
X52096333Y-77610380D01*
X51810619Y-78610380D02*
X51810619Y-77610380D01*
X52429666Y-78610380D02*
X52429666Y-77610380D01*
X52810619Y-77610380D01*
X52905857Y-77658000D01*
X52953476Y-77705619D01*
X53001095Y-77800857D01*
X53001095Y-77943714D01*
X52953476Y-78038952D01*
X52905857Y-78086571D01*
X52810619Y-78134190D01*
X52429666Y-78134190D01*
X53953476Y-78610380D02*
X53382047Y-78610380D01*
X53667761Y-78610380D02*
X53667761Y-77610380D01*
X53572523Y-77753238D01*
X53477285Y-77848476D01*
X53382047Y-77896095D01*
X54810619Y-77943714D02*
X54810619Y-78610380D01*
X54572523Y-77562761D02*
X54334428Y-78277047D01*
X54953476Y-78277047D01*
%TO.C,C21*%
X58285142Y-38871142D02*
X58237523Y-38918761D01*
X58094666Y-38966380D01*
X57999428Y-38966380D01*
X57856571Y-38918761D01*
X57761333Y-38823523D01*
X57713714Y-38728285D01*
X57666095Y-38537809D01*
X57666095Y-38394952D01*
X57713714Y-38204476D01*
X57761333Y-38109238D01*
X57856571Y-38014000D01*
X57999428Y-37966380D01*
X58094666Y-37966380D01*
X58237523Y-38014000D01*
X58285142Y-38061619D01*
X58666095Y-38061619D02*
X58713714Y-38014000D01*
X58808952Y-37966380D01*
X59047047Y-37966380D01*
X59142285Y-38014000D01*
X59189904Y-38061619D01*
X59237523Y-38156857D01*
X59237523Y-38252095D01*
X59189904Y-38394952D01*
X58618476Y-38966380D01*
X59237523Y-38966380D01*
X60189904Y-38966380D02*
X59618476Y-38966380D01*
X59904190Y-38966380D02*
X59904190Y-37966380D01*
X59808952Y-38109238D01*
X59713714Y-38204476D01*
X59618476Y-38252095D01*
D11*
%TO.C,IC6*%
X60228238Y-68646523D02*
X60228238Y-67376523D01*
X61558714Y-68525571D02*
X61498238Y-68586047D01*
X61316809Y-68646523D01*
X61195857Y-68646523D01*
X61014428Y-68586047D01*
X60893476Y-68465095D01*
X60833000Y-68344142D01*
X60772523Y-68102238D01*
X60772523Y-67920809D01*
X60833000Y-67678904D01*
X60893476Y-67557952D01*
X61014428Y-67437000D01*
X61195857Y-67376523D01*
X61316809Y-67376523D01*
X61498238Y-67437000D01*
X61558714Y-67497476D01*
X62647285Y-67376523D02*
X62405380Y-67376523D01*
X62284428Y-67437000D01*
X62223952Y-67497476D01*
X62103000Y-67678904D01*
X62042523Y-67920809D01*
X62042523Y-68404619D01*
X62103000Y-68525571D01*
X62163476Y-68586047D01*
X62284428Y-68646523D01*
X62526333Y-68646523D01*
X62647285Y-68586047D01*
X62707761Y-68525571D01*
X62768238Y-68404619D01*
X62768238Y-68102238D01*
X62707761Y-67981285D01*
X62647285Y-67920809D01*
X62526333Y-67860333D01*
X62284428Y-67860333D01*
X62163476Y-67920809D01*
X62103000Y-67981285D01*
X62042523Y-68102238D01*
D10*
%TO.C,C22*%
X61596142Y-38965142D02*
X61548523Y-39012761D01*
X61405666Y-39060380D01*
X61310428Y-39060380D01*
X61167571Y-39012761D01*
X61072333Y-38917523D01*
X61024714Y-38822285D01*
X60977095Y-38631809D01*
X60977095Y-38488952D01*
X61024714Y-38298476D01*
X61072333Y-38203238D01*
X61167571Y-38108000D01*
X61310428Y-38060380D01*
X61405666Y-38060380D01*
X61548523Y-38108000D01*
X61596142Y-38155619D01*
X61977095Y-38155619D02*
X62024714Y-38108000D01*
X62119952Y-38060380D01*
X62358047Y-38060380D01*
X62453285Y-38108000D01*
X62500904Y-38155619D01*
X62548523Y-38250857D01*
X62548523Y-38346095D01*
X62500904Y-38488952D01*
X61929476Y-39060380D01*
X62548523Y-39060380D01*
X62929476Y-38155619D02*
X62977095Y-38108000D01*
X63072333Y-38060380D01*
X63310428Y-38060380D01*
X63405666Y-38108000D01*
X63453285Y-38155619D01*
X63500904Y-38250857D01*
X63500904Y-38346095D01*
X63453285Y-38488952D01*
X62881857Y-39060380D01*
X63500904Y-39060380D01*
%TO.C,R2*%
X35823075Y-66492380D02*
X35489742Y-66016190D01*
X35251646Y-66492380D02*
X35251646Y-65492380D01*
X35632599Y-65492380D01*
X35727837Y-65540000D01*
X35775456Y-65587619D01*
X35823075Y-65682857D01*
X35823075Y-65825714D01*
X35775456Y-65920952D01*
X35727837Y-65968571D01*
X35632599Y-66016190D01*
X35251646Y-66016190D01*
X36204027Y-65587619D02*
X36251646Y-65540000D01*
X36346884Y-65492380D01*
X36584980Y-65492380D01*
X36680218Y-65540000D01*
X36727837Y-65587619D01*
X36775456Y-65682857D01*
X36775456Y-65778095D01*
X36727837Y-65920952D01*
X36156408Y-66492380D01*
X36775456Y-66492380D01*
%TO.C,TP10*%
X68365904Y-83272380D02*
X68937333Y-83272380D01*
X68651619Y-84272380D02*
X68651619Y-83272380D01*
X69270666Y-84272380D02*
X69270666Y-83272380D01*
X69651619Y-83272380D01*
X69746857Y-83320000D01*
X69794476Y-83367619D01*
X69842095Y-83462857D01*
X69842095Y-83605714D01*
X69794476Y-83700952D01*
X69746857Y-83748571D01*
X69651619Y-83796190D01*
X69270666Y-83796190D01*
X70794476Y-84272380D02*
X70223047Y-84272380D01*
X70508761Y-84272380D02*
X70508761Y-83272380D01*
X70413523Y-83415238D01*
X70318285Y-83510476D01*
X70223047Y-83558095D01*
X71413523Y-83272380D02*
X71508761Y-83272380D01*
X71604000Y-83320000D01*
X71651619Y-83367619D01*
X71699238Y-83462857D01*
X71746857Y-83653333D01*
X71746857Y-83891428D01*
X71699238Y-84081904D01*
X71651619Y-84177142D01*
X71604000Y-84224761D01*
X71508761Y-84272380D01*
X71413523Y-84272380D01*
X71318285Y-84224761D01*
X71270666Y-84177142D01*
X71223047Y-84081904D01*
X71175428Y-83891428D01*
X71175428Y-83653333D01*
X71223047Y-83462857D01*
X71270666Y-83367619D01*
X71318285Y-83320000D01*
X71413523Y-83272380D01*
%TO.C,TP2*%
X66810095Y-72604380D02*
X67381523Y-72604380D01*
X67095809Y-73604380D02*
X67095809Y-72604380D01*
X67714857Y-73604380D02*
X67714857Y-72604380D01*
X68095809Y-72604380D01*
X68191047Y-72652000D01*
X68238666Y-72699619D01*
X68286285Y-72794857D01*
X68286285Y-72937714D01*
X68238666Y-73032952D01*
X68191047Y-73080571D01*
X68095809Y-73128190D01*
X67714857Y-73128190D01*
X68667238Y-72699619D02*
X68714857Y-72652000D01*
X68810095Y-72604380D01*
X69048190Y-72604380D01*
X69143428Y-72652000D01*
X69191047Y-72699619D01*
X69238666Y-72794857D01*
X69238666Y-72890095D01*
X69191047Y-73032952D01*
X68619619Y-73604380D01*
X69238666Y-73604380D01*
%TO.C,TP13*%
X44584904Y-69934380D02*
X45156333Y-69934380D01*
X44870619Y-70934380D02*
X44870619Y-69934380D01*
X45489666Y-70934380D02*
X45489666Y-69934380D01*
X45870619Y-69934380D01*
X45965857Y-69982000D01*
X46013476Y-70029619D01*
X46061095Y-70124857D01*
X46061095Y-70267714D01*
X46013476Y-70362952D01*
X45965857Y-70410571D01*
X45870619Y-70458190D01*
X45489666Y-70458190D01*
X47013476Y-70934380D02*
X46442047Y-70934380D01*
X46727761Y-70934380D02*
X46727761Y-69934380D01*
X46632523Y-70077238D01*
X46537285Y-70172476D01*
X46442047Y-70220095D01*
X47346809Y-69934380D02*
X47965857Y-69934380D01*
X47632523Y-70315333D01*
X47775380Y-70315333D01*
X47870619Y-70362952D01*
X47918238Y-70410571D01*
X47965857Y-70505809D01*
X47965857Y-70743904D01*
X47918238Y-70839142D01*
X47870619Y-70886761D01*
X47775380Y-70934380D01*
X47489666Y-70934380D01*
X47394428Y-70886761D01*
X47346809Y-70839142D01*
%TO.C,L1*%
X95703980Y-74205266D02*
X95703980Y-74681457D01*
X94703980Y-74681457D01*
X95703980Y-73348123D02*
X95703980Y-73919552D01*
X95703980Y-73633838D02*
X94703980Y-73633838D01*
X94846838Y-73729076D01*
X94942076Y-73824314D01*
X94989695Y-73919552D01*
%TO.C,C3*%
X33365333Y-66537722D02*
X33317714Y-66585341D01*
X33174857Y-66632960D01*
X33079619Y-66632960D01*
X32936761Y-66585341D01*
X32841523Y-66490103D01*
X32793904Y-66394865D01*
X32746285Y-66204389D01*
X32746285Y-66061532D01*
X32793904Y-65871056D01*
X32841523Y-65775818D01*
X32936761Y-65680580D01*
X33079619Y-65632960D01*
X33174857Y-65632960D01*
X33317714Y-65680580D01*
X33365333Y-65728199D01*
X33698666Y-65632960D02*
X34317714Y-65632960D01*
X33984380Y-66013913D01*
X34127238Y-66013913D01*
X34222476Y-66061532D01*
X34270095Y-66109151D01*
X34317714Y-66204389D01*
X34317714Y-66442484D01*
X34270095Y-66537722D01*
X34222476Y-66585341D01*
X34127238Y-66632960D01*
X33841523Y-66632960D01*
X33746285Y-66585341D01*
X33698666Y-66537722D01*
D11*
%TO.C,U1*%
X53138380Y-19624523D02*
X53138380Y-20652619D01*
X53198857Y-20773571D01*
X53259333Y-20834047D01*
X53380285Y-20894523D01*
X53622190Y-20894523D01*
X53743142Y-20834047D01*
X53803619Y-20773571D01*
X53864095Y-20652619D01*
X53864095Y-19624523D01*
X55134095Y-20894523D02*
X54408380Y-20894523D01*
X54771238Y-20894523D02*
X54771238Y-19624523D01*
X54650285Y-19805952D01*
X54529333Y-19926904D01*
X54408380Y-19987380D01*
D10*
%TO.C,C10*%
X62096642Y-52525142D02*
X62049023Y-52572761D01*
X61906166Y-52620380D01*
X61810928Y-52620380D01*
X61668071Y-52572761D01*
X61572833Y-52477523D01*
X61525214Y-52382285D01*
X61477595Y-52191809D01*
X61477595Y-52048952D01*
X61525214Y-51858476D01*
X61572833Y-51763238D01*
X61668071Y-51668000D01*
X61810928Y-51620380D01*
X61906166Y-51620380D01*
X62049023Y-51668000D01*
X62096642Y-51715619D01*
X63049023Y-52620380D02*
X62477595Y-52620380D01*
X62763309Y-52620380D02*
X62763309Y-51620380D01*
X62668071Y-51763238D01*
X62572833Y-51858476D01*
X62477595Y-51906095D01*
X63668071Y-51620380D02*
X63763309Y-51620380D01*
X63858547Y-51668000D01*
X63906166Y-51715619D01*
X63953785Y-51810857D01*
X64001404Y-52001333D01*
X64001404Y-52239428D01*
X63953785Y-52429904D01*
X63906166Y-52525142D01*
X63858547Y-52572761D01*
X63763309Y-52620380D01*
X63668071Y-52620380D01*
X63572833Y-52572761D01*
X63525214Y-52525142D01*
X63477595Y-52429904D01*
X63429976Y-52239428D01*
X63429976Y-52001333D01*
X63477595Y-51810857D01*
X63525214Y-51715619D01*
X63572833Y-51668000D01*
X63668071Y-51620380D01*
%TO.C,JP1*%
X69071880Y-59287333D02*
X69786166Y-59287333D01*
X69929023Y-59334952D01*
X70024261Y-59430190D01*
X70071880Y-59573047D01*
X70071880Y-59668285D01*
X70071880Y-58811142D02*
X69071880Y-58811142D01*
X69071880Y-58430190D01*
X69119500Y-58334952D01*
X69167119Y-58287333D01*
X69262357Y-58239714D01*
X69405214Y-58239714D01*
X69500452Y-58287333D01*
X69548071Y-58334952D01*
X69595690Y-58430190D01*
X69595690Y-58811142D01*
X70071880Y-57287333D02*
X70071880Y-57858761D01*
X70071880Y-57573047D02*
X69071880Y-57573047D01*
X69214738Y-57668285D01*
X69309976Y-57763523D01*
X69357595Y-57858761D01*
X67271880Y-61387333D02*
X67271880Y-60768285D01*
X67652833Y-61101619D01*
X67652833Y-60958761D01*
X67700452Y-60863523D01*
X67748071Y-60815904D01*
X67843309Y-60768285D01*
X68081404Y-60768285D01*
X68176642Y-60815904D01*
X68224261Y-60863523D01*
X68271880Y-60958761D01*
X68271880Y-61244476D01*
X68224261Y-61339714D01*
X68176642Y-61387333D01*
X68271880Y-55568285D02*
X68271880Y-56139714D01*
X68271880Y-55854000D02*
X67271880Y-55854000D01*
X67414738Y-55949238D01*
X67509976Y-56044476D01*
X67557595Y-56139714D01*
%TO.C,J1*%
X45857666Y-32059380D02*
X45857666Y-32773666D01*
X45810047Y-32916523D01*
X45714809Y-33011761D01*
X45571952Y-33059380D01*
X45476714Y-33059380D01*
X46857666Y-33059380D02*
X46286238Y-33059380D01*
X46571952Y-33059380D02*
X46571952Y-32059380D01*
X46476714Y-32202238D01*
X46381476Y-32297476D01*
X46286238Y-32345095D01*
%TO.C,C5*%
X30798333Y-56117142D02*
X30750714Y-56164761D01*
X30607857Y-56212380D01*
X30512619Y-56212380D01*
X30369761Y-56164761D01*
X30274523Y-56069523D01*
X30226904Y-55974285D01*
X30179285Y-55783809D01*
X30179285Y-55640952D01*
X30226904Y-55450476D01*
X30274523Y-55355238D01*
X30369761Y-55260000D01*
X30512619Y-55212380D01*
X30607857Y-55212380D01*
X30750714Y-55260000D01*
X30798333Y-55307619D01*
X31703095Y-55212380D02*
X31226904Y-55212380D01*
X31179285Y-55688571D01*
X31226904Y-55640952D01*
X31322142Y-55593333D01*
X31560238Y-55593333D01*
X31655476Y-55640952D01*
X31703095Y-55688571D01*
X31750714Y-55783809D01*
X31750714Y-56021904D01*
X31703095Y-56117142D01*
X31655476Y-56164761D01*
X31560238Y-56212380D01*
X31322142Y-56212380D01*
X31226904Y-56164761D01*
X31179285Y-56117142D01*
%TO.C,C7*%
X67815142Y-65726666D02*
X67862761Y-65774285D01*
X67910380Y-65917142D01*
X67910380Y-66012380D01*
X67862761Y-66155238D01*
X67767523Y-66250476D01*
X67672285Y-66298095D01*
X67481809Y-66345714D01*
X67338952Y-66345714D01*
X67148476Y-66298095D01*
X67053238Y-66250476D01*
X66958000Y-66155238D01*
X66910380Y-66012380D01*
X66910380Y-65917142D01*
X66958000Y-65774285D01*
X67005619Y-65726666D01*
X66910380Y-65393333D02*
X66910380Y-64726666D01*
X67910380Y-65155238D01*
%TO.C,H3*%
X15697295Y-14219580D02*
X15697295Y-13219580D01*
X15697295Y-13695771D02*
X16268723Y-13695771D01*
X16268723Y-14219580D02*
X16268723Y-13219580D01*
X16649676Y-13219580D02*
X17268723Y-13219580D01*
X16935390Y-13600533D01*
X17078247Y-13600533D01*
X17173485Y-13648152D01*
X17221104Y-13695771D01*
X17268723Y-13791009D01*
X17268723Y-14029104D01*
X17221104Y-14124342D01*
X17173485Y-14171961D01*
X17078247Y-14219580D01*
X16792533Y-14219580D01*
X16697295Y-14171961D01*
X16649676Y-14124342D01*
%TO.C,R7*%
X44635380Y-83836666D02*
X44159190Y-84170000D01*
X44635380Y-84408095D02*
X43635380Y-84408095D01*
X43635380Y-84027142D01*
X43683000Y-83931904D01*
X43730619Y-83884285D01*
X43825857Y-83836666D01*
X43968714Y-83836666D01*
X44063952Y-83884285D01*
X44111571Y-83931904D01*
X44159190Y-84027142D01*
X44159190Y-84408095D01*
X43635380Y-83503333D02*
X43635380Y-82836666D01*
X44635380Y-83265238D01*
%TO.C,R1*%
X43498333Y-72582380D02*
X43165000Y-72106190D01*
X42926904Y-72582380D02*
X42926904Y-71582380D01*
X43307857Y-71582380D01*
X43403095Y-71630000D01*
X43450714Y-71677619D01*
X43498333Y-71772857D01*
X43498333Y-71915714D01*
X43450714Y-72010952D01*
X43403095Y-72058571D01*
X43307857Y-72106190D01*
X42926904Y-72106190D01*
X44450714Y-72582380D02*
X43879285Y-72582380D01*
X44165000Y-72582380D02*
X44165000Y-71582380D01*
X44069761Y-71725238D01*
X43974523Y-71820476D01*
X43879285Y-71868095D01*
%TO.C,R3*%
X46156333Y-76522380D02*
X45823000Y-76046190D01*
X45584904Y-76522380D02*
X45584904Y-75522380D01*
X45965857Y-75522380D01*
X46061095Y-75570000D01*
X46108714Y-75617619D01*
X46156333Y-75712857D01*
X46156333Y-75855714D01*
X46108714Y-75950952D01*
X46061095Y-75998571D01*
X45965857Y-76046190D01*
X45584904Y-76046190D01*
X46489666Y-75522380D02*
X47108714Y-75522380D01*
X46775380Y-75903333D01*
X46918238Y-75903333D01*
X47013476Y-75950952D01*
X47061095Y-75998571D01*
X47108714Y-76093809D01*
X47108714Y-76331904D01*
X47061095Y-76427142D01*
X47013476Y-76474761D01*
X46918238Y-76522380D01*
X46632523Y-76522380D01*
X46537285Y-76474761D01*
X46489666Y-76427142D01*
%TO.C,TP1*%
X61993095Y-31532380D02*
X62564523Y-31532380D01*
X62278809Y-32532380D02*
X62278809Y-31532380D01*
X62897857Y-32532380D02*
X62897857Y-31532380D01*
X63278809Y-31532380D01*
X63374047Y-31580000D01*
X63421666Y-31627619D01*
X63469285Y-31722857D01*
X63469285Y-31865714D01*
X63421666Y-31960952D01*
X63374047Y-32008571D01*
X63278809Y-32056190D01*
X62897857Y-32056190D01*
X64421666Y-32532380D02*
X63850238Y-32532380D01*
X64135952Y-32532380D02*
X64135952Y-31532380D01*
X64040714Y-31675238D01*
X63945476Y-31770476D01*
X63850238Y-31818095D01*
%TO.C,TP5*%
X71382095Y-22896380D02*
X71953523Y-22896380D01*
X71667809Y-23896380D02*
X71667809Y-22896380D01*
X72286857Y-23896380D02*
X72286857Y-22896380D01*
X72667809Y-22896380D01*
X72763047Y-22944000D01*
X72810666Y-22991619D01*
X72858285Y-23086857D01*
X72858285Y-23229714D01*
X72810666Y-23324952D01*
X72763047Y-23372571D01*
X72667809Y-23420190D01*
X72286857Y-23420190D01*
X73763047Y-22896380D02*
X73286857Y-22896380D01*
X73239238Y-23372571D01*
X73286857Y-23324952D01*
X73382095Y-23277333D01*
X73620190Y-23277333D01*
X73715428Y-23324952D01*
X73763047Y-23372571D01*
X73810666Y-23467809D01*
X73810666Y-23705904D01*
X73763047Y-23801142D01*
X73715428Y-23848761D01*
X73620190Y-23896380D01*
X73382095Y-23896380D01*
X73286857Y-23848761D01*
X73239238Y-23801142D01*
%TO.C,C1*%
X35642333Y-71228142D02*
X35594714Y-71275761D01*
X35451857Y-71323380D01*
X35356619Y-71323380D01*
X35213761Y-71275761D01*
X35118523Y-71180523D01*
X35070904Y-71085285D01*
X35023285Y-70894809D01*
X35023285Y-70751952D01*
X35070904Y-70561476D01*
X35118523Y-70466238D01*
X35213761Y-70371000D01*
X35356619Y-70323380D01*
X35451857Y-70323380D01*
X35594714Y-70371000D01*
X35642333Y-70418619D01*
X36594714Y-71323380D02*
X36023285Y-71323380D01*
X36309000Y-71323380D02*
X36309000Y-70323380D01*
X36213761Y-70466238D01*
X36118523Y-70561476D01*
X36023285Y-70609095D01*
%TO.C,R6*%
X49207380Y-80293666D02*
X48731190Y-80627000D01*
X49207380Y-80865095D02*
X48207380Y-80865095D01*
X48207380Y-80484142D01*
X48255000Y-80388904D01*
X48302619Y-80341285D01*
X48397857Y-80293666D01*
X48540714Y-80293666D01*
X48635952Y-80341285D01*
X48683571Y-80388904D01*
X48731190Y-80484142D01*
X48731190Y-80865095D01*
X48207380Y-79436523D02*
X48207380Y-79627000D01*
X48255000Y-79722238D01*
X48302619Y-79769857D01*
X48445476Y-79865095D01*
X48635952Y-79912714D01*
X49016904Y-79912714D01*
X49112142Y-79865095D01*
X49159761Y-79817476D01*
X49207380Y-79722238D01*
X49207380Y-79531761D01*
X49159761Y-79436523D01*
X49112142Y-79388904D01*
X49016904Y-79341285D01*
X48778809Y-79341285D01*
X48683571Y-79388904D01*
X48635952Y-79436523D01*
X48588333Y-79531761D01*
X48588333Y-79722238D01*
X48635952Y-79817476D01*
X48683571Y-79865095D01*
X48778809Y-79912714D01*
%TO.C,R8*%
X70953333Y-29314380D02*
X70620000Y-28838190D01*
X70381904Y-29314380D02*
X70381904Y-28314380D01*
X70762857Y-28314380D01*
X70858095Y-28362000D01*
X70905714Y-28409619D01*
X70953333Y-28504857D01*
X70953333Y-28647714D01*
X70905714Y-28742952D01*
X70858095Y-28790571D01*
X70762857Y-28838190D01*
X70381904Y-28838190D01*
X71524761Y-28742952D02*
X71429523Y-28695333D01*
X71381904Y-28647714D01*
X71334285Y-28552476D01*
X71334285Y-28504857D01*
X71381904Y-28409619D01*
X71429523Y-28362000D01*
X71524761Y-28314380D01*
X71715238Y-28314380D01*
X71810476Y-28362000D01*
X71858095Y-28409619D01*
X71905714Y-28504857D01*
X71905714Y-28552476D01*
X71858095Y-28647714D01*
X71810476Y-28695333D01*
X71715238Y-28742952D01*
X71524761Y-28742952D01*
X71429523Y-28790571D01*
X71381904Y-28838190D01*
X71334285Y-28933428D01*
X71334285Y-29123904D01*
X71381904Y-29219142D01*
X71429523Y-29266761D01*
X71524761Y-29314380D01*
X71715238Y-29314380D01*
X71810476Y-29266761D01*
X71858095Y-29219142D01*
X71905714Y-29123904D01*
X71905714Y-28933428D01*
X71858095Y-28838190D01*
X71810476Y-28790571D01*
X71715238Y-28742952D01*
%TO.C,C14*%
X91914742Y-69090142D02*
X91867123Y-69137761D01*
X91724266Y-69185380D01*
X91629028Y-69185380D01*
X91486171Y-69137761D01*
X91390933Y-69042523D01*
X91343314Y-68947285D01*
X91295695Y-68756809D01*
X91295695Y-68613952D01*
X91343314Y-68423476D01*
X91390933Y-68328238D01*
X91486171Y-68233000D01*
X91629028Y-68185380D01*
X91724266Y-68185380D01*
X91867123Y-68233000D01*
X91914742Y-68280619D01*
X92867123Y-69185380D02*
X92295695Y-69185380D01*
X92581409Y-69185380D02*
X92581409Y-68185380D01*
X92486171Y-68328238D01*
X92390933Y-68423476D01*
X92295695Y-68471095D01*
X93724266Y-68518714D02*
X93724266Y-69185380D01*
X93486171Y-68137761D02*
X93248076Y-68852047D01*
X93867123Y-68852047D01*
%TO.C,D2*%
X49638380Y-87606095D02*
X48638380Y-87606095D01*
X48638380Y-87368000D01*
X48686000Y-87225142D01*
X48781238Y-87129904D01*
X48876476Y-87082285D01*
X49066952Y-87034666D01*
X49209809Y-87034666D01*
X49400285Y-87082285D01*
X49495523Y-87129904D01*
X49590761Y-87225142D01*
X49638380Y-87368000D01*
X49638380Y-87606095D01*
X48733619Y-86653714D02*
X48686000Y-86606095D01*
X48638380Y-86510857D01*
X48638380Y-86272761D01*
X48686000Y-86177523D01*
X48733619Y-86129904D01*
X48828857Y-86082285D01*
X48924095Y-86082285D01*
X49066952Y-86129904D01*
X49638380Y-86701333D01*
X49638380Y-86082285D01*
%TO.C,TP11*%
X68873904Y-80224380D02*
X69445333Y-80224380D01*
X69159619Y-81224380D02*
X69159619Y-80224380D01*
X69778666Y-81224380D02*
X69778666Y-80224380D01*
X70159619Y-80224380D01*
X70254857Y-80272000D01*
X70302476Y-80319619D01*
X70350095Y-80414857D01*
X70350095Y-80557714D01*
X70302476Y-80652952D01*
X70254857Y-80700571D01*
X70159619Y-80748190D01*
X69778666Y-80748190D01*
X71302476Y-81224380D02*
X70731047Y-81224380D01*
X71016761Y-81224380D02*
X71016761Y-80224380D01*
X70921523Y-80367238D01*
X70826285Y-80462476D01*
X70731047Y-80510095D01*
X72254857Y-81224380D02*
X71683428Y-81224380D01*
X71969142Y-81224380D02*
X71969142Y-80224380D01*
X71873904Y-80367238D01*
X71778666Y-80462476D01*
X71683428Y-80510095D01*
%TO.C,C12*%
X96143868Y-23502857D02*
X96191487Y-23550476D01*
X96239106Y-23693333D01*
X96239106Y-23788571D01*
X96191487Y-23931428D01*
X96096249Y-24026666D01*
X96001011Y-24074285D01*
X95810535Y-24121904D01*
X95667678Y-24121904D01*
X95477202Y-24074285D01*
X95381964Y-24026666D01*
X95286726Y-23931428D01*
X95239106Y-23788571D01*
X95239106Y-23693333D01*
X95286726Y-23550476D01*
X95334345Y-23502857D01*
X96239106Y-22550476D02*
X96239106Y-23121904D01*
X96239106Y-22836190D02*
X95239106Y-22836190D01*
X95381964Y-22931428D01*
X95477202Y-23026666D01*
X95524821Y-23121904D01*
X95334345Y-22169523D02*
X95286726Y-22121904D01*
X95239106Y-22026666D01*
X95239106Y-21788571D01*
X95286726Y-21693333D01*
X95334345Y-21645714D01*
X95429583Y-21598095D01*
X95524821Y-21598095D01*
X95667678Y-21645714D01*
X96239106Y-22217142D01*
X96239106Y-21598095D01*
%TO.C,C4*%
X46038333Y-44547142D02*
X45990714Y-44594761D01*
X45847857Y-44642380D01*
X45752619Y-44642380D01*
X45609761Y-44594761D01*
X45514523Y-44499523D01*
X45466904Y-44404285D01*
X45419285Y-44213809D01*
X45419285Y-44070952D01*
X45466904Y-43880476D01*
X45514523Y-43785238D01*
X45609761Y-43690000D01*
X45752619Y-43642380D01*
X45847857Y-43642380D01*
X45990714Y-43690000D01*
X46038333Y-43737619D01*
X46895476Y-43975714D02*
X46895476Y-44642380D01*
X46657380Y-43594761D02*
X46419285Y-44309047D01*
X47038333Y-44309047D01*
%TO.C,J3*%
X99771023Y-83094580D02*
X99771023Y-83808866D01*
X99723404Y-83951723D01*
X99628166Y-84046961D01*
X99485309Y-84094580D01*
X99390071Y-84094580D01*
X100151976Y-83094580D02*
X100771023Y-83094580D01*
X100437690Y-83475533D01*
X100580547Y-83475533D01*
X100675785Y-83523152D01*
X100723404Y-83570771D01*
X100771023Y-83666009D01*
X100771023Y-83904104D01*
X100723404Y-83999342D01*
X100675785Y-84046961D01*
X100580547Y-84094580D01*
X100294833Y-84094580D01*
X100199595Y-84046961D01*
X100151976Y-83999342D01*
D11*
%TO.C,J5*%
X20990523Y-80179333D02*
X21897666Y-80179333D01*
X22079095Y-80239809D01*
X22200047Y-80360761D01*
X22260523Y-80542190D01*
X22260523Y-80663142D01*
X20990523Y-78969809D02*
X20990523Y-79574571D01*
X21595285Y-79635047D01*
X21534809Y-79574571D01*
X21474333Y-79453619D01*
X21474333Y-79151238D01*
X21534809Y-79030285D01*
X21595285Y-78969809D01*
X21716238Y-78909333D01*
X22018619Y-78909333D01*
X22139571Y-78969809D01*
X22200047Y-79030285D01*
X22260523Y-79151238D01*
X22260523Y-79453619D01*
X22200047Y-79574571D01*
X22139571Y-79635047D01*
D10*
%TO.C,C6*%
X63333333Y-62577142D02*
X63285714Y-62624761D01*
X63142857Y-62672380D01*
X63047619Y-62672380D01*
X62904761Y-62624761D01*
X62809523Y-62529523D01*
X62761904Y-62434285D01*
X62714285Y-62243809D01*
X62714285Y-62100952D01*
X62761904Y-61910476D01*
X62809523Y-61815238D01*
X62904761Y-61720000D01*
X63047619Y-61672380D01*
X63142857Y-61672380D01*
X63285714Y-61720000D01*
X63333333Y-61767619D01*
X64190476Y-61672380D02*
X64000000Y-61672380D01*
X63904761Y-61720000D01*
X63857142Y-61767619D01*
X63761904Y-61910476D01*
X63714285Y-62100952D01*
X63714285Y-62481904D01*
X63761904Y-62577142D01*
X63809523Y-62624761D01*
X63904761Y-62672380D01*
X64095238Y-62672380D01*
X64190476Y-62624761D01*
X64238095Y-62577142D01*
X64285714Y-62481904D01*
X64285714Y-62243809D01*
X64238095Y-62148571D01*
X64190476Y-62100952D01*
X64095238Y-62053333D01*
X63904761Y-62053333D01*
X63809523Y-62100952D01*
X63761904Y-62148571D01*
X63714285Y-62243809D01*
%TO.C,BZ1*%
X36504571Y-87444152D02*
X36552190Y-87301295D01*
X36599809Y-87253676D01*
X36695047Y-87206057D01*
X36837904Y-87206057D01*
X36933142Y-87253676D01*
X36980761Y-87301295D01*
X37028380Y-87396533D01*
X37028380Y-87777485D01*
X36028380Y-87777485D01*
X36028380Y-87444152D01*
X36076000Y-87348914D01*
X36123619Y-87301295D01*
X36218857Y-87253676D01*
X36314095Y-87253676D01*
X36409333Y-87301295D01*
X36456952Y-87348914D01*
X36504571Y-87444152D01*
X36504571Y-87777485D01*
X36028380Y-86872723D02*
X36028380Y-86206057D01*
X37028380Y-86872723D01*
X37028380Y-86206057D01*
X37028380Y-85301295D02*
X37028380Y-85872723D01*
X37028380Y-85587009D02*
X36028380Y-85587009D01*
X36171238Y-85682247D01*
X36266476Y-85777485D01*
X36314095Y-85872723D01*
%TO.C,C18*%
X51799142Y-27187142D02*
X51751523Y-27234761D01*
X51608666Y-27282380D01*
X51513428Y-27282380D01*
X51370571Y-27234761D01*
X51275333Y-27139523D01*
X51227714Y-27044285D01*
X51180095Y-26853809D01*
X51180095Y-26710952D01*
X51227714Y-26520476D01*
X51275333Y-26425238D01*
X51370571Y-26330000D01*
X51513428Y-26282380D01*
X51608666Y-26282380D01*
X51751523Y-26330000D01*
X51799142Y-26377619D01*
X52751523Y-27282380D02*
X52180095Y-27282380D01*
X52465809Y-27282380D02*
X52465809Y-26282380D01*
X52370571Y-26425238D01*
X52275333Y-26520476D01*
X52180095Y-26568095D01*
X53322952Y-26710952D02*
X53227714Y-26663333D01*
X53180095Y-26615714D01*
X53132476Y-26520476D01*
X53132476Y-26472857D01*
X53180095Y-26377619D01*
X53227714Y-26330000D01*
X53322952Y-26282380D01*
X53513428Y-26282380D01*
X53608666Y-26330000D01*
X53656285Y-26377619D01*
X53703904Y-26472857D01*
X53703904Y-26520476D01*
X53656285Y-26615714D01*
X53608666Y-26663333D01*
X53513428Y-26710952D01*
X53322952Y-26710952D01*
X53227714Y-26758571D01*
X53180095Y-26806190D01*
X53132476Y-26901428D01*
X53132476Y-27091904D01*
X53180095Y-27187142D01*
X53227714Y-27234761D01*
X53322952Y-27282380D01*
X53513428Y-27282380D01*
X53608666Y-27234761D01*
X53656285Y-27187142D01*
X53703904Y-27091904D01*
X53703904Y-26901428D01*
X53656285Y-26806190D01*
X53608666Y-26758571D01*
X53513428Y-26710952D01*
D11*
%TO.C,IC4*%
X81564238Y-80838523D02*
X81564238Y-79568523D01*
X82894714Y-80717571D02*
X82834238Y-80778047D01*
X82652809Y-80838523D01*
X82531857Y-80838523D01*
X82350428Y-80778047D01*
X82229476Y-80657095D01*
X82169000Y-80536142D01*
X82108523Y-80294238D01*
X82108523Y-80112809D01*
X82169000Y-79870904D01*
X82229476Y-79749952D01*
X82350428Y-79629000D01*
X82531857Y-79568523D01*
X82652809Y-79568523D01*
X82834238Y-79629000D01*
X82894714Y-79689476D01*
X83983285Y-79991857D02*
X83983285Y-80838523D01*
X83680904Y-79508047D02*
X83378523Y-80415190D01*
X84164714Y-80415190D01*
D10*
%TO.C,C16*%
X34134142Y-77858857D02*
X34181761Y-77906476D01*
X34229380Y-78049333D01*
X34229380Y-78144571D01*
X34181761Y-78287428D01*
X34086523Y-78382666D01*
X33991285Y-78430285D01*
X33800809Y-78477904D01*
X33657952Y-78477904D01*
X33467476Y-78430285D01*
X33372238Y-78382666D01*
X33277000Y-78287428D01*
X33229380Y-78144571D01*
X33229380Y-78049333D01*
X33277000Y-77906476D01*
X33324619Y-77858857D01*
X34229380Y-76906476D02*
X34229380Y-77477904D01*
X34229380Y-77192190D02*
X33229380Y-77192190D01*
X33372238Y-77287428D01*
X33467476Y-77382666D01*
X33515095Y-77477904D01*
X33229380Y-76049333D02*
X33229380Y-76239809D01*
X33277000Y-76335047D01*
X33324619Y-76382666D01*
X33467476Y-76477904D01*
X33657952Y-76525523D01*
X34038904Y-76525523D01*
X34134142Y-76477904D01*
X34181761Y-76430285D01*
X34229380Y-76335047D01*
X34229380Y-76144571D01*
X34181761Y-76049333D01*
X34134142Y-76001714D01*
X34038904Y-75954095D01*
X33800809Y-75954095D01*
X33705571Y-76001714D01*
X33657952Y-76049333D01*
X33610333Y-76144571D01*
X33610333Y-76335047D01*
X33657952Y-76430285D01*
X33705571Y-76477904D01*
X33800809Y-76525523D01*
%TO.C,J4*%
X98313023Y-30694380D02*
X98313023Y-31408666D01*
X98265404Y-31551523D01*
X98170166Y-31646761D01*
X98027309Y-31694380D01*
X97932071Y-31694380D01*
X99217785Y-31027714D02*
X99217785Y-31694380D01*
X98979690Y-30646761D02*
X98741595Y-31361047D01*
X99360642Y-31361047D01*
%TO.C,C20*%
X44553142Y-20454857D02*
X44600761Y-20502476D01*
X44648380Y-20645333D01*
X44648380Y-20740571D01*
X44600761Y-20883428D01*
X44505523Y-20978666D01*
X44410285Y-21026285D01*
X44219809Y-21073904D01*
X44076952Y-21073904D01*
X43886476Y-21026285D01*
X43791238Y-20978666D01*
X43696000Y-20883428D01*
X43648380Y-20740571D01*
X43648380Y-20645333D01*
X43696000Y-20502476D01*
X43743619Y-20454857D01*
X43743619Y-20073904D02*
X43696000Y-20026285D01*
X43648380Y-19931047D01*
X43648380Y-19692952D01*
X43696000Y-19597714D01*
X43743619Y-19550095D01*
X43838857Y-19502476D01*
X43934095Y-19502476D01*
X44076952Y-19550095D01*
X44648380Y-20121523D01*
X44648380Y-19502476D01*
X43648380Y-18883428D02*
X43648380Y-18788190D01*
X43696000Y-18692952D01*
X43743619Y-18645333D01*
X43838857Y-18597714D01*
X44029333Y-18550095D01*
X44267428Y-18550095D01*
X44457904Y-18597714D01*
X44553142Y-18645333D01*
X44600761Y-18692952D01*
X44648380Y-18788190D01*
X44648380Y-18883428D01*
X44600761Y-18978666D01*
X44553142Y-19026285D01*
X44457904Y-19073904D01*
X44267428Y-19121523D01*
X44029333Y-19121523D01*
X43838857Y-19073904D01*
X43743619Y-19026285D01*
X43696000Y-18978666D01*
X43648380Y-18883428D01*
%TO.C,C8*%
X62317333Y-76557142D02*
X62269714Y-76604761D01*
X62126857Y-76652380D01*
X62031619Y-76652380D01*
X61888761Y-76604761D01*
X61793523Y-76509523D01*
X61745904Y-76414285D01*
X61698285Y-76223809D01*
X61698285Y-76080952D01*
X61745904Y-75890476D01*
X61793523Y-75795238D01*
X61888761Y-75700000D01*
X62031619Y-75652380D01*
X62126857Y-75652380D01*
X62269714Y-75700000D01*
X62317333Y-75747619D01*
X62888761Y-76080952D02*
X62793523Y-76033333D01*
X62745904Y-75985714D01*
X62698285Y-75890476D01*
X62698285Y-75842857D01*
X62745904Y-75747619D01*
X62793523Y-75700000D01*
X62888761Y-75652380D01*
X63079238Y-75652380D01*
X63174476Y-75700000D01*
X63222095Y-75747619D01*
X63269714Y-75842857D01*
X63269714Y-75890476D01*
X63222095Y-75985714D01*
X63174476Y-76033333D01*
X63079238Y-76080952D01*
X62888761Y-76080952D01*
X62793523Y-76128571D01*
X62745904Y-76176190D01*
X62698285Y-76271428D01*
X62698285Y-76461904D01*
X62745904Y-76557142D01*
X62793523Y-76604761D01*
X62888761Y-76652380D01*
X63079238Y-76652380D01*
X63174476Y-76604761D01*
X63222095Y-76557142D01*
X63269714Y-76461904D01*
X63269714Y-76271428D01*
X63222095Y-76176190D01*
X63174476Y-76128571D01*
X63079238Y-76080952D01*
%TO.C,C2*%
X52912142Y-53246666D02*
X52959761Y-53294285D01*
X53007380Y-53437142D01*
X53007380Y-53532380D01*
X52959761Y-53675238D01*
X52864523Y-53770476D01*
X52769285Y-53818095D01*
X52578809Y-53865714D01*
X52435952Y-53865714D01*
X52245476Y-53818095D01*
X52150238Y-53770476D01*
X52055000Y-53675238D01*
X52007380Y-53532380D01*
X52007380Y-53437142D01*
X52055000Y-53294285D01*
X52102619Y-53246666D01*
X52102619Y-52865714D02*
X52055000Y-52818095D01*
X52007380Y-52722857D01*
X52007380Y-52484761D01*
X52055000Y-52389523D01*
X52102619Y-52341904D01*
X52197857Y-52294285D01*
X52293095Y-52294285D01*
X52435952Y-52341904D01*
X53007380Y-52913333D01*
X53007380Y-52294285D01*
%TO.C,J2*%
X17949666Y-33449380D02*
X17949666Y-34163666D01*
X17902047Y-34306523D01*
X17806809Y-34401761D01*
X17663952Y-34449380D01*
X17568714Y-34449380D01*
X18378238Y-33544619D02*
X18425857Y-33497000D01*
X18521095Y-33449380D01*
X18759190Y-33449380D01*
X18854428Y-33497000D01*
X18902047Y-33544619D01*
X18949666Y-33639857D01*
X18949666Y-33735095D01*
X18902047Y-33877952D01*
X18330619Y-34449380D01*
X18949666Y-34449380D01*
%TO.C,R4*%
X49585333Y-76522380D02*
X49252000Y-76046190D01*
X49013904Y-76522380D02*
X49013904Y-75522380D01*
X49394857Y-75522380D01*
X49490095Y-75570000D01*
X49537714Y-75617619D01*
X49585333Y-75712857D01*
X49585333Y-75855714D01*
X49537714Y-75950952D01*
X49490095Y-75998571D01*
X49394857Y-76046190D01*
X49013904Y-76046190D01*
X50442476Y-75855714D02*
X50442476Y-76522380D01*
X50204380Y-75474761D02*
X49966285Y-76189047D01*
X50585333Y-76189047D01*
%TO.C,U2*%
X79131142Y-13824158D02*
X79131142Y-14635230D01*
X79178852Y-14730651D01*
X79226563Y-14778361D01*
X79321983Y-14826071D01*
X79512823Y-14826071D01*
X79608244Y-14778361D01*
X79655954Y-14730651D01*
X79703664Y-14635230D01*
X79703664Y-13824158D01*
X80133055Y-13919578D02*
X80180765Y-13871868D01*
X80276186Y-13824158D01*
X80514736Y-13824158D01*
X80610157Y-13871868D01*
X80657867Y-13919578D01*
X80705577Y-14014998D01*
X80705577Y-14110419D01*
X80657867Y-14253549D01*
X80085345Y-14826071D01*
X80705577Y-14826071D01*
%TO.C,TP6*%
X72906095Y-28916380D02*
X73477523Y-28916380D01*
X73191809Y-29916380D02*
X73191809Y-28916380D01*
X73810857Y-29916380D02*
X73810857Y-28916380D01*
X74191809Y-28916380D01*
X74287047Y-28964000D01*
X74334666Y-29011619D01*
X74382285Y-29106857D01*
X74382285Y-29249714D01*
X74334666Y-29344952D01*
X74287047Y-29392571D01*
X74191809Y-29440190D01*
X73810857Y-29440190D01*
X75239428Y-28916380D02*
X75048952Y-28916380D01*
X74953714Y-28964000D01*
X74906095Y-29011619D01*
X74810857Y-29154476D01*
X74763238Y-29344952D01*
X74763238Y-29725904D01*
X74810857Y-29821142D01*
X74858476Y-29868761D01*
X74953714Y-29916380D01*
X75144190Y-29916380D01*
X75239428Y-29868761D01*
X75287047Y-29821142D01*
X75334666Y-29725904D01*
X75334666Y-29487809D01*
X75287047Y-29392571D01*
X75239428Y-29344952D01*
X75144190Y-29297333D01*
X74953714Y-29297333D01*
X74858476Y-29344952D01*
X74810857Y-29392571D01*
X74763238Y-29487809D01*
%TO.C,JP2*%
X58094666Y-75144380D02*
X58094666Y-75858666D01*
X58047047Y-76001523D01*
X57951809Y-76096761D01*
X57808952Y-76144380D01*
X57713714Y-76144380D01*
X58570857Y-76144380D02*
X58570857Y-75144380D01*
X58951809Y-75144380D01*
X59047047Y-75192000D01*
X59094666Y-75239619D01*
X59142285Y-75334857D01*
X59142285Y-75477714D01*
X59094666Y-75572952D01*
X59047047Y-75620571D01*
X58951809Y-75668190D01*
X58570857Y-75668190D01*
X59523238Y-75239619D02*
X59570857Y-75192000D01*
X59666095Y-75144380D01*
X59904190Y-75144380D01*
X59999428Y-75192000D01*
X60047047Y-75239619D01*
X60094666Y-75334857D01*
X60094666Y-75430095D01*
X60047047Y-75572952D01*
X59475619Y-76144380D01*
X60094666Y-76144380D01*
X61529714Y-74112380D02*
X60958285Y-74112380D01*
X61244000Y-74112380D02*
X61244000Y-73112380D01*
X61148761Y-73255238D01*
X61053523Y-73350476D01*
X60958285Y-73398095D01*
X55710666Y-73112380D02*
X56329714Y-73112380D01*
X55996380Y-73493333D01*
X56139238Y-73493333D01*
X56234476Y-73540952D01*
X56282095Y-73588571D01*
X56329714Y-73683809D01*
X56329714Y-73921904D01*
X56282095Y-74017142D01*
X56234476Y-74064761D01*
X56139238Y-74112380D01*
X55853523Y-74112380D01*
X55758285Y-74064761D01*
X55710666Y-74017142D01*
%TO.C,H1*%
X16205295Y-64663980D02*
X16205295Y-63663980D01*
X16205295Y-64140171D02*
X16776723Y-64140171D01*
X16776723Y-64663980D02*
X16776723Y-63663980D01*
X17776723Y-64663980D02*
X17205295Y-64663980D01*
X17491009Y-64663980D02*
X17491009Y-63663980D01*
X17395771Y-63806838D01*
X17300533Y-63902076D01*
X17205295Y-63949695D01*
%TO.C,TP3*%
X65033595Y-53990380D02*
X65605023Y-53990380D01*
X65319309Y-54990380D02*
X65319309Y-53990380D01*
X65938357Y-54990380D02*
X65938357Y-53990380D01*
X66319309Y-53990380D01*
X66414547Y-54038000D01*
X66462166Y-54085619D01*
X66509785Y-54180857D01*
X66509785Y-54323714D01*
X66462166Y-54418952D01*
X66414547Y-54466571D01*
X66319309Y-54514190D01*
X65938357Y-54514190D01*
X66843119Y-53990380D02*
X67462166Y-53990380D01*
X67128833Y-54371333D01*
X67271690Y-54371333D01*
X67366928Y-54418952D01*
X67414547Y-54466571D01*
X67462166Y-54561809D01*
X67462166Y-54799904D01*
X67414547Y-54895142D01*
X67366928Y-54942761D01*
X67271690Y-54990380D01*
X66985976Y-54990380D01*
X66890738Y-54942761D01*
X66843119Y-54895142D01*
%TO.C,R9*%
X32345333Y-84272380D02*
X32012000Y-83796190D01*
X31773904Y-84272380D02*
X31773904Y-83272380D01*
X32154857Y-83272380D01*
X32250095Y-83320000D01*
X32297714Y-83367619D01*
X32345333Y-83462857D01*
X32345333Y-83605714D01*
X32297714Y-83700952D01*
X32250095Y-83748571D01*
X32154857Y-83796190D01*
X31773904Y-83796190D01*
X32821523Y-84272380D02*
X33012000Y-84272380D01*
X33107238Y-84224761D01*
X33154857Y-84177142D01*
X33250095Y-84034285D01*
X33297714Y-83843809D01*
X33297714Y-83462857D01*
X33250095Y-83367619D01*
X33202476Y-83320000D01*
X33107238Y-83272380D01*
X32916761Y-83272380D01*
X32821523Y-83320000D01*
X32773904Y-83367619D01*
X32726285Y-83462857D01*
X32726285Y-83700952D01*
X32773904Y-83796190D01*
X32821523Y-83843809D01*
X32916761Y-83891428D01*
X33107238Y-83891428D01*
X33202476Y-83843809D01*
X33250095Y-83796190D01*
X33297714Y-83700952D01*
%TO.C,C19*%
X38332562Y-24741142D02*
X38284943Y-24788761D01*
X38142086Y-24836380D01*
X38046848Y-24836380D01*
X37903991Y-24788761D01*
X37808753Y-24693523D01*
X37761134Y-24598285D01*
X37713515Y-24407809D01*
X37713515Y-24264952D01*
X37761134Y-24074476D01*
X37808753Y-23979238D01*
X37903991Y-23884000D01*
X38046848Y-23836380D01*
X38142086Y-23836380D01*
X38284943Y-23884000D01*
X38332562Y-23931619D01*
X39284943Y-24836380D02*
X38713515Y-24836380D01*
X38999229Y-24836380D02*
X38999229Y-23836380D01*
X38903991Y-23979238D01*
X38808753Y-24074476D01*
X38713515Y-24122095D01*
X39761134Y-24836380D02*
X39951610Y-24836380D01*
X40046848Y-24788761D01*
X40094467Y-24741142D01*
X40189705Y-24598285D01*
X40237324Y-24407809D01*
X40237324Y-24026857D01*
X40189705Y-23931619D01*
X40142086Y-23884000D01*
X40046848Y-23836380D01*
X39856372Y-23836380D01*
X39761134Y-23884000D01*
X39713515Y-23931619D01*
X39665896Y-24026857D01*
X39665896Y-24264952D01*
X39713515Y-24360190D01*
X39761134Y-24407809D01*
X39856372Y-24455428D01*
X40046848Y-24455428D01*
X40142086Y-24407809D01*
X40189705Y-24360190D01*
X40237324Y-24264952D01*
D11*
%TO.C,SW1*%
X33068666Y-37976047D02*
X33250095Y-38036523D01*
X33552476Y-38036523D01*
X33673428Y-37976047D01*
X33733904Y-37915571D01*
X33794380Y-37794619D01*
X33794380Y-37673666D01*
X33733904Y-37552714D01*
X33673428Y-37492238D01*
X33552476Y-37431761D01*
X33310571Y-37371285D01*
X33189619Y-37310809D01*
X33129142Y-37250333D01*
X33068666Y-37129380D01*
X33068666Y-37008428D01*
X33129142Y-36887476D01*
X33189619Y-36827000D01*
X33310571Y-36766523D01*
X33612952Y-36766523D01*
X33794380Y-36827000D01*
X34217714Y-36766523D02*
X34520095Y-38036523D01*
X34762000Y-37129380D01*
X35003904Y-38036523D01*
X35306285Y-36766523D01*
X36455333Y-38036523D02*
X35729619Y-38036523D01*
X36092476Y-38036523D02*
X36092476Y-36766523D01*
X35971523Y-36947952D01*
X35850571Y-37068904D01*
X35729619Y-37129380D01*
D10*
%TO.C,C13*%
X72001142Y-89511142D02*
X71953523Y-89558761D01*
X71810666Y-89606380D01*
X71715428Y-89606380D01*
X71572571Y-89558761D01*
X71477333Y-89463523D01*
X71429714Y-89368285D01*
X71382095Y-89177809D01*
X71382095Y-89034952D01*
X71429714Y-88844476D01*
X71477333Y-88749238D01*
X71572571Y-88654000D01*
X71715428Y-88606380D01*
X71810666Y-88606380D01*
X71953523Y-88654000D01*
X72001142Y-88701619D01*
X72953523Y-89606380D02*
X72382095Y-89606380D01*
X72667809Y-89606380D02*
X72667809Y-88606380D01*
X72572571Y-88749238D01*
X72477333Y-88844476D01*
X72382095Y-88892095D01*
X73286857Y-88606380D02*
X73905904Y-88606380D01*
X73572571Y-88987333D01*
X73715428Y-88987333D01*
X73810666Y-89034952D01*
X73858285Y-89082571D01*
X73905904Y-89177809D01*
X73905904Y-89415904D01*
X73858285Y-89511142D01*
X73810666Y-89558761D01*
X73715428Y-89606380D01*
X73429714Y-89606380D01*
X73334476Y-89558761D01*
X73286857Y-89511142D01*
D11*
%TO.C,Y1*%
X40520238Y-68774761D02*
X40520238Y-69379523D01*
X40096904Y-68109523D02*
X40520238Y-68774761D01*
X40943571Y-68109523D01*
X42032142Y-69379523D02*
X41306428Y-69379523D01*
X41669285Y-69379523D02*
X41669285Y-68109523D01*
X41548333Y-68290952D01*
X41427380Y-68411904D01*
X41306428Y-68472380D01*
%TO.C,IC2*%
X37876238Y-20386523D02*
X37876238Y-19116523D01*
X39206714Y-20265571D02*
X39146238Y-20326047D01*
X38964809Y-20386523D01*
X38843857Y-20386523D01*
X38662428Y-20326047D01*
X38541476Y-20205095D01*
X38481000Y-20084142D01*
X38420523Y-19842238D01*
X38420523Y-19660809D01*
X38481000Y-19418904D01*
X38541476Y-19297952D01*
X38662428Y-19177000D01*
X38843857Y-19116523D01*
X38964809Y-19116523D01*
X39146238Y-19177000D01*
X39206714Y-19237476D01*
X39690523Y-19237476D02*
X39751000Y-19177000D01*
X39871952Y-19116523D01*
X40174333Y-19116523D01*
X40295285Y-19177000D01*
X40355761Y-19237476D01*
X40416238Y-19358428D01*
X40416238Y-19479380D01*
X40355761Y-19660809D01*
X39630047Y-20386523D01*
X40416238Y-20386523D01*
D10*
%TO.C,C11*%
X58524642Y-56373277D02*
X58572261Y-56420896D01*
X58619880Y-56563753D01*
X58619880Y-56658991D01*
X58572261Y-56801848D01*
X58477023Y-56897086D01*
X58381785Y-56944705D01*
X58191309Y-56992324D01*
X58048452Y-56992324D01*
X57857976Y-56944705D01*
X57762738Y-56897086D01*
X57667500Y-56801848D01*
X57619880Y-56658991D01*
X57619880Y-56563753D01*
X57667500Y-56420896D01*
X57715119Y-56373277D01*
X58619880Y-55420896D02*
X58619880Y-55992324D01*
X58619880Y-55706610D02*
X57619880Y-55706610D01*
X57762738Y-55801848D01*
X57857976Y-55897086D01*
X57905595Y-55992324D01*
X58619880Y-54468515D02*
X58619880Y-55039943D01*
X58619880Y-54754229D02*
X57619880Y-54754229D01*
X57762738Y-54849467D01*
X57857976Y-54944705D01*
X57905595Y-55039943D01*
%TO.C,Q1*%
X39409619Y-85591638D02*
X39362000Y-85686876D01*
X39266761Y-85782114D01*
X39123904Y-85924971D01*
X39076285Y-86020209D01*
X39076285Y-86115447D01*
X39314380Y-86067828D02*
X39266761Y-86163066D01*
X39171523Y-86258304D01*
X38981047Y-86305923D01*
X38647714Y-86305923D01*
X38457238Y-86258304D01*
X38362000Y-86163066D01*
X38314380Y-86067828D01*
X38314380Y-85877352D01*
X38362000Y-85782114D01*
X38457238Y-85686876D01*
X38647714Y-85639257D01*
X38981047Y-85639257D01*
X39171523Y-85686876D01*
X39266761Y-85782114D01*
X39314380Y-85877352D01*
X39314380Y-86067828D01*
X39314380Y-84686876D02*
X39314380Y-85258304D01*
X39314380Y-84972590D02*
X38314380Y-84972590D01*
X38457238Y-85067828D01*
X38552476Y-85163066D01*
X38600095Y-85258304D01*
%TO.C,TP4*%
X21042380Y-68571904D02*
X21042380Y-68000476D01*
X22042380Y-68286190D02*
X21042380Y-68286190D01*
X22042380Y-67667142D02*
X21042380Y-67667142D01*
X21042380Y-67286190D01*
X21090000Y-67190952D01*
X21137619Y-67143333D01*
X21232857Y-67095714D01*
X21375714Y-67095714D01*
X21470952Y-67143333D01*
X21518571Y-67190952D01*
X21566190Y-67286190D01*
X21566190Y-67667142D01*
X21375714Y-66238571D02*
X22042380Y-66238571D01*
X20994761Y-66476666D02*
X21709047Y-66714761D01*
X21709047Y-66095714D01*
%TO.C,C9*%
X55823142Y-70511666D02*
X55870761Y-70559285D01*
X55918380Y-70702142D01*
X55918380Y-70797380D01*
X55870761Y-70940238D01*
X55775523Y-71035476D01*
X55680285Y-71083095D01*
X55489809Y-71130714D01*
X55346952Y-71130714D01*
X55156476Y-71083095D01*
X55061238Y-71035476D01*
X54966000Y-70940238D01*
X54918380Y-70797380D01*
X54918380Y-70702142D01*
X54966000Y-70559285D01*
X55013619Y-70511666D01*
X55918380Y-70035476D02*
X55918380Y-69845000D01*
X55870761Y-69749761D01*
X55823142Y-69702142D01*
X55680285Y-69606904D01*
X55489809Y-69559285D01*
X55108857Y-69559285D01*
X55013619Y-69606904D01*
X54966000Y-69654523D01*
X54918380Y-69749761D01*
X54918380Y-69940238D01*
X54966000Y-70035476D01*
X55013619Y-70083095D01*
X55108857Y-70130714D01*
X55346952Y-70130714D01*
X55442190Y-70083095D01*
X55489809Y-70035476D01*
X55537428Y-69940238D01*
X55537428Y-69749761D01*
X55489809Y-69654523D01*
X55442190Y-69606904D01*
X55346952Y-69559285D01*
%TO.C,C17*%
X55355142Y-14581142D02*
X55307523Y-14628761D01*
X55164666Y-14676380D01*
X55069428Y-14676380D01*
X54926571Y-14628761D01*
X54831333Y-14533523D01*
X54783714Y-14438285D01*
X54736095Y-14247809D01*
X54736095Y-14104952D01*
X54783714Y-13914476D01*
X54831333Y-13819238D01*
X54926571Y-13724000D01*
X55069428Y-13676380D01*
X55164666Y-13676380D01*
X55307523Y-13724000D01*
X55355142Y-13771619D01*
X56307523Y-14676380D02*
X55736095Y-14676380D01*
X56021809Y-14676380D02*
X56021809Y-13676380D01*
X55926571Y-13819238D01*
X55831333Y-13914476D01*
X55736095Y-13962095D01*
X56640857Y-13676380D02*
X57307523Y-13676380D01*
X56878952Y-14676380D01*
D12*
%TO.C,J6*%
X26964600Y-25065200D02*
X27714600Y-25065200D01*
X25464600Y-18215200D02*
X24124600Y-18215200D01*
X21754600Y-25075200D02*
X27724600Y-25075200D01*
X27714600Y-23265200D02*
X26964600Y-23265200D01*
X27724600Y-17455200D02*
X21754600Y-17455200D01*
X21754600Y-17455200D02*
X21754600Y-25075200D01*
X27714600Y-17465200D02*
X26964600Y-17465200D01*
X22514600Y-24315200D02*
X22514600Y-21265200D01*
X26964600Y-19265200D02*
X27714600Y-19265200D01*
X27714600Y-19265200D02*
X27714600Y-17465200D01*
X25464600Y-24315200D02*
X22514600Y-24315200D01*
X22514600Y-21265200D02*
X22514600Y-19275200D01*
X27714600Y-21765200D02*
X27714600Y-20765200D01*
X27714600Y-20765200D02*
X26964600Y-20765200D01*
X25464600Y-17465200D02*
X25464600Y-18215200D01*
X25464600Y-25065200D02*
X25464600Y-24315200D01*
X27724600Y-25075200D02*
X27724600Y-17455200D01*
X26964600Y-21765200D02*
X27714600Y-21765200D01*
X28014600Y-17165200D02*
X26764600Y-17165200D01*
X26964600Y-17465200D02*
X26964600Y-19265200D01*
X27714600Y-25065200D02*
X27714600Y-23265200D01*
X28014600Y-18415200D02*
X28014600Y-17165200D01*
X26964600Y-20765200D02*
X26964600Y-21765200D01*
X26964600Y-23265200D02*
X26964600Y-25065200D01*
%TO.C,C15*%
X95095600Y-70992420D02*
X95095600Y-71273580D01*
X96115600Y-70992420D02*
X96115600Y-71273580D01*
D13*
%TO.C,IC1*%
X49290000Y-62400000D02*
X35990000Y-62400000D01*
X35990000Y-62400000D02*
X35990000Y-49100000D01*
X35990000Y-49100000D02*
X49290000Y-49100000D01*
X49290000Y-49100000D02*
X49290000Y-62400000D01*
D14*
X34515000Y-49000000D02*
G75*
G03*
X34515000Y-49000000I-125000J0D01*
G01*
D12*
%TO.C,D1*%
X35168000Y-44566000D02*
X35168000Y-45616000D01*
X35148000Y-42556000D02*
X32718000Y-42556000D01*
X35168000Y-42566000D02*
X35168000Y-43566000D01*
X35168000Y-45616000D02*
X33318000Y-45616000D01*
D15*
%TO.C,IC5*%
X64755500Y-57646000D02*
X64755500Y-57146000D01*
X62455500Y-56346000D02*
X62455500Y-56346000D01*
X62455500Y-56446000D02*
X62455500Y-56446000D01*
X64555500Y-57646000D02*
X64755500Y-57646000D01*
X62755500Y-57146000D02*
X62755500Y-57646000D01*
X64755500Y-56146000D02*
X64755500Y-55646000D01*
X62755500Y-55646000D02*
X62955500Y-55646000D01*
X62755500Y-57646000D02*
X62955500Y-57646000D01*
X64755500Y-55646000D02*
X64555500Y-55646000D01*
X62755500Y-56146000D02*
X62755500Y-55646000D01*
X62455500Y-56346000D02*
G75*
G03*
X62455500Y-56446000I0J-50000D01*
G01*
X62455500Y-56446000D02*
G75*
G03*
X62455500Y-56346000I0J50000D01*
G01*
D12*
%TO.C,TP12*%
X50452000Y-68450000D02*
G75*
G03*
X50452000Y-68450000I-700000J0D01*
G01*
D15*
%TO.C,IC3*%
X58436000Y-32028000D02*
X57936000Y-32028000D01*
X60436000Y-35028000D02*
X60936000Y-35028000D01*
X60236000Y-31728000D02*
X60236000Y-31728000D01*
X60936000Y-35028000D02*
X60936000Y-34528000D01*
X60936000Y-32028000D02*
X60936000Y-32528000D01*
X57936000Y-34528000D02*
X57936000Y-35028000D01*
X57936000Y-32028000D02*
X57936000Y-32528000D01*
X57936000Y-35028000D02*
X58436000Y-35028000D01*
X60336000Y-31728000D02*
X60336000Y-31728000D01*
X60636000Y-32028000D02*
X60936000Y-32028000D01*
X60236000Y-31728000D02*
G75*
G03*
X60336000Y-31728000I50000J0D01*
G01*
X60336000Y-31728000D02*
G75*
G03*
X60236000Y-31728000I-50000J0D01*
G01*
D12*
%TO.C,TP14*%
X53963000Y-79606000D02*
G75*
G03*
X53963000Y-79606000I-700000J0D01*
G01*
%TO.C,C21*%
X59068580Y-36574000D02*
X58787420Y-36574000D01*
X59068580Y-37594000D02*
X58787420Y-37594000D01*
D13*
%TO.C,IC6*%
X58468000Y-66822000D02*
X58468000Y-66822000D01*
X58468000Y-66822000D02*
X58468000Y-66822000D01*
X58568000Y-66822000D02*
X58568000Y-66822000D01*
X58468000Y-66822000D02*
G75*
G03*
X58568000Y-66822000I50000J0D01*
G01*
X58468000Y-66822000D02*
G75*
G03*
X58568000Y-66822000I50000J0D01*
G01*
X58568000Y-66822000D02*
G75*
G03*
X58468000Y-66822000I-50000J0D01*
G01*
D12*
%TO.C,C22*%
X63257000Y-36435420D02*
X63257000Y-36716580D01*
X62237000Y-36435420D02*
X62237000Y-36716580D01*
%TO.C,R2*%
X35989742Y-66911500D02*
X36464258Y-66911500D01*
X35989742Y-67956500D02*
X36464258Y-67956500D01*
%TO.C,TP10*%
X73852000Y-83820000D02*
G75*
G03*
X73852000Y-83820000I-700000J0D01*
G01*
%TO.C,TP2*%
X66740000Y-73660000D02*
G75*
G03*
X66740000Y-73660000I-700000J0D01*
G01*
%TO.C,TP13*%
X46896000Y-68450000D02*
G75*
G03*
X46896000Y-68450000I-700000J0D01*
G01*
%TO.C,C3*%
X34038000Y-67931420D02*
X34038000Y-68212580D01*
X33018000Y-67931420D02*
X33018000Y-68212580D01*
D13*
%TO.C,U1*%
X49716000Y-16820000D02*
X49716000Y-16820000D01*
X49566000Y-16820000D02*
X49566000Y-16820000D01*
D15*
X52116000Y-17070000D02*
X58216000Y-17070000D01*
X52116000Y-23570000D02*
X52116000Y-17070000D01*
X58216000Y-23570000D02*
X52116000Y-23570000D01*
D13*
X49566000Y-16820000D02*
G75*
G03*
X49716000Y-16820000I75000J0D01*
G01*
X49716000Y-16820000D02*
G75*
G03*
X49566000Y-16820000I-75000J0D01*
G01*
D12*
%TO.C,C10*%
X62598920Y-53088000D02*
X62880080Y-53088000D01*
X62598920Y-54108000D02*
X62880080Y-54108000D01*
%TO.C,JP1*%
X66819500Y-56404000D02*
X68819500Y-56404000D01*
X66819500Y-60504000D02*
X66819500Y-56404000D01*
X68819500Y-60504000D02*
X66819500Y-60504000D01*
X68819500Y-56404000D02*
X68819500Y-60504000D01*
%TO.C,J1*%
X48791000Y-33607000D02*
X48791000Y-41347000D01*
X43591000Y-36207000D02*
X43591000Y-41347000D01*
X46191000Y-33607000D02*
X48791000Y-33607000D01*
X46191000Y-36207000D02*
X46191000Y-33607000D01*
X43591000Y-33607000D02*
X44921000Y-33607000D01*
X43591000Y-36207000D02*
X46191000Y-36207000D01*
X43591000Y-34937000D02*
X43591000Y-33607000D01*
X43591000Y-41347000D02*
X48791000Y-41347000D01*
%TO.C,C5*%
X33380000Y-55619420D02*
X33380000Y-55900580D01*
X32360000Y-55619420D02*
X32360000Y-55900580D01*
%TO.C,C7*%
X65518000Y-65419420D02*
X65518000Y-65700580D01*
X66538000Y-65419420D02*
X66538000Y-65700580D01*
%TO.C,R7*%
X46485742Y-84192500D02*
X46960258Y-84192500D01*
X46485742Y-83147500D02*
X46960258Y-83147500D01*
%TO.C,R1*%
X40887742Y-72652500D02*
X41362258Y-72652500D01*
X40887742Y-71607500D02*
X41362258Y-71607500D01*
%TO.C,R3*%
X45800500Y-73767258D02*
X45800500Y-73292742D01*
X46845500Y-73767258D02*
X46845500Y-73292742D01*
%TO.C,TP1*%
X63955000Y-33528000D02*
G75*
G03*
X63955000Y-33528000I-700000J0D01*
G01*
%TO.C,TP5*%
X73344000Y-24892000D02*
G75*
G03*
X73344000Y-24892000I-700000J0D01*
G01*
%TO.C,C1*%
X36367580Y-68829000D02*
X36086420Y-68829000D01*
X36367580Y-69849000D02*
X36086420Y-69849000D01*
%TO.C,R6*%
X49756500Y-79889742D02*
X49756500Y-80364258D01*
X50801500Y-79889742D02*
X50801500Y-80364258D01*
%TO.C,R8*%
X71357258Y-27954500D02*
X70882742Y-27954500D01*
X71357258Y-26909500D02*
X70882742Y-26909500D01*
%TO.C,C14*%
X92047600Y-70992420D02*
X92047600Y-71273580D01*
X93067600Y-70992420D02*
X93067600Y-71273580D01*
%TO.C,D2*%
X48246000Y-87798000D02*
X48246000Y-85368000D01*
X46236000Y-87818000D02*
X45186000Y-87818000D01*
X48236000Y-87818000D02*
X47236000Y-87818000D01*
X45186000Y-87818000D02*
X45186000Y-85968000D01*
%TO.C,TP11*%
X74360000Y-80772000D02*
G75*
G03*
X74360000Y-80772000I-700000J0D01*
G01*
%TO.C,C12*%
X94772726Y-22719420D02*
X94772726Y-23000580D01*
X93752726Y-22719420D02*
X93752726Y-23000580D01*
%TO.C,C4*%
X46345580Y-45970000D02*
X46064420Y-45970000D01*
X46345580Y-44950000D02*
X46064420Y-44950000D01*
D10*
%TO.C,J3*%
X102417000Y-74943200D02*
X97717000Y-74943200D01*
X102417000Y-82943200D02*
X97717000Y-82943200D01*
X97717000Y-74943200D02*
X97717000Y-82943200D01*
D14*
X97207000Y-78943200D02*
G75*
G03*
X97207000Y-78943200I-125000J0D01*
G01*
D15*
%TO.C,J5*%
X25361000Y-72231000D02*
X19936000Y-72231000D01*
X28361000Y-82556000D02*
X28361000Y-86756000D01*
D13*
X30236000Y-81956000D02*
X30236000Y-81956000D01*
D15*
X13611000Y-72231000D02*
X13611000Y-87281000D01*
D13*
X30236000Y-81756000D02*
X30236000Y-81756000D01*
D15*
X13611000Y-87281000D02*
X16361000Y-87281000D01*
X25361000Y-87281000D02*
X19936000Y-87281000D01*
X16361000Y-72231000D02*
X13611000Y-72231000D01*
D13*
X30236000Y-81756000D02*
G75*
G03*
X30236000Y-81956000I0J-100000D01*
G01*
X30236000Y-81956000D02*
G75*
G03*
X30236000Y-81756000I0J100000D01*
G01*
D12*
%TO.C,C6*%
X63640580Y-62990000D02*
X63359420Y-62990000D01*
X63640580Y-64010000D02*
X63359420Y-64010000D01*
%TO.C,C18*%
X52582580Y-25910000D02*
X52301420Y-25910000D01*
X52582580Y-24890000D02*
X52301420Y-24890000D01*
D15*
%TO.C,IC4*%
X90204000Y-87264000D02*
X90204000Y-87264000D01*
D13*
X76704000Y-88264000D02*
X88904000Y-88264000D01*
D15*
X90104000Y-87264000D02*
X90104000Y-87264000D01*
D13*
X76704000Y-72264000D02*
X88904000Y-72264000D01*
D15*
X90204000Y-87264000D02*
G75*
G03*
X90104000Y-87264000I-50000J0D01*
G01*
X90104000Y-87264000D02*
G75*
G03*
X90204000Y-87264000I50000J0D01*
G01*
D12*
%TO.C,C16*%
X31743000Y-77356580D02*
X31743000Y-77075420D01*
X32763000Y-77356580D02*
X32763000Y-77075420D01*
D10*
%TO.C,J4*%
X102450000Y-21654000D02*
X97750000Y-21654000D01*
X102450000Y-29654000D02*
X97750000Y-29654000D01*
X97750000Y-21654000D02*
X97750000Y-29654000D01*
D14*
X97240000Y-25654000D02*
G75*
G03*
X97240000Y-25654000I-125000J0D01*
G01*
D12*
%TO.C,C20*%
X42162000Y-19952580D02*
X42162000Y-19671420D01*
X43182000Y-19952580D02*
X43182000Y-19671420D01*
%TO.C,C8*%
X61974000Y-73278420D02*
X61974000Y-73559580D01*
X62994000Y-73278420D02*
X62994000Y-73559580D01*
%TO.C,C2*%
X53065000Y-55760580D02*
X53065000Y-55479420D01*
X52045000Y-55760580D02*
X52045000Y-55479420D01*
%TO.C,J2*%
X15683000Y-34997000D02*
X17013000Y-34997000D01*
X15683000Y-37597000D02*
X18283000Y-37597000D01*
X15683000Y-36327000D02*
X15683000Y-34997000D01*
X18283000Y-37597000D02*
X18283000Y-34997000D01*
X20883000Y-34997000D02*
X20883000Y-60517000D01*
X15683000Y-60517000D02*
X20883000Y-60517000D01*
X18283000Y-34997000D02*
X20883000Y-34997000D01*
X15683000Y-37597000D02*
X15683000Y-60517000D01*
%TO.C,R4*%
X49229500Y-73767258D02*
X49229500Y-73292742D01*
X50274500Y-73767258D02*
X50274500Y-73292742D01*
D13*
%TO.C,U2*%
X76328000Y-15876000D02*
X92328000Y-15876000D01*
X92328000Y-31876000D02*
X76328000Y-31876000D01*
X74869547Y-16876000D02*
G75*
G03*
X74869547Y-16876000I-291547J0D01*
G01*
G36*
X74828000Y-17068200D02*
G01*
X74316500Y-17068200D01*
X74316500Y-16676000D01*
X74828000Y-16676000D01*
X74828000Y-17068200D01*
G37*
D16*
X74828000Y-17068200D02*
X74316500Y-17068200D01*
X74316500Y-16676000D01*
X74828000Y-16676000D01*
X74828000Y-17068200D01*
D12*
%TO.C,TP6*%
X74868000Y-27432000D02*
G75*
G03*
X74868000Y-27432000I-700000J0D01*
G01*
%TO.C,JP2*%
X56594000Y-72660000D02*
X60694000Y-72660000D01*
X60694000Y-72660000D02*
X60694000Y-74660000D01*
X60694000Y-74660000D02*
X56594000Y-74660000D01*
X56594000Y-74660000D02*
X56594000Y-72660000D01*
%TO.C,TP3*%
X66995500Y-53090000D02*
G75*
G03*
X66995500Y-53090000I-700000J0D01*
G01*
%TO.C,R9*%
X32274742Y-81773500D02*
X32749258Y-81773500D01*
X32274742Y-82818500D02*
X32749258Y-82818500D01*
%TO.C,C19*%
X38975420Y-23370000D02*
X39256580Y-23370000D01*
X38975420Y-22350000D02*
X39256580Y-22350000D01*
D15*
%TO.C,SW1*%
X36612000Y-35862000D02*
X32437000Y-35862000D01*
X36612000Y-39062000D02*
X32437000Y-39062000D01*
D13*
X37612000Y-38462000D02*
X37612000Y-38462000D01*
X37612000Y-38662000D02*
X37612000Y-38662000D01*
X37612000Y-38462000D02*
G75*
G03*
X37612000Y-38662000I0J-100000D01*
G01*
X37612000Y-38662000D02*
G75*
G03*
X37612000Y-38462000I0J100000D01*
G01*
D12*
%TO.C,C13*%
X73154000Y-86968420D02*
X73154000Y-87249580D01*
X72134000Y-86968420D02*
X72134000Y-87249580D01*
D13*
%TO.C,Y1*%
X40025000Y-69930000D02*
X40025000Y-69930000D01*
X39825000Y-69930000D02*
X39825000Y-69930000D01*
D15*
X42725000Y-69180000D02*
X42725000Y-67880000D01*
X39525000Y-69180000D02*
X39525000Y-67880000D01*
D13*
X40025000Y-69930000D02*
G75*
G03*
X39825000Y-69930000I-100000J0D01*
G01*
X39825000Y-69930000D02*
G75*
G03*
X40025000Y-69930000I100000J0D01*
G01*
%TO.C,IC2*%
X40966000Y-21312000D02*
X39766000Y-21312000D01*
X39416000Y-21272000D02*
X38816000Y-21272000D01*
X38816000Y-21272000D02*
X38816000Y-18352000D01*
X39416000Y-18352000D02*
X39416000Y-21272000D01*
X38816000Y-18352000D02*
X39416000Y-18352000D01*
D12*
%TO.C,C11*%
X59181500Y-55730420D02*
X59181500Y-56011580D01*
X60201500Y-55730420D02*
X60201500Y-56011580D01*
%TO.C,Q1*%
X39740400Y-85547200D02*
X39740400Y-86197200D01*
X39740400Y-85547200D02*
X39740400Y-84897200D01*
X42860400Y-85547200D02*
X42860400Y-86197200D01*
X42860400Y-85547200D02*
X42860400Y-83872200D01*
%TO.C,TP4*%
X23814000Y-67310000D02*
G75*
G03*
X23814000Y-67310000I-700000J0D01*
G01*
%TO.C,C9*%
X57406000Y-70485580D02*
X57406000Y-70204420D01*
X56386000Y-70485580D02*
X56386000Y-70204420D01*
%TO.C,C17*%
X52809420Y-15242000D02*
X53090580Y-15242000D01*
X52809420Y-14222000D02*
X53090580Y-14222000D01*
%TD*%
M02*
