%TF.GenerationSoftware,KiCad,Pcbnew,6.0.9-8da3e8f707~116~ubuntu22.04.1*%
%TF.CreationDate,2023-09-17T15:53:30-04:00*%
%TF.ProjectId,Recovery_DoubleStage,5265636f-7665-4727-995f-446f75626c65,rev?*%
%TF.SameCoordinates,Original*%
%TF.FileFunction,Copper,L4,Bot*%
%TF.FilePolarity,Positive*%
%FSLAX46Y46*%
G04 Gerber Fmt 4.6, Leading zero omitted, Abs format (unit mm)*
G04 Created by KiCad (PCBNEW 6.0.9-8da3e8f707~116~ubuntu22.04.1) date 2023-09-17 15:53:30*
%MOMM*%
%LPD*%
G01*
G04 APERTURE LIST*
G04 Aperture macros list*
%AMRoundRect*
0 Rectangle with rounded corners*
0 $1 Rounding radius*
0 $2 $3 $4 $5 $6 $7 $8 $9 X,Y pos of 4 corners*
0 Add a 4 corners polygon primitive as box body*
4,1,4,$2,$3,$4,$5,$6,$7,$8,$9,$2,$3,0*
0 Add four circle primitives for the rounded corners*
1,1,$1+$1,$2,$3*
1,1,$1+$1,$4,$5*
1,1,$1+$1,$6,$7*
1,1,$1+$1,$8,$9*
0 Add four rect primitives between the rounded corners*
20,1,$1+$1,$2,$3,$4,$5,0*
20,1,$1+$1,$4,$5,$6,$7,0*
20,1,$1+$1,$6,$7,$8,$9,0*
20,1,$1+$1,$8,$9,$2,$3,0*%
G04 Aperture macros list end*
%TA.AperFunction,ComponentPad*%
%ADD10RoundRect,0.250000X-0.750000X0.600000X-0.750000X-0.600000X0.750000X-0.600000X0.750000X0.600000X0*%
%TD*%
%TA.AperFunction,ComponentPad*%
%ADD11O,2.000000X1.700000*%
%TD*%
%TA.AperFunction,ComponentPad*%
%ADD12R,1.700000X1.700000*%
%TD*%
%TA.AperFunction,ComponentPad*%
%ADD13O,1.700000X1.700000*%
%TD*%
%TA.AperFunction,SMDPad,CuDef*%
%ADD14R,5.000000X1.600000*%
%TD*%
%TA.AperFunction,ViaPad*%
%ADD15C,0.800000*%
%TD*%
%TA.AperFunction,Conductor*%
%ADD16C,0.250000*%
%TD*%
G04 APERTURE END LIST*
D10*
%TO.P,J6,1,+*%
%TO.N,+BATT*%
X25264600Y-20015200D03*
D11*
%TO.P,J6,2,-*%
%TO.N,GND*%
X25264600Y-22515200D03*
%TD*%
D12*
%TO.P,J1,1,Pin_1*%
%TO.N,/MISO*%
X44921000Y-34937000D03*
D13*
%TO.P,J1,2,Pin_2*%
%TO.N,+3V3*%
X47461000Y-34937000D03*
%TO.P,J1,3,Pin_3*%
%TO.N,/SCK*%
X44921000Y-37477000D03*
%TO.P,J1,4,Pin_4*%
%TO.N,/MOSI*%
X47461000Y-37477000D03*
%TO.P,J1,5,Pin_5*%
%TO.N,/microcontroller/RESET*%
X44921000Y-40017000D03*
%TO.P,J1,6,Pin_6*%
%TO.N,GND*%
X47461000Y-40017000D03*
%TD*%
D14*
%TO.P,J3,4*%
%TO.N,N/C*%
X100657000Y-76173200D03*
%TO.P,J3,5*%
X100657000Y-81713200D03*
%TD*%
%TO.P,J4,4*%
%TO.N,N/C*%
X100690000Y-22884000D03*
%TO.P,J4,5*%
X100690000Y-28424000D03*
%TD*%
D12*
%TO.P,J2,1,Pin_1*%
%TO.N,+BATT*%
X17013000Y-36327000D03*
D13*
%TO.P,J2,2,Pin_2*%
%TO.N,+5V*%
X19553000Y-36327000D03*
%TO.P,J2,3,Pin_3*%
%TO.N,+3V3*%
X17013000Y-38867000D03*
%TO.P,J2,4,Pin_4*%
%TO.N,/SDA*%
X19553000Y-38867000D03*
%TO.P,J2,5,Pin_5*%
%TO.N,/SCL*%
X17013000Y-41407000D03*
%TO.P,J2,6,Pin_6*%
%TO.N,/TX0*%
X19553000Y-41407000D03*
%TO.P,J2,7,Pin_7*%
%TO.N,/RX0*%
X17013000Y-43947000D03*
%TO.P,J2,8,Pin_8*%
%TO.N,/OPT1*%
X19553000Y-43947000D03*
%TO.P,J2,9,Pin_9*%
%TO.N,/OPT2*%
X17013000Y-46487000D03*
%TO.P,J2,10,Pin_10*%
%TO.N,/OPT3*%
X19553000Y-46487000D03*
%TO.P,J2,11,Pin_11*%
%TO.N,GND*%
X17013000Y-49027000D03*
%TO.P,J2,12,Pin_12*%
%TO.N,/OPT4*%
X19553000Y-49027000D03*
%TO.P,J2,13,Pin_13*%
%TO.N,/OPT5*%
X17013000Y-51567000D03*
%TO.P,J2,14,Pin_14*%
%TO.N,/IGNITION*%
X19553000Y-51567000D03*
%TO.P,J2,15,Pin_15*%
%TO.N,/ID3*%
X17013000Y-54107000D03*
%TO.P,J2,16,Pin_16*%
%TO.N,/Relay_2*%
X19553000Y-54107000D03*
%TO.P,J2,17,Pin_17*%
%TO.N,/Relay_1*%
X17013000Y-56647000D03*
%TO.P,J2,18,Pin_18*%
%TO.N,/ID2*%
X19553000Y-56647000D03*
%TO.P,J2,19,Pin_19*%
%TO.N,/ID1*%
X17013000Y-59187000D03*
%TO.P,J2,20,Pin_20*%
%TO.N,GND*%
X19553000Y-59187000D03*
%TD*%
D15*
%TO.N,GND*%
X100380800Y-72593200D03*
%TO.N,/microcontroller/RESET*%
X42418000Y-49530000D03*
X40581700Y-56583700D03*
X33528000Y-39624000D03*
X40640000Y-59944000D03*
%TO.N,GND*%
X64465200Y-65938400D03*
X56642000Y-37084000D03*
X61468000Y-16256000D03*
X67310000Y-61214000D03*
X64211200Y-74320400D03*
X31496000Y-56896000D03*
X89154000Y-28956000D03*
X86868000Y-81026000D03*
X36830000Y-45720000D03*
X65024000Y-54660800D03*
X76911200Y-70612000D03*
X44958000Y-82042000D03*
X71120000Y-88392000D03*
X58166000Y-56642000D03*
X43942000Y-45466000D03*
X53848000Y-54356000D03*
X37592000Y-37592000D03*
X41148000Y-73406000D03*
X57505600Y-67310000D03*
X79248000Y-19304000D03*
X32004000Y-68834000D03*
X23368000Y-77470000D03*
%TO.N,+3V3*%
X44450000Y-19304000D03*
X67310000Y-67056000D03*
X68072000Y-55372000D03*
X95504000Y-20066000D03*
X53848000Y-56388000D03*
X31242000Y-55372000D03*
X70104000Y-28956000D03*
X62733701Y-34802299D03*
X46820500Y-44450000D03*
X82804000Y-82296000D03*
X88544400Y-69443600D03*
X37084000Y-44450000D03*
X33782000Y-76962000D03*
X33528000Y-80518000D03*
X32004000Y-67310000D03*
X53594000Y-71882000D03*
X37084000Y-70612000D03*
%TO.N,+5V*%
X23622000Y-85090000D03*
%TO.N,/MMC_INT*%
X48514000Y-42418000D03*
X50546000Y-37338000D03*
X36576000Y-50800000D03*
X43434000Y-42672000D03*
%TO.N,/BMP_INT*%
X48260000Y-43688000D03*
X37524211Y-51116070D03*
X42926000Y-43688000D03*
X51016500Y-41656000D03*
%TO.N,/MPU_INT*%
X66040000Y-71374000D03*
X36576000Y-55372000D03*
%TO.N,/SD_CS*%
X24384000Y-66294000D03*
X30480000Y-60452000D03*
%TO.N,/SCK*%
X72644000Y-17780000D03*
X31499949Y-60947452D03*
X26416000Y-77470000D03*
%TO.N,/MOSI*%
X73914000Y-20828000D03*
%TO.N,/MISO*%
X26924000Y-75184000D03*
X73914000Y-19050000D03*
X40132000Y-51308000D03*
X32512000Y-60960000D03*
X38100000Y-56388000D03*
%TO.N,/Buzzer*%
X53086000Y-77470000D03*
X36571701Y-61472299D03*
%TO.N,/OPT1*%
X36851500Y-65278000D03*
X33020000Y-62992000D03*
%TO.N,/SCL*%
X59690000Y-33528000D03*
X61976000Y-59944000D03*
X54102000Y-29718000D03*
%TO.N,/SDA*%
X54102000Y-28702000D03*
X59436000Y-63500000D03*
X63755500Y-59688500D03*
X61468000Y-32512000D03*
%TO.N,/RX1*%
X70612000Y-81280000D03*
X48260000Y-66548000D03*
%TO.N,/TX1*%
X69088000Y-83820000D03*
X48260000Y-65532000D03*
%TO.N,/ID3*%
X46009155Y-54356000D03*
X23622000Y-54356000D03*
%TO.N,/IGNITION*%
X23368000Y-53340000D03*
X46733655Y-53352333D03*
%TO.N,/ID1*%
X44196000Y-55372000D03*
%TO.N,/ID2*%
X45166258Y-54893150D03*
%TO.N,/Relay_1*%
X46920364Y-52370424D03*
%TO.N,/Relay_2*%
X47752000Y-51816000D03*
%TO.N,/LoRa_CS*%
X74930000Y-24892000D03*
X49022000Y-46228000D03*
%TO.N,/LoRa_RESET*%
X47947542Y-46068375D03*
X70866000Y-26416000D03*
%TD*%
D16*
%TO.N,/microcontroller/RESET*%
X44921000Y-40017000D02*
X33921000Y-40017000D01*
X42418000Y-49530000D02*
X44921000Y-47027000D01*
X40581700Y-56583700D02*
X40640000Y-56642000D01*
X33921000Y-40017000D02*
X33528000Y-39624000D01*
X40640000Y-56642000D02*
X40640000Y-59944000D01*
X44921000Y-47027000D02*
X44921000Y-40017000D01*
%TO.N,/MMC_INT*%
X50038000Y-40894000D02*
X50038000Y-37592000D01*
X40640000Y-43434000D02*
X41402000Y-42672000D01*
X36576000Y-50800000D02*
X36576000Y-47498000D01*
X48514000Y-42418000D02*
X50038000Y-40894000D01*
X50292000Y-37338000D02*
X50546000Y-37338000D01*
X36576000Y-47498000D02*
X40640000Y-43434000D01*
X41402000Y-42672000D02*
X43434000Y-42672000D01*
X50038000Y-37592000D02*
X50292000Y-37338000D01*
%TO.N,/BMP_INT*%
X37524211Y-51116070D02*
X37524211Y-49089789D01*
X37524211Y-49089789D02*
X42926000Y-43688000D01*
X48260000Y-43688000D02*
X48984500Y-43688000D01*
X48984500Y-43688000D02*
X51016500Y-41656000D01*
%TO.N,/MPU_INT*%
X45594396Y-57150000D02*
X42926000Y-57150000D01*
X39624000Y-55372000D02*
X36576000Y-55372000D01*
X59818396Y-71374000D02*
X45594396Y-57150000D01*
X41148000Y-55372000D02*
X39624000Y-55372000D01*
X66040000Y-71374000D02*
X59818396Y-71374000D01*
X42926000Y-57150000D02*
X41148000Y-55372000D01*
%TO.N,/SD_CS*%
X30480000Y-60452000D02*
X24638000Y-66294000D01*
X24638000Y-66294000D02*
X24384000Y-66294000D01*
%TO.N,/SCK*%
X67564000Y-17780000D02*
X54102000Y-31242000D01*
X45533604Y-30792000D02*
X43180000Y-33145604D01*
X24638000Y-67564000D02*
X24638000Y-75692000D01*
X24638000Y-75692000D02*
X26416000Y-77470000D01*
X31499949Y-60947452D02*
X31254548Y-60947452D01*
X44020000Y-36576000D02*
X44921000Y-37477000D01*
X43180000Y-36576000D02*
X44020000Y-36576000D01*
X31254548Y-60947452D02*
X24638000Y-67564000D01*
X72644000Y-17780000D02*
X67564000Y-17780000D01*
X53652000Y-30792000D02*
X45533604Y-30792000D01*
X43180000Y-33145604D02*
X43180000Y-36576000D01*
X54102000Y-31242000D02*
X53652000Y-30792000D01*
%TO.N,/MOSI*%
X73914000Y-20828000D02*
X66040000Y-20828000D01*
X54610000Y-32258000D02*
X52680000Y-32258000D01*
X66040000Y-20828000D02*
X54610000Y-32258000D01*
X52680000Y-32258000D02*
X47461000Y-37477000D01*
%TO.N,/MISO*%
X42289604Y-51308000D02*
X42402180Y-51195424D01*
X49530000Y-31750000D02*
X49022000Y-31242000D01*
X45720000Y-31242000D02*
X44921000Y-32041000D01*
X26924000Y-66548000D02*
X26924000Y-75184000D01*
X44921000Y-32041000D02*
X44921000Y-34937000D01*
X73914000Y-19050000D02*
X67056000Y-19050000D01*
X67056000Y-19050000D02*
X54356000Y-31750000D01*
X42402180Y-51195424D02*
X45832576Y-51195424D01*
X40132000Y-51308000D02*
X42289604Y-51308000D01*
X45832576Y-51195424D02*
X46096000Y-50932000D01*
X32512000Y-60960000D02*
X26924000Y-66548000D01*
X32512000Y-60960000D02*
X37084000Y-56388000D01*
X37084000Y-56388000D02*
X38100000Y-56388000D01*
X49022000Y-31242000D02*
X45720000Y-31242000D01*
X46096000Y-36112000D02*
X44921000Y-34937000D01*
X46096000Y-50932000D02*
X46096000Y-36112000D01*
X54356000Y-31750000D02*
X49530000Y-31750000D01*
%TO.N,/Buzzer*%
X36571701Y-61472299D02*
X52569402Y-77470000D01*
X52569402Y-77470000D02*
X53086000Y-77470000D01*
%TO.N,/OPT1*%
X34036000Y-65278000D02*
X33020000Y-64262000D01*
X36851500Y-65278000D02*
X34036000Y-65278000D01*
X33020000Y-64262000D02*
X33020000Y-62992000D01*
%TO.N,/SCL*%
X30363701Y-29718000D02*
X19949701Y-40132000D01*
X54102000Y-29718000D02*
X30363701Y-29718000D01*
X61976000Y-59944000D02*
X61976000Y-35814000D01*
X19949701Y-40132000D02*
X18288000Y-40132000D01*
X18288000Y-40132000D02*
X17013000Y-41407000D01*
X61976000Y-35814000D02*
X59690000Y-33528000D01*
%TO.N,/SDA*%
X63755500Y-34799500D02*
X61468000Y-32512000D01*
X54102000Y-28702000D02*
X29718000Y-28702000D01*
X29718000Y-28702000D02*
X19553000Y-38867000D01*
X63755500Y-59688500D02*
X59944000Y-63500000D01*
X63755500Y-59688500D02*
X63755500Y-34799500D01*
X59944000Y-63500000D02*
X59436000Y-63500000D01*
%TO.N,/RX1*%
X56896000Y-77724000D02*
X66040000Y-77724000D01*
X54356000Y-67564000D02*
X54864000Y-68072000D01*
X54864000Y-75692000D02*
X56896000Y-77724000D01*
X68072000Y-79756000D02*
X68072000Y-84836000D01*
X53340000Y-66548000D02*
X54356000Y-67564000D01*
X66040000Y-77724000D02*
X68072000Y-79756000D01*
X70104000Y-84836000D02*
X71120000Y-83820000D01*
X71120000Y-83820000D02*
X71120000Y-81788000D01*
X71120000Y-81788000D02*
X70612000Y-81280000D01*
X54864000Y-70104000D02*
X54864000Y-75692000D01*
X54864000Y-68072000D02*
X54864000Y-70104000D01*
X48260000Y-66548000D02*
X53340000Y-66548000D01*
X68072000Y-84836000D02*
X70104000Y-84836000D01*
%TO.N,/TX1*%
X53340000Y-65532000D02*
X55372000Y-67564000D01*
X55372000Y-67564000D02*
X55372000Y-75184000D01*
X55372000Y-75184000D02*
X57404000Y-77216000D01*
X66548000Y-77216000D02*
X69088000Y-79756000D01*
X48260000Y-65532000D02*
X53340000Y-65532000D01*
X57404000Y-77216000D02*
X66548000Y-77216000D01*
X69088000Y-79756000D02*
X69088000Y-83820000D01*
%TO.N,/ID3*%
X46009155Y-54356000D02*
X45073155Y-53420000D01*
X39878000Y-53420000D02*
X24558000Y-53420000D01*
X45073155Y-53420000D02*
X39878000Y-53420000D01*
X24558000Y-53420000D02*
X23622000Y-54356000D01*
%TO.N,/IGNITION*%
X46733655Y-53209020D02*
X46195364Y-52670729D01*
X46733655Y-53352333D02*
X46733655Y-53209020D01*
X23738000Y-52970000D02*
X23368000Y-53340000D01*
X42788000Y-52970000D02*
X39878000Y-52970000D01*
X46195364Y-52670729D02*
X46102635Y-52578000D01*
X46102635Y-52578000D02*
X43180000Y-52578000D01*
X39878000Y-52970000D02*
X23738000Y-52970000D01*
X43180000Y-52578000D02*
X42788000Y-52970000D01*
%TO.N,/ID1*%
X25283701Y-54356000D02*
X21627701Y-58012000D01*
X43180000Y-54356000D02*
X25283701Y-54356000D01*
X21627701Y-58012000D02*
X18188000Y-58012000D01*
X44196000Y-55372000D02*
X43180000Y-54356000D01*
X18188000Y-58012000D02*
X17013000Y-59187000D01*
%TO.N,/ID2*%
X25133305Y-53870000D02*
X23631305Y-55372000D01*
X45166258Y-54310258D02*
X44726000Y-53870000D01*
X45166258Y-54893150D02*
X45166258Y-54310258D01*
X23631305Y-55372000D02*
X20828000Y-55372000D01*
X20828000Y-55372000D02*
X19553000Y-56647000D01*
X44726000Y-53870000D02*
X25133305Y-53870000D01*
%TO.N,/Relay_1*%
X42926000Y-52095424D02*
X42501424Y-52520000D01*
X46920364Y-52370424D02*
X46645364Y-52095424D01*
X18188000Y-55472000D02*
X17013000Y-56647000D01*
X22801701Y-52520000D02*
X19849701Y-55472000D01*
X46645364Y-52095424D02*
X42926000Y-52095424D01*
X19849701Y-55472000D02*
X18188000Y-55472000D01*
X42501424Y-52520000D02*
X22801701Y-52520000D01*
%TO.N,/Relay_2*%
X42588576Y-51645424D02*
X42164000Y-52070000D01*
X47581424Y-51645424D02*
X42588576Y-51645424D01*
X47752000Y-51816000D02*
X47581424Y-51645424D01*
X42164000Y-52070000D02*
X21590000Y-52070000D01*
X21590000Y-52070000D02*
X19553000Y-54107000D01*
%TO.N,/LoRa_CS*%
X49022000Y-46228000D02*
X52578000Y-42672000D01*
X55880000Y-33528000D02*
X61976000Y-27432000D01*
X72390000Y-27432000D02*
X74930000Y-24892000D01*
X52832000Y-33528000D02*
X55880000Y-33528000D01*
X52578000Y-33782000D02*
X52832000Y-33528000D01*
X61976000Y-27432000D02*
X72390000Y-27432000D01*
X52578000Y-42672000D02*
X52578000Y-33782000D01*
%TO.N,/LoRa_RESET*%
X51816000Y-33782000D02*
X52832000Y-32766000D01*
X47947542Y-46068375D02*
X51816000Y-42199917D01*
X55626000Y-32766000D02*
X60960000Y-27432000D01*
X60960000Y-26670000D02*
X61214000Y-26416000D01*
X51816000Y-42199917D02*
X51816000Y-33782000D01*
X60960000Y-27432000D02*
X60960000Y-26670000D01*
X52832000Y-32766000D02*
X55626000Y-32766000D01*
X61214000Y-26416000D02*
X70866000Y-26416000D01*
%TD*%
M02*
