M48
; DRILL file {KiCad 6.0.9-8da3e8f707~116~ubuntu22.04.1} date Sun 17 Sep 2023 03:54:20 PM EDT
; FORMAT={-:-/ absolute / metric / decimal}
; #@! TF.CreationDate,2023-09-17T15:54:20-04:00
; #@! TF.GenerationSoftware,Kicad,Pcbnew,6.0.9-8da3e8f707~116~ubuntu22.04.1
; #@! TF.FileFunction,Plated,1,4,PTH
FMAT,2
METRIC
; #@! TA.AperFunction,Plated,PTH,ViaDrill
T1C0.400
; #@! TA.AperFunction,Plated,PTH,ComponentDrill
T2C1.000
%
G90
G05
T1
X23.368Y-53.34
X23.368Y-77.47
X23.622Y-54.356
X23.622Y-85.09
X24.384Y-66.294
X26.416Y-77.47
X26.924Y-75.184
X30.48Y-60.452
X31.242Y-55.372
X31.496Y-56.896
X31.5Y-60.947
X32.004Y-67.31
X32.004Y-68.834
X32.512Y-60.96
X33.02Y-62.992
X33.528Y-39.624
X33.528Y-80.518
X33.782Y-76.962
X36.572Y-61.472
X36.576Y-50.8
X36.576Y-55.372
X36.83Y-45.72
X36.852Y-65.278
X37.084Y-44.45
X37.084Y-70.612
X37.524Y-51.116
X37.592Y-37.592
X38.1Y-56.388
X40.132Y-51.308
X40.582Y-56.584
X40.64Y-59.944
X41.148Y-73.406
X42.418Y-49.53
X42.926Y-43.688
X43.434Y-42.672
X43.942Y-45.466
X44.196Y-55.372
X44.45Y-19.304
X44.958Y-82.042
X45.166Y-54.893
X46.009Y-54.356
X46.734Y-53.352
X46.82Y-44.45
X46.92Y-52.37
X47.752Y-51.816
X47.948Y-46.068
X48.26Y-43.688
X48.26Y-65.532
X48.26Y-66.548
X48.514Y-42.418
X49.022Y-46.228
X50.546Y-37.338
X51.017Y-41.656
X53.086Y-77.47
X53.594Y-71.882
X53.848Y-54.356
X53.848Y-56.388
X54.102Y-28.702
X54.102Y-29.718
X56.642Y-37.084
X57.506Y-67.31
X58.166Y-56.642
X59.436Y-63.5
X59.69Y-33.528
X61.468Y-16.256
X61.468Y-32.512
X61.976Y-59.944
X62.734Y-34.802
X63.755Y-59.688
X64.211Y-74.32
X64.465Y-65.938
X65.024Y-54.661
X66.04Y-71.374
X67.31Y-61.214
X67.31Y-67.056
X68.072Y-55.372
X69.088Y-83.82
X70.104Y-28.956
X70.612Y-81.28
X70.866Y-26.416
X71.12Y-88.392
X72.644Y-17.78
X73.914Y-19.05
X73.914Y-20.828
X74.93Y-24.892
X76.911Y-70.612
X79.248Y-19.304
X82.804Y-82.296
X86.868Y-81.026
X88.544Y-69.444
X89.154Y-28.956
X95.504Y-20.066
X100.381Y-72.593
T2
X17.013Y-36.327
X17.013Y-38.867
X17.013Y-41.407
X17.013Y-43.947
X17.013Y-46.487
X17.013Y-49.027
X17.013Y-51.567
X17.013Y-54.107
X17.013Y-56.647
X17.013Y-59.187
X19.553Y-36.327
X19.553Y-38.867
X19.553Y-41.407
X19.553Y-43.947
X19.553Y-46.487
X19.553Y-49.027
X19.553Y-51.567
X19.553Y-54.107
X19.553Y-56.647
X19.553Y-59.187
X25.265Y-20.015
X25.265Y-22.515
X44.921Y-34.937
X44.921Y-37.477
X44.921Y-40.017
X47.461Y-34.937
X47.461Y-37.477
X47.461Y-40.017
T0
M30
