%TF.GenerationSoftware,KiCad,Pcbnew,6.0.9-8da3e8f707~116~ubuntu22.04.1*%
%TF.CreationDate,2023-09-17T15:54:21-04:00*%
%TF.ProjectId,Recovery_DoubleStage,5265636f-7665-4727-995f-446f75626c65,rev?*%
%TF.SameCoordinates,Original*%
%TF.FileFunction,Drillmap*%
%TF.FilePolarity,Positive*%
%FSLAX45Y45*%
G04 Gerber Fmt 4.5, Leading zero omitted, Abs format (unit mm)*
G04 Created by KiCad (PCBNEW 6.0.9-8da3e8f707~116~ubuntu22.04.1) date 2023-09-17 15:54:21*
%MOMM*%
%LPD*%
G01*
G04 APERTURE LIST*
%ADD10C,0.100000*%
%ADD11C,0.200000*%
%ADD12C,0.040000*%
G04 APERTURE END LIST*
D10*
X1244600Y-8991600D02*
X11303000Y-8991600D01*
X11303000Y-8991600D02*
X11303000Y-1320800D01*
X11303000Y-1320800D02*
X1244600Y-1320800D01*
X1244600Y-1320800D02*
X1244600Y-8991600D01*
D11*
D12*
X2316800Y-5314000D02*
X2356800Y-5354000D01*
X2356800Y-5314000D02*
X2316800Y-5354000D01*
X2316800Y-7727000D02*
X2356800Y-7767000D01*
X2356800Y-7727000D02*
X2316800Y-7767000D01*
X2342200Y-5415600D02*
X2382200Y-5455600D01*
X2382200Y-5415600D02*
X2342200Y-5455600D01*
X2342200Y-8489000D02*
X2382200Y-8529000D01*
X2382200Y-8489000D02*
X2342200Y-8529000D01*
X2418400Y-6609400D02*
X2458400Y-6649400D01*
X2458400Y-6609400D02*
X2418400Y-6649400D01*
X2621600Y-7727000D02*
X2661600Y-7767000D01*
X2661600Y-7727000D02*
X2621600Y-7767000D01*
X2672400Y-7498400D02*
X2712400Y-7538400D01*
X2712400Y-7498400D02*
X2672400Y-7538400D01*
X3028000Y-6025200D02*
X3068000Y-6065200D01*
X3068000Y-6025200D02*
X3028000Y-6065200D01*
X3104200Y-5517200D02*
X3144200Y-5557200D01*
X3144200Y-5517200D02*
X3104200Y-5557200D01*
X3129600Y-5669600D02*
X3169600Y-5709600D01*
X3169600Y-5669600D02*
X3129600Y-5709600D01*
X3129995Y-6074745D02*
X3169995Y-6114745D01*
X3169995Y-6074745D02*
X3129995Y-6114745D01*
X3180400Y-6711000D02*
X3220400Y-6751000D01*
X3220400Y-6711000D02*
X3180400Y-6751000D01*
X3180400Y-6863400D02*
X3220400Y-6903400D01*
X3220400Y-6863400D02*
X3180400Y-6903400D01*
X3231200Y-6076000D02*
X3271200Y-6116000D01*
X3271200Y-6076000D02*
X3231200Y-6116000D01*
X3282000Y-6279200D02*
X3322000Y-6319200D01*
X3322000Y-6279200D02*
X3282000Y-6319200D01*
X3332800Y-3942400D02*
X3372800Y-3982400D01*
X3372800Y-3942400D02*
X3332800Y-3982400D01*
X3332800Y-8031800D02*
X3372800Y-8071800D01*
X3372800Y-8031800D02*
X3332800Y-8071800D01*
X3358200Y-7676200D02*
X3398200Y-7716200D01*
X3398200Y-7676200D02*
X3358200Y-7716200D01*
X3637170Y-6127230D02*
X3677170Y-6167230D01*
X3677170Y-6127230D02*
X3637170Y-6167230D01*
X3637600Y-5060000D02*
X3677600Y-5100000D01*
X3677600Y-5060000D02*
X3637600Y-5100000D01*
X3637600Y-5517200D02*
X3677600Y-5557200D01*
X3677600Y-5517200D02*
X3637600Y-5557200D01*
X3663000Y-4552000D02*
X3703000Y-4592000D01*
X3703000Y-4552000D02*
X3663000Y-4592000D01*
X3665150Y-6507800D02*
X3705150Y-6547800D01*
X3705150Y-6507800D02*
X3665150Y-6547800D01*
X3688400Y-4425000D02*
X3728400Y-4465000D01*
X3728400Y-4425000D02*
X3688400Y-4465000D01*
X3688400Y-7041200D02*
X3728400Y-7081200D01*
X3728400Y-7041200D02*
X3688400Y-7081200D01*
X3732421Y-5091607D02*
X3772421Y-5131607D01*
X3772421Y-5091607D02*
X3732421Y-5131607D01*
X3739200Y-3739200D02*
X3779200Y-3779200D01*
X3779200Y-3739200D02*
X3739200Y-3779200D01*
X3790000Y-5618800D02*
X3830000Y-5658800D01*
X3830000Y-5618800D02*
X3790000Y-5658800D01*
X3993200Y-5110800D02*
X4033200Y-5150800D01*
X4033200Y-5110800D02*
X3993200Y-5150800D01*
X4038170Y-5638370D02*
X4078170Y-5678370D01*
X4078170Y-5638370D02*
X4038170Y-5678370D01*
X4044000Y-5974400D02*
X4084000Y-6014400D01*
X4084000Y-5974400D02*
X4044000Y-6014400D01*
X4094800Y-7320600D02*
X4134800Y-7360600D01*
X4134800Y-7320600D02*
X4094800Y-7360600D01*
X4221800Y-4933000D02*
X4261800Y-4973000D01*
X4261800Y-4933000D02*
X4221800Y-4973000D01*
X4272600Y-4348800D02*
X4312600Y-4388800D01*
X4312600Y-4348800D02*
X4272600Y-4388800D01*
X4323400Y-4247200D02*
X4363400Y-4287200D01*
X4363400Y-4247200D02*
X4323400Y-4287200D01*
X4374200Y-4526600D02*
X4414200Y-4566600D01*
X4414200Y-4526600D02*
X4374200Y-4566600D01*
X4399600Y-5517200D02*
X4439600Y-5557200D01*
X4439600Y-5517200D02*
X4399600Y-5557200D01*
X4425000Y-1910400D02*
X4465000Y-1950400D01*
X4465000Y-1910400D02*
X4425000Y-1950400D01*
X4475800Y-8184200D02*
X4515800Y-8224200D01*
X4515800Y-8184200D02*
X4475800Y-8224200D01*
X4496626Y-5469315D02*
X4536626Y-5509315D01*
X4536626Y-5469315D02*
X4496626Y-5509315D01*
X4580916Y-5415600D02*
X4620916Y-5455600D01*
X4620916Y-5415600D02*
X4580916Y-5455600D01*
X4653366Y-5315233D02*
X4693366Y-5355233D01*
X4693366Y-5315233D02*
X4653366Y-5355233D01*
X4662050Y-4425000D02*
X4702050Y-4465000D01*
X4702050Y-4425000D02*
X4662050Y-4465000D01*
X4672036Y-5217042D02*
X4712036Y-5257042D01*
X4712036Y-5217042D02*
X4672036Y-5257042D01*
X4755200Y-5161600D02*
X4795200Y-5201600D01*
X4795200Y-5161600D02*
X4755200Y-5201600D01*
X4774754Y-4586838D02*
X4814754Y-4626838D01*
X4814754Y-4586838D02*
X4774754Y-4626838D01*
X4806000Y-4348800D02*
X4846000Y-4388800D01*
X4846000Y-4348800D02*
X4806000Y-4388800D01*
X4806000Y-6533200D02*
X4846000Y-6573200D01*
X4846000Y-6533200D02*
X4806000Y-6573200D01*
X4806000Y-6634800D02*
X4846000Y-6674800D01*
X4846000Y-6634800D02*
X4806000Y-6674800D01*
X4831400Y-4221800D02*
X4871400Y-4261800D01*
X4871400Y-4221800D02*
X4831400Y-4261800D01*
X4882200Y-4602800D02*
X4922200Y-4642800D01*
X4922200Y-4602800D02*
X4882200Y-4642800D01*
X5034600Y-3713800D02*
X5074600Y-3753800D01*
X5074600Y-3713800D02*
X5034600Y-3753800D01*
X5081650Y-4145600D02*
X5121650Y-4185600D01*
X5121650Y-4145600D02*
X5081650Y-4185600D01*
X5288600Y-7727000D02*
X5328600Y-7767000D01*
X5328600Y-7727000D02*
X5288600Y-7767000D01*
X5339400Y-7168200D02*
X5379400Y-7208200D01*
X5379400Y-7168200D02*
X5339400Y-7208200D01*
X5364800Y-5415600D02*
X5404800Y-5455600D01*
X5404800Y-5415600D02*
X5364800Y-5455600D01*
X5364800Y-5618800D02*
X5404800Y-5658800D01*
X5404800Y-5618800D02*
X5364800Y-5658800D01*
X5390200Y-2850200D02*
X5430200Y-2890200D01*
X5430200Y-2850200D02*
X5390200Y-2890200D01*
X5390200Y-2951800D02*
X5430200Y-2991800D01*
X5430200Y-2951800D02*
X5390200Y-2991800D01*
X5644200Y-3688400D02*
X5684200Y-3728400D01*
X5684200Y-3688400D02*
X5644200Y-3728400D01*
X5730560Y-6711000D02*
X5770560Y-6751000D01*
X5770560Y-6711000D02*
X5730560Y-6751000D01*
X5796600Y-5644200D02*
X5836600Y-5684200D01*
X5836600Y-5644200D02*
X5796600Y-5684200D01*
X5923600Y-6330000D02*
X5963600Y-6370000D01*
X5963600Y-6330000D02*
X5923600Y-6370000D01*
X5949000Y-3332800D02*
X5989000Y-3372800D01*
X5989000Y-3332800D02*
X5949000Y-3372800D01*
X6126800Y-1605600D02*
X6166800Y-1645600D01*
X6166800Y-1605600D02*
X6126800Y-1645600D01*
X6126800Y-3231200D02*
X6166800Y-3271200D01*
X6166800Y-3231200D02*
X6126800Y-3271200D01*
X6177600Y-5974400D02*
X6217600Y-6014400D01*
X6217600Y-5974400D02*
X6177600Y-6014400D01*
X6253370Y-3460230D02*
X6293370Y-3500230D01*
X6293370Y-3460230D02*
X6253370Y-3500230D01*
X6355550Y-5948850D02*
X6395550Y-5988850D01*
X6395550Y-5948850D02*
X6355550Y-5988850D01*
X6401120Y-7412040D02*
X6441120Y-7452040D01*
X6441120Y-7412040D02*
X6401120Y-7452040D01*
X6426520Y-6573840D02*
X6466520Y-6613840D01*
X6466520Y-6573840D02*
X6426520Y-6613840D01*
X6482400Y-5446080D02*
X6522400Y-5486080D01*
X6522400Y-5446080D02*
X6482400Y-5486080D01*
X6584000Y-7117400D02*
X6624000Y-7157400D01*
X6624000Y-7117400D02*
X6584000Y-7157400D01*
X6711000Y-6101400D02*
X6751000Y-6141400D01*
X6751000Y-6101400D02*
X6711000Y-6141400D01*
X6711000Y-6685600D02*
X6751000Y-6725600D01*
X6751000Y-6685600D02*
X6711000Y-6725600D01*
X6787200Y-5517200D02*
X6827200Y-5557200D01*
X6827200Y-5517200D02*
X6787200Y-5557200D01*
X6888800Y-8362000D02*
X6928800Y-8402000D01*
X6928800Y-8362000D02*
X6888800Y-8402000D01*
X6990400Y-2875600D02*
X7030400Y-2915600D01*
X7030400Y-2875600D02*
X6990400Y-2915600D01*
X7041200Y-8108000D02*
X7081200Y-8148000D01*
X7081200Y-8108000D02*
X7041200Y-8148000D01*
X7066600Y-2621600D02*
X7106600Y-2661600D01*
X7106600Y-2621600D02*
X7066600Y-2661600D01*
X7092000Y-8819200D02*
X7132000Y-8859200D01*
X7132000Y-8819200D02*
X7092000Y-8859200D01*
X7244400Y-1758000D02*
X7284400Y-1798000D01*
X7284400Y-1758000D02*
X7244400Y-1798000D01*
X7371400Y-1885000D02*
X7411400Y-1925000D01*
X7411400Y-1885000D02*
X7371400Y-1925000D01*
X7371400Y-2062800D02*
X7411400Y-2102800D01*
X7411400Y-2062800D02*
X7371400Y-2102800D01*
X7473000Y-2469200D02*
X7513000Y-2509200D01*
X7513000Y-2469200D02*
X7473000Y-2509200D01*
X7671120Y-7041200D02*
X7711120Y-7081200D01*
X7711120Y-7041200D02*
X7671120Y-7081200D01*
X7904800Y-1910400D02*
X7944800Y-1950400D01*
X7944800Y-1910400D02*
X7904800Y-1950400D01*
X8260400Y-8209600D02*
X8300400Y-8249600D01*
X8300400Y-8209600D02*
X8260400Y-8249600D01*
X8666800Y-8082600D02*
X8706800Y-8122600D01*
X8706800Y-8082600D02*
X8666800Y-8122600D01*
X8834440Y-6924360D02*
X8874440Y-6964360D01*
X8874440Y-6924360D02*
X8834440Y-6964360D01*
X8895400Y-2875600D02*
X8935400Y-2915600D01*
X8935400Y-2875600D02*
X8895400Y-2915600D01*
X9530400Y-1986600D02*
X9570400Y-2026600D01*
X9570400Y-1986600D02*
X9530400Y-2026600D01*
X10018080Y-7239320D02*
X10058080Y-7279320D01*
X10058080Y-7239320D02*
X10018080Y-7279320D01*
D10*
X1751300Y-3632700D02*
G75*
G03*
X1751300Y-3632700I-50000J0D01*
G01*
X1751300Y-3886700D02*
G75*
G03*
X1751300Y-3886700I-50000J0D01*
G01*
X1751300Y-4140700D02*
G75*
G03*
X1751300Y-4140700I-50000J0D01*
G01*
X1751300Y-4394700D02*
G75*
G03*
X1751300Y-4394700I-50000J0D01*
G01*
X1751300Y-4648700D02*
G75*
G03*
X1751300Y-4648700I-50000J0D01*
G01*
X1751300Y-4902700D02*
G75*
G03*
X1751300Y-4902700I-50000J0D01*
G01*
X1751300Y-5156700D02*
G75*
G03*
X1751300Y-5156700I-50000J0D01*
G01*
X1751300Y-5410700D02*
G75*
G03*
X1751300Y-5410700I-50000J0D01*
G01*
X1751300Y-5664700D02*
G75*
G03*
X1751300Y-5664700I-50000J0D01*
G01*
X1751300Y-5918700D02*
G75*
G03*
X1751300Y-5918700I-50000J0D01*
G01*
X2005300Y-3632700D02*
G75*
G03*
X2005300Y-3632700I-50000J0D01*
G01*
X2005300Y-3886700D02*
G75*
G03*
X2005300Y-3886700I-50000J0D01*
G01*
X2005300Y-4140700D02*
G75*
G03*
X2005300Y-4140700I-50000J0D01*
G01*
X2005300Y-4394700D02*
G75*
G03*
X2005300Y-4394700I-50000J0D01*
G01*
X2005300Y-4648700D02*
G75*
G03*
X2005300Y-4648700I-50000J0D01*
G01*
X2005300Y-4902700D02*
G75*
G03*
X2005300Y-4902700I-50000J0D01*
G01*
X2005300Y-5156700D02*
G75*
G03*
X2005300Y-5156700I-50000J0D01*
G01*
X2005300Y-5410700D02*
G75*
G03*
X2005300Y-5410700I-50000J0D01*
G01*
X2005300Y-5664700D02*
G75*
G03*
X2005300Y-5664700I-50000J0D01*
G01*
X2005300Y-5918700D02*
G75*
G03*
X2005300Y-5918700I-50000J0D01*
G01*
X2576460Y-2001520D02*
G75*
G03*
X2576460Y-2001520I-50000J0D01*
G01*
X2576460Y-2251520D02*
G75*
G03*
X2576460Y-2251520I-50000J0D01*
G01*
X4542100Y-3493700D02*
G75*
G03*
X4542100Y-3493700I-50000J0D01*
G01*
X4542100Y-3747700D02*
G75*
G03*
X4542100Y-3747700I-50000J0D01*
G01*
X4542100Y-4001700D02*
G75*
G03*
X4542100Y-4001700I-50000J0D01*
G01*
X4796100Y-3493700D02*
G75*
G03*
X4796100Y-3493700I-50000J0D01*
G01*
X4796100Y-3747700D02*
G75*
G03*
X4796100Y-3747700I-50000J0D01*
G01*
X4796100Y-4001700D02*
G75*
G03*
X4796100Y-4001700I-50000J0D01*
G01*
D11*
X1497219Y-9307076D02*
X1497219Y-9107076D01*
X1544838Y-9107076D01*
X1573409Y-9116600D01*
X1592457Y-9135648D01*
X1601981Y-9154695D01*
X1611505Y-9192790D01*
X1611505Y-9221362D01*
X1601981Y-9259457D01*
X1592457Y-9278505D01*
X1573409Y-9297552D01*
X1544838Y-9307076D01*
X1497219Y-9307076D01*
X1697219Y-9307076D02*
X1697219Y-9173743D01*
X1697219Y-9211838D02*
X1706743Y-9192790D01*
X1716267Y-9183267D01*
X1735314Y-9173743D01*
X1754362Y-9173743D01*
X1821028Y-9307076D02*
X1821028Y-9173743D01*
X1821028Y-9107076D02*
X1811505Y-9116600D01*
X1821028Y-9126124D01*
X1830552Y-9116600D01*
X1821028Y-9107076D01*
X1821028Y-9126124D01*
X1944838Y-9307076D02*
X1925790Y-9297552D01*
X1916267Y-9278505D01*
X1916267Y-9107076D01*
X2049600Y-9307076D02*
X2030552Y-9297552D01*
X2021028Y-9278505D01*
X2021028Y-9107076D01*
X2278171Y-9307076D02*
X2278171Y-9107076D01*
X2344838Y-9249933D01*
X2411505Y-9107076D01*
X2411505Y-9307076D01*
X2592457Y-9307076D02*
X2592457Y-9202314D01*
X2582933Y-9183267D01*
X2563886Y-9173743D01*
X2525790Y-9173743D01*
X2506743Y-9183267D01*
X2592457Y-9297552D02*
X2573410Y-9307076D01*
X2525790Y-9307076D01*
X2506743Y-9297552D01*
X2497219Y-9278505D01*
X2497219Y-9259457D01*
X2506743Y-9240410D01*
X2525790Y-9230886D01*
X2573410Y-9230886D01*
X2592457Y-9221362D01*
X2687695Y-9173743D02*
X2687695Y-9373743D01*
X2687695Y-9183267D02*
X2706743Y-9173743D01*
X2744838Y-9173743D01*
X2763886Y-9183267D01*
X2773410Y-9192790D01*
X2782933Y-9211838D01*
X2782933Y-9268981D01*
X2773410Y-9288029D01*
X2763886Y-9297552D01*
X2744838Y-9307076D01*
X2706743Y-9307076D01*
X2687695Y-9297552D01*
X2868648Y-9288029D02*
X2878171Y-9297552D01*
X2868648Y-9307076D01*
X2859124Y-9297552D01*
X2868648Y-9288029D01*
X2868648Y-9307076D01*
X2868648Y-9183267D02*
X2878171Y-9192790D01*
X2868648Y-9202314D01*
X2859124Y-9192790D01*
X2868648Y-9183267D01*
X2868648Y-9202314D01*
D12*
X1199600Y-9616600D02*
X1239600Y-9656600D01*
X1239600Y-9616600D02*
X1199600Y-9656600D01*
D11*
X1535314Y-9527076D02*
X1554362Y-9527076D01*
X1573409Y-9536600D01*
X1582933Y-9546124D01*
X1592457Y-9565171D01*
X1601981Y-9603267D01*
X1601981Y-9650886D01*
X1592457Y-9688981D01*
X1582933Y-9708029D01*
X1573409Y-9717552D01*
X1554362Y-9727076D01*
X1535314Y-9727076D01*
X1516267Y-9717552D01*
X1506743Y-9708029D01*
X1497219Y-9688981D01*
X1487695Y-9650886D01*
X1487695Y-9603267D01*
X1497219Y-9565171D01*
X1506743Y-9546124D01*
X1516267Y-9536600D01*
X1535314Y-9527076D01*
X1687695Y-9708029D02*
X1697219Y-9717552D01*
X1687695Y-9727076D01*
X1678171Y-9717552D01*
X1687695Y-9708029D01*
X1687695Y-9727076D01*
X1868648Y-9593743D02*
X1868648Y-9727076D01*
X1821028Y-9517552D02*
X1773409Y-9660410D01*
X1897219Y-9660410D01*
X2011505Y-9527076D02*
X2030552Y-9527076D01*
X2049600Y-9536600D01*
X2059124Y-9546124D01*
X2068648Y-9565171D01*
X2078171Y-9603267D01*
X2078171Y-9650886D01*
X2068648Y-9688981D01*
X2059124Y-9708029D01*
X2049600Y-9717552D01*
X2030552Y-9727076D01*
X2011505Y-9727076D01*
X1992457Y-9717552D01*
X1982933Y-9708029D01*
X1973409Y-9688981D01*
X1963886Y-9650886D01*
X1963886Y-9603267D01*
X1973409Y-9565171D01*
X1982933Y-9546124D01*
X1992457Y-9536600D01*
X2011505Y-9527076D01*
X2201981Y-9527076D02*
X2221029Y-9527076D01*
X2240076Y-9536600D01*
X2249600Y-9546124D01*
X2259124Y-9565171D01*
X2268648Y-9603267D01*
X2268648Y-9650886D01*
X2259124Y-9688981D01*
X2249600Y-9708029D01*
X2240076Y-9717552D01*
X2221029Y-9727076D01*
X2201981Y-9727076D01*
X2182933Y-9717552D01*
X2173410Y-9708029D01*
X2163886Y-9688981D01*
X2154362Y-9650886D01*
X2154362Y-9603267D01*
X2163886Y-9565171D01*
X2173410Y-9546124D01*
X2182933Y-9536600D01*
X2201981Y-9527076D01*
X2354362Y-9727076D02*
X2354362Y-9593743D01*
X2354362Y-9612790D02*
X2363886Y-9603267D01*
X2382933Y-9593743D01*
X2411505Y-9593743D01*
X2430552Y-9603267D01*
X2440076Y-9622314D01*
X2440076Y-9727076D01*
X2440076Y-9622314D02*
X2449600Y-9603267D01*
X2468648Y-9593743D01*
X2497219Y-9593743D01*
X2516267Y-9603267D01*
X2525790Y-9622314D01*
X2525790Y-9727076D01*
X2621029Y-9727076D02*
X2621029Y-9593743D01*
X2621029Y-9612790D02*
X2630552Y-9603267D01*
X2649600Y-9593743D01*
X2678171Y-9593743D01*
X2697219Y-9603267D01*
X2706743Y-9622314D01*
X2706743Y-9727076D01*
X2706743Y-9622314D02*
X2716267Y-9603267D01*
X2735314Y-9593743D01*
X2763886Y-9593743D01*
X2782933Y-9603267D01*
X2792457Y-9622314D01*
X2792457Y-9727076D01*
X3182933Y-9517552D02*
X3011505Y-9774695D01*
X3440076Y-9527076D02*
X3459124Y-9527076D01*
X3478171Y-9536600D01*
X3487695Y-9546124D01*
X3497219Y-9565171D01*
X3506743Y-9603267D01*
X3506743Y-9650886D01*
X3497219Y-9688981D01*
X3487695Y-9708029D01*
X3478171Y-9717552D01*
X3459124Y-9727076D01*
X3440076Y-9727076D01*
X3421028Y-9717552D01*
X3411505Y-9708029D01*
X3401981Y-9688981D01*
X3392457Y-9650886D01*
X3392457Y-9603267D01*
X3401981Y-9565171D01*
X3411505Y-9546124D01*
X3421028Y-9536600D01*
X3440076Y-9527076D01*
X3592457Y-9708029D02*
X3601981Y-9717552D01*
X3592457Y-9727076D01*
X3582933Y-9717552D01*
X3592457Y-9708029D01*
X3592457Y-9727076D01*
X3725790Y-9527076D02*
X3744838Y-9527076D01*
X3763886Y-9536600D01*
X3773409Y-9546124D01*
X3782933Y-9565171D01*
X3792457Y-9603267D01*
X3792457Y-9650886D01*
X3782933Y-9688981D01*
X3773409Y-9708029D01*
X3763886Y-9717552D01*
X3744838Y-9727076D01*
X3725790Y-9727076D01*
X3706743Y-9717552D01*
X3697219Y-9708029D01*
X3687695Y-9688981D01*
X3678171Y-9650886D01*
X3678171Y-9603267D01*
X3687695Y-9565171D01*
X3697219Y-9546124D01*
X3706743Y-9536600D01*
X3725790Y-9527076D01*
X3982933Y-9727076D02*
X3868648Y-9727076D01*
X3925790Y-9727076D02*
X3925790Y-9527076D01*
X3906743Y-9555648D01*
X3887695Y-9574695D01*
X3868648Y-9584219D01*
X4163886Y-9527076D02*
X4068648Y-9527076D01*
X4059124Y-9622314D01*
X4068648Y-9612790D01*
X4087695Y-9603267D01*
X4135314Y-9603267D01*
X4154362Y-9612790D01*
X4163886Y-9622314D01*
X4173409Y-9641362D01*
X4173409Y-9688981D01*
X4163886Y-9708029D01*
X4154362Y-9717552D01*
X4135314Y-9727076D01*
X4087695Y-9727076D01*
X4068648Y-9717552D01*
X4059124Y-9708029D01*
X4240076Y-9527076D02*
X4373410Y-9527076D01*
X4287695Y-9727076D01*
X4440076Y-9527076D02*
X4440076Y-9565171D01*
X4516267Y-9527076D02*
X4516267Y-9565171D01*
X4811505Y-9803267D02*
X4801981Y-9793743D01*
X4782933Y-9765171D01*
X4773410Y-9746124D01*
X4763886Y-9717552D01*
X4754362Y-9669933D01*
X4754362Y-9631838D01*
X4763886Y-9584219D01*
X4773410Y-9555648D01*
X4782933Y-9536600D01*
X4801981Y-9508029D01*
X4811505Y-9498505D01*
X4897219Y-9727076D02*
X4935314Y-9727076D01*
X4954362Y-9717552D01*
X4963886Y-9708029D01*
X4982933Y-9679457D01*
X4992457Y-9641362D01*
X4992457Y-9565171D01*
X4982933Y-9546124D01*
X4973410Y-9536600D01*
X4954362Y-9527076D01*
X4916267Y-9527076D01*
X4897219Y-9536600D01*
X4887695Y-9546124D01*
X4878171Y-9565171D01*
X4878171Y-9612790D01*
X4887695Y-9631838D01*
X4897219Y-9641362D01*
X4916267Y-9650886D01*
X4954362Y-9650886D01*
X4973410Y-9641362D01*
X4982933Y-9631838D01*
X4992457Y-9612790D01*
X5059124Y-9527076D02*
X5182933Y-9527076D01*
X5116267Y-9603267D01*
X5144838Y-9603267D01*
X5163886Y-9612790D01*
X5173410Y-9622314D01*
X5182933Y-9641362D01*
X5182933Y-9688981D01*
X5173410Y-9708029D01*
X5163886Y-9717552D01*
X5144838Y-9727076D01*
X5087695Y-9727076D01*
X5068648Y-9717552D01*
X5059124Y-9708029D01*
X5421029Y-9727076D02*
X5421029Y-9527076D01*
X5506743Y-9727076D02*
X5506743Y-9622314D01*
X5497219Y-9603267D01*
X5478171Y-9593743D01*
X5449600Y-9593743D01*
X5430552Y-9603267D01*
X5421029Y-9612790D01*
X5630552Y-9727076D02*
X5611505Y-9717552D01*
X5601981Y-9708029D01*
X5592457Y-9688981D01*
X5592457Y-9631838D01*
X5601981Y-9612790D01*
X5611505Y-9603267D01*
X5630552Y-9593743D01*
X5659124Y-9593743D01*
X5678171Y-9603267D01*
X5687695Y-9612790D01*
X5697219Y-9631838D01*
X5697219Y-9688981D01*
X5687695Y-9708029D01*
X5678171Y-9717552D01*
X5659124Y-9727076D01*
X5630552Y-9727076D01*
X5811505Y-9727076D02*
X5792457Y-9717552D01*
X5782933Y-9698505D01*
X5782933Y-9527076D01*
X5963886Y-9717552D02*
X5944838Y-9727076D01*
X5906743Y-9727076D01*
X5887695Y-9717552D01*
X5878171Y-9698505D01*
X5878171Y-9622314D01*
X5887695Y-9603267D01*
X5906743Y-9593743D01*
X5944838Y-9593743D01*
X5963886Y-9603267D01*
X5973409Y-9622314D01*
X5973409Y-9641362D01*
X5878171Y-9660410D01*
X6049600Y-9717552D02*
X6068648Y-9727076D01*
X6106743Y-9727076D01*
X6125790Y-9717552D01*
X6135314Y-9698505D01*
X6135314Y-9688981D01*
X6125790Y-9669933D01*
X6106743Y-9660410D01*
X6078171Y-9660410D01*
X6059124Y-9650886D01*
X6049600Y-9631838D01*
X6049600Y-9622314D01*
X6059124Y-9603267D01*
X6078171Y-9593743D01*
X6106743Y-9593743D01*
X6125790Y-9603267D01*
X6201981Y-9803267D02*
X6211505Y-9793743D01*
X6230552Y-9765171D01*
X6240076Y-9746124D01*
X6249600Y-9717552D01*
X6259124Y-9669933D01*
X6259124Y-9631838D01*
X6249600Y-9584219D01*
X6240076Y-9555648D01*
X6230552Y-9536600D01*
X6211505Y-9508029D01*
X6201981Y-9498505D01*
D10*
X1239600Y-9900600D02*
G75*
G03*
X1239600Y-9900600I-50000J0D01*
G01*
D11*
X1601981Y-9991076D02*
X1487695Y-9991076D01*
X1544838Y-9991076D02*
X1544838Y-9791076D01*
X1525790Y-9819648D01*
X1506743Y-9838695D01*
X1487695Y-9848219D01*
X1687695Y-9972029D02*
X1697219Y-9981552D01*
X1687695Y-9991076D01*
X1678171Y-9981552D01*
X1687695Y-9972029D01*
X1687695Y-9991076D01*
X1821028Y-9791076D02*
X1840076Y-9791076D01*
X1859124Y-9800600D01*
X1868648Y-9810124D01*
X1878171Y-9829171D01*
X1887695Y-9867267D01*
X1887695Y-9914886D01*
X1878171Y-9952981D01*
X1868648Y-9972029D01*
X1859124Y-9981552D01*
X1840076Y-9991076D01*
X1821028Y-9991076D01*
X1801981Y-9981552D01*
X1792457Y-9972029D01*
X1782933Y-9952981D01*
X1773409Y-9914886D01*
X1773409Y-9867267D01*
X1782933Y-9829171D01*
X1792457Y-9810124D01*
X1801981Y-9800600D01*
X1821028Y-9791076D01*
X2011505Y-9791076D02*
X2030552Y-9791076D01*
X2049600Y-9800600D01*
X2059124Y-9810124D01*
X2068648Y-9829171D01*
X2078171Y-9867267D01*
X2078171Y-9914886D01*
X2068648Y-9952981D01*
X2059124Y-9972029D01*
X2049600Y-9981552D01*
X2030552Y-9991076D01*
X2011505Y-9991076D01*
X1992457Y-9981552D01*
X1982933Y-9972029D01*
X1973409Y-9952981D01*
X1963886Y-9914886D01*
X1963886Y-9867267D01*
X1973409Y-9829171D01*
X1982933Y-9810124D01*
X1992457Y-9800600D01*
X2011505Y-9791076D01*
X2201981Y-9791076D02*
X2221029Y-9791076D01*
X2240076Y-9800600D01*
X2249600Y-9810124D01*
X2259124Y-9829171D01*
X2268648Y-9867267D01*
X2268648Y-9914886D01*
X2259124Y-9952981D01*
X2249600Y-9972029D01*
X2240076Y-9981552D01*
X2221029Y-9991076D01*
X2201981Y-9991076D01*
X2182933Y-9981552D01*
X2173410Y-9972029D01*
X2163886Y-9952981D01*
X2154362Y-9914886D01*
X2154362Y-9867267D01*
X2163886Y-9829171D01*
X2173410Y-9810124D01*
X2182933Y-9800600D01*
X2201981Y-9791076D01*
X2354362Y-9991076D02*
X2354362Y-9857743D01*
X2354362Y-9876790D02*
X2363886Y-9867267D01*
X2382933Y-9857743D01*
X2411505Y-9857743D01*
X2430552Y-9867267D01*
X2440076Y-9886314D01*
X2440076Y-9991076D01*
X2440076Y-9886314D02*
X2449600Y-9867267D01*
X2468648Y-9857743D01*
X2497219Y-9857743D01*
X2516267Y-9867267D01*
X2525790Y-9886314D01*
X2525790Y-9991076D01*
X2621029Y-9991076D02*
X2621029Y-9857743D01*
X2621029Y-9876790D02*
X2630552Y-9867267D01*
X2649600Y-9857743D01*
X2678171Y-9857743D01*
X2697219Y-9867267D01*
X2706743Y-9886314D01*
X2706743Y-9991076D01*
X2706743Y-9886314D02*
X2716267Y-9867267D01*
X2735314Y-9857743D01*
X2763886Y-9857743D01*
X2782933Y-9867267D01*
X2792457Y-9886314D01*
X2792457Y-9991076D01*
X3182933Y-9781552D02*
X3011505Y-10038695D01*
X3440076Y-9791076D02*
X3459124Y-9791076D01*
X3478171Y-9800600D01*
X3487695Y-9810124D01*
X3497219Y-9829171D01*
X3506743Y-9867267D01*
X3506743Y-9914886D01*
X3497219Y-9952981D01*
X3487695Y-9972029D01*
X3478171Y-9981552D01*
X3459124Y-9991076D01*
X3440076Y-9991076D01*
X3421028Y-9981552D01*
X3411505Y-9972029D01*
X3401981Y-9952981D01*
X3392457Y-9914886D01*
X3392457Y-9867267D01*
X3401981Y-9829171D01*
X3411505Y-9810124D01*
X3421028Y-9800600D01*
X3440076Y-9791076D01*
X3592457Y-9972029D02*
X3601981Y-9981552D01*
X3592457Y-9991076D01*
X3582933Y-9981552D01*
X3592457Y-9972029D01*
X3592457Y-9991076D01*
X3725790Y-9791076D02*
X3744838Y-9791076D01*
X3763886Y-9800600D01*
X3773409Y-9810124D01*
X3782933Y-9829171D01*
X3792457Y-9867267D01*
X3792457Y-9914886D01*
X3782933Y-9952981D01*
X3773409Y-9972029D01*
X3763886Y-9981552D01*
X3744838Y-9991076D01*
X3725790Y-9991076D01*
X3706743Y-9981552D01*
X3697219Y-9972029D01*
X3687695Y-9952981D01*
X3678171Y-9914886D01*
X3678171Y-9867267D01*
X3687695Y-9829171D01*
X3697219Y-9810124D01*
X3706743Y-9800600D01*
X3725790Y-9791076D01*
X3859124Y-9791076D02*
X3982933Y-9791076D01*
X3916267Y-9867267D01*
X3944838Y-9867267D01*
X3963886Y-9876790D01*
X3973409Y-9886314D01*
X3982933Y-9905362D01*
X3982933Y-9952981D01*
X3973409Y-9972029D01*
X3963886Y-9981552D01*
X3944838Y-9991076D01*
X3887695Y-9991076D01*
X3868648Y-9981552D01*
X3859124Y-9972029D01*
X4078171Y-9991076D02*
X4116267Y-9991076D01*
X4135314Y-9981552D01*
X4144838Y-9972029D01*
X4163886Y-9943457D01*
X4173409Y-9905362D01*
X4173409Y-9829171D01*
X4163886Y-9810124D01*
X4154362Y-9800600D01*
X4135314Y-9791076D01*
X4097219Y-9791076D01*
X4078171Y-9800600D01*
X4068648Y-9810124D01*
X4059124Y-9829171D01*
X4059124Y-9876790D01*
X4068648Y-9895838D01*
X4078171Y-9905362D01*
X4097219Y-9914886D01*
X4135314Y-9914886D01*
X4154362Y-9905362D01*
X4163886Y-9895838D01*
X4173409Y-9876790D01*
X4344838Y-9857743D02*
X4344838Y-9991076D01*
X4297219Y-9781552D02*
X4249600Y-9924410D01*
X4373410Y-9924410D01*
X4440076Y-9791076D02*
X4440076Y-9829171D01*
X4516267Y-9791076D02*
X4516267Y-9829171D01*
X4811505Y-10067267D02*
X4801981Y-10057743D01*
X4782933Y-10029171D01*
X4773410Y-10010124D01*
X4763886Y-9981552D01*
X4754362Y-9933933D01*
X4754362Y-9895838D01*
X4763886Y-9848219D01*
X4773410Y-9819648D01*
X4782933Y-9800600D01*
X4801981Y-9772029D01*
X4811505Y-9762505D01*
X4878171Y-9810124D02*
X4887695Y-9800600D01*
X4906743Y-9791076D01*
X4954362Y-9791076D01*
X4973410Y-9800600D01*
X4982933Y-9810124D01*
X4992457Y-9829171D01*
X4992457Y-9848219D01*
X4982933Y-9876790D01*
X4868648Y-9991076D01*
X4992457Y-9991076D01*
X5106743Y-9876790D02*
X5087695Y-9867267D01*
X5078171Y-9857743D01*
X5068648Y-9838695D01*
X5068648Y-9829171D01*
X5078171Y-9810124D01*
X5087695Y-9800600D01*
X5106743Y-9791076D01*
X5144838Y-9791076D01*
X5163886Y-9800600D01*
X5173410Y-9810124D01*
X5182933Y-9829171D01*
X5182933Y-9838695D01*
X5173410Y-9857743D01*
X5163886Y-9867267D01*
X5144838Y-9876790D01*
X5106743Y-9876790D01*
X5087695Y-9886314D01*
X5078171Y-9895838D01*
X5068648Y-9914886D01*
X5068648Y-9952981D01*
X5078171Y-9972029D01*
X5087695Y-9981552D01*
X5106743Y-9991076D01*
X5144838Y-9991076D01*
X5163886Y-9981552D01*
X5173410Y-9972029D01*
X5182933Y-9952981D01*
X5182933Y-9914886D01*
X5173410Y-9895838D01*
X5163886Y-9886314D01*
X5144838Y-9876790D01*
X5421029Y-9991076D02*
X5421029Y-9791076D01*
X5506743Y-9991076D02*
X5506743Y-9886314D01*
X5497219Y-9867267D01*
X5478171Y-9857743D01*
X5449600Y-9857743D01*
X5430552Y-9867267D01*
X5421029Y-9876790D01*
X5630552Y-9991076D02*
X5611505Y-9981552D01*
X5601981Y-9972029D01*
X5592457Y-9952981D01*
X5592457Y-9895838D01*
X5601981Y-9876790D01*
X5611505Y-9867267D01*
X5630552Y-9857743D01*
X5659124Y-9857743D01*
X5678171Y-9867267D01*
X5687695Y-9876790D01*
X5697219Y-9895838D01*
X5697219Y-9952981D01*
X5687695Y-9972029D01*
X5678171Y-9981552D01*
X5659124Y-9991076D01*
X5630552Y-9991076D01*
X5811505Y-9991076D02*
X5792457Y-9981552D01*
X5782933Y-9962505D01*
X5782933Y-9791076D01*
X5963886Y-9981552D02*
X5944838Y-9991076D01*
X5906743Y-9991076D01*
X5887695Y-9981552D01*
X5878171Y-9962505D01*
X5878171Y-9886314D01*
X5887695Y-9867267D01*
X5906743Y-9857743D01*
X5944838Y-9857743D01*
X5963886Y-9867267D01*
X5973409Y-9886314D01*
X5973409Y-9905362D01*
X5878171Y-9924410D01*
X6049600Y-9981552D02*
X6068648Y-9991076D01*
X6106743Y-9991076D01*
X6125790Y-9981552D01*
X6135314Y-9962505D01*
X6135314Y-9952981D01*
X6125790Y-9933933D01*
X6106743Y-9924410D01*
X6078171Y-9924410D01*
X6059124Y-9914886D01*
X6049600Y-9895838D01*
X6049600Y-9886314D01*
X6059124Y-9867267D01*
X6078171Y-9857743D01*
X6106743Y-9857743D01*
X6125790Y-9867267D01*
X6201981Y-10067267D02*
X6211505Y-10057743D01*
X6230552Y-10029171D01*
X6240076Y-10010124D01*
X6249600Y-9981552D01*
X6259124Y-9933933D01*
X6259124Y-9895838D01*
X6249600Y-9848219D01*
X6240076Y-9819648D01*
X6230552Y-9800600D01*
X6211505Y-9772029D01*
X6201981Y-9762505D01*
M02*
