%TF.GenerationSoftware,KiCad,Pcbnew,6.0.9-8da3e8f707~116~ubuntu22.04.1*%
%TF.CreationDate,2023-09-17T15:53:30-04:00*%
%TF.ProjectId,Recovery_DoubleStage,5265636f-7665-4727-995f-446f75626c65,rev?*%
%TF.SameCoordinates,Original*%
%TF.FileFunction,Copper,L1,Top*%
%TF.FilePolarity,Positive*%
%FSLAX46Y46*%
G04 Gerber Fmt 4.6, Leading zero omitted, Abs format (unit mm)*
G04 Created by KiCad (PCBNEW 6.0.9-8da3e8f707~116~ubuntu22.04.1) date 2023-09-17 15:53:30*
%MOMM*%
%LPD*%
G01*
G04 APERTURE LIST*
G04 Aperture macros list*
%AMRoundRect*
0 Rectangle with rounded corners*
0 $1 Rounding radius*
0 $2 $3 $4 $5 $6 $7 $8 $9 X,Y pos of 4 corners*
0 Add a 4 corners polygon primitive as box body*
4,1,4,$2,$3,$4,$5,$6,$7,$8,$9,$2,$3,0*
0 Add four circle primitives for the rounded corners*
1,1,$1+$1,$2,$3*
1,1,$1+$1,$4,$5*
1,1,$1+$1,$6,$7*
1,1,$1+$1,$8,$9*
0 Add four rect primitives between the rounded corners*
20,1,$1+$1,$2,$3,$4,$5,0*
20,1,$1+$1,$4,$5,$6,$7,0*
20,1,$1+$1,$6,$7,$8,$9,0*
20,1,$1+$1,$8,$9,$2,$3,0*%
G04 Aperture macros list end*
%TA.AperFunction,ComponentPad*%
%ADD10RoundRect,0.250000X-0.750000X0.600000X-0.750000X-0.600000X0.750000X-0.600000X0.750000X0.600000X0*%
%TD*%
%TA.AperFunction,ComponentPad*%
%ADD11O,2.000000X1.700000*%
%TD*%
%TA.AperFunction,SMDPad,CuDef*%
%ADD12RoundRect,0.225000X-0.250000X0.225000X-0.250000X-0.225000X0.250000X-0.225000X0.250000X0.225000X0*%
%TD*%
%TA.AperFunction,SMDPad,CuDef*%
%ADD13R,1.500000X0.300000*%
%TD*%
%TA.AperFunction,SMDPad,CuDef*%
%ADD14R,0.300000X1.500000*%
%TD*%
%TA.AperFunction,SMDPad,CuDef*%
%ADD15R,1.220000X0.650000*%
%TD*%
%TA.AperFunction,SMDPad,CuDef*%
%ADD16R,0.275000X0.250000*%
%TD*%
%TA.AperFunction,SMDPad,CuDef*%
%ADD17R,0.250000X0.275000*%
%TD*%
%TA.AperFunction,SMDPad,CuDef*%
%ADD18C,1.000000*%
%TD*%
%TA.AperFunction,SMDPad,CuDef*%
%ADD19R,0.300000X0.450000*%
%TD*%
%TA.AperFunction,SMDPad,CuDef*%
%ADD20R,0.450000X0.300000*%
%TD*%
%TA.AperFunction,SMDPad,CuDef*%
%ADD21RoundRect,0.225000X0.225000X0.250000X-0.225000X0.250000X-0.225000X-0.250000X0.225000X-0.250000X0*%
%TD*%
%TA.AperFunction,SMDPad,CuDef*%
%ADD22R,0.800000X0.350000*%
%TD*%
%TA.AperFunction,SMDPad,CuDef*%
%ADD23R,0.350000X0.850000*%
%TD*%
%TA.AperFunction,SMDPad,CuDef*%
%ADD24R,2.700000X2.600000*%
%TD*%
%TA.AperFunction,SMDPad,CuDef*%
%ADD25RoundRect,0.200000X-0.200000X-0.275000X0.200000X-0.275000X0.200000X0.275000X-0.200000X0.275000X0*%
%TD*%
%TA.AperFunction,SMDPad,CuDef*%
%ADD26RoundRect,0.147500X-0.172500X0.147500X-0.172500X-0.147500X0.172500X-0.147500X0.172500X0.147500X0*%
%TD*%
%TA.AperFunction,SMDPad,CuDef*%
%ADD27R,3.000000X1.600000*%
%TD*%
%TA.AperFunction,SMDPad,CuDef*%
%ADD28R,6.200000X5.800000*%
%TD*%
%TA.AperFunction,SMDPad,CuDef*%
%ADD29RoundRect,0.225000X-0.225000X-0.250000X0.225000X-0.250000X0.225000X0.250000X-0.225000X0.250000X0*%
%TD*%
%TA.AperFunction,SMDPad,CuDef*%
%ADD30R,1.500000X1.000000*%
%TD*%
%TA.AperFunction,ComponentPad*%
%ADD31R,1.700000X1.700000*%
%TD*%
%TA.AperFunction,ComponentPad*%
%ADD32O,1.700000X1.700000*%
%TD*%
%TA.AperFunction,SMDPad,CuDef*%
%ADD33RoundRect,0.200000X0.275000X-0.200000X0.275000X0.200000X-0.275000X0.200000X-0.275000X-0.200000X0*%
%TD*%
%TA.AperFunction,SMDPad,CuDef*%
%ADD34RoundRect,0.200000X-0.275000X0.200000X-0.275000X-0.200000X0.275000X-0.200000X0.275000X0.200000X0*%
%TD*%
%TA.AperFunction,SMDPad,CuDef*%
%ADD35RoundRect,0.200000X0.200000X0.275000X-0.200000X0.275000X-0.200000X-0.275000X0.200000X-0.275000X0*%
%TD*%
%TA.AperFunction,SMDPad,CuDef*%
%ADD36R,0.650000X1.220000*%
%TD*%
%TA.AperFunction,SMDPad,CuDef*%
%ADD37R,5.000000X1.200000*%
%TD*%
%TA.AperFunction,SMDPad,CuDef*%
%ADD38R,5.000000X1.600000*%
%TD*%
%TA.AperFunction,SMDPad,CuDef*%
%ADD39R,2.400000X1.100000*%
%TD*%
%TA.AperFunction,SMDPad,CuDef*%
%ADD40R,1.400000X0.620000*%
%TD*%
%TA.AperFunction,SMDPad,CuDef*%
%ADD41RoundRect,0.175000X0.175000X-0.175000X0.175000X0.175000X-0.175000X0.175000X-0.175000X-0.175000X0*%
%TD*%
%TA.AperFunction,SMDPad,CuDef*%
%ADD42R,1.800000X0.800000*%
%TD*%
%TA.AperFunction,SMDPad,CuDef*%
%ADD43RoundRect,0.225000X0.250000X-0.225000X0.250000X0.225000X-0.250000X0.225000X-0.250000X-0.225000X0*%
%TD*%
%TA.AperFunction,SMDPad,CuDef*%
%ADD44R,1.950000X1.050000*%
%TD*%
%TA.AperFunction,SMDPad,CuDef*%
%ADD45R,1.000000X1.500000*%
%TD*%
%TA.AperFunction,SMDPad,CuDef*%
%ADD46R,1.000000X0.700000*%
%TD*%
%TA.AperFunction,SMDPad,CuDef*%
%ADD47R,0.400000X1.900000*%
%TD*%
%TA.AperFunction,SMDPad,CuDef*%
%ADD48R,1.200000X0.600000*%
%TD*%
%TA.AperFunction,SMDPad,CuDef*%
%ADD49RoundRect,0.150000X-0.150000X0.587500X-0.150000X-0.587500X0.150000X-0.587500X0.150000X0.587500X0*%
%TD*%
%TA.AperFunction,ViaPad*%
%ADD50C,0.800000*%
%TD*%
%TA.AperFunction,Conductor*%
%ADD51C,0.250000*%
%TD*%
%TA.AperFunction,Conductor*%
%ADD52C,0.500000*%
%TD*%
G04 APERTURE END LIST*
%TO.C,JP1*%
G36*
X68119500Y-58054000D02*
G01*
X67519500Y-58054000D01*
X67519500Y-57554000D01*
X68119500Y-57554000D01*
X68119500Y-58054000D01*
G37*
%TO.C,JP2*%
G36*
X59544000Y-73960000D02*
G01*
X59044000Y-73960000D01*
X59044000Y-73360000D01*
X59544000Y-73360000D01*
X59544000Y-73960000D01*
G37*
%TD*%
D10*
%TO.P,J6,1,+*%
%TO.N,+BATT*%
X25264600Y-20015200D03*
D11*
%TO.P,J6,2,-*%
%TO.N,GND*%
X25264600Y-22515200D03*
%TD*%
D12*
%TO.P,C15,1*%
%TO.N,GND*%
X95605600Y-70358000D03*
%TO.P,C15,2*%
%TO.N,+3V3*%
X95605600Y-71908000D03*
%TD*%
D13*
%TO.P,IC1,1,(OC0B)_PG5*%
%TO.N,unconnected-(IC1-Pad1)*%
X34890000Y-49750000D03*
%TO.P,IC1,2,(RXD0/PCINT8)_PE0*%
%TO.N,/RX0*%
X34890000Y-50250000D03*
%TO.P,IC1,3,(TXD0)_PE1*%
%TO.N,/TX0*%
X34890000Y-50750000D03*
%TO.P,IC1,4,(XCK0/AIN0)_PE2*%
%TO.N,/OPT3*%
X34890000Y-51250000D03*
%TO.P,IC1,5,(OC3A/AIN1)_PE3*%
%TO.N,/OPT2*%
X34890000Y-51750000D03*
%TO.P,IC1,6,(OC3B/INT4)_PE4*%
%TO.N,unconnected-(IC1-Pad6)*%
X34890000Y-52250000D03*
%TO.P,IC1,7,(OC3C/INT5)_PE5*%
%TO.N,/MMC_INT*%
X34890000Y-52750000D03*
%TO.P,IC1,8,(T3/INT6)_PE6*%
%TO.N,/BMP_INT*%
X34890000Y-53250000D03*
%TO.P,IC1,9,(CLKO/ICP3/INT7)_PE7*%
%TO.N,/MPU_INT*%
X34890000Y-53750000D03*
%TO.P,IC1,10,VCC_1*%
%TO.N,+3V3*%
X34890000Y-54250000D03*
%TO.P,IC1,11,GND_1*%
%TO.N,GND*%
X34890000Y-54750000D03*
%TO.P,IC1,12,(RXD2)_PH0*%
%TO.N,unconnected-(IC1-Pad12)*%
X34890000Y-55250000D03*
%TO.P,IC1,13,(TXD2)_PH1*%
%TO.N,unconnected-(IC1-Pad13)*%
X34890000Y-55750000D03*
%TO.P,IC1,14,(XCK2)_PH2*%
%TO.N,unconnected-(IC1-Pad14)*%
X34890000Y-56250000D03*
%TO.P,IC1,15,(OC4A)_PH3*%
%TO.N,unconnected-(IC1-Pad15)*%
X34890000Y-56750000D03*
%TO.P,IC1,16,(OC4B)_PH4*%
%TO.N,unconnected-(IC1-Pad16)*%
X34890000Y-57250000D03*
%TO.P,IC1,17,(OC4C)_PH5*%
%TO.N,unconnected-(IC1-Pad17)*%
X34890000Y-57750000D03*
%TO.P,IC1,18,(OC2B)_PH6*%
%TO.N,unconnected-(IC1-Pad18)*%
X34890000Y-58250000D03*
%TO.P,IC1,19,(~{SS}/PCINT0)_PB0*%
%TO.N,/SD_CS*%
X34890000Y-58750000D03*
%TO.P,IC1,20,(SCK/PCINT1)_PB1*%
%TO.N,/SCK*%
X34890000Y-59250000D03*
%TO.P,IC1,21,(MOSI/PCINT2)_PB2*%
%TO.N,/MOSI*%
X34890000Y-59750000D03*
%TO.P,IC1,22,(MISO/PCINT3)_PB3*%
%TO.N,/MISO*%
X34890000Y-60250000D03*
%TO.P,IC1,23,(OC2A/PCINT4)_PB4*%
%TO.N,/Buzzer*%
X34890000Y-60750000D03*
%TO.P,IC1,24,(OC1A/PCINT5)_PB5*%
%TO.N,/OPT5*%
X34890000Y-61250000D03*
%TO.P,IC1,25,(OC1B/PCINT6)_PB6*%
%TO.N,/OPT4*%
X34890000Y-61750000D03*
D14*
%TO.P,IC1,26,(OC0A/OC1C/PCINT7)_PB7*%
%TO.N,/OPT1*%
X36640000Y-63500000D03*
%TO.P,IC1,27,(T4)_PH7*%
%TO.N,unconnected-(IC1-Pad27)*%
X37140000Y-63500000D03*
%TO.P,IC1,28,(TOSC2)_PG3*%
%TO.N,unconnected-(IC1-Pad28)*%
X37640000Y-63500000D03*
%TO.P,IC1,29,(TOSC1)_PG4*%
%TO.N,unconnected-(IC1-Pad29)*%
X38140000Y-63500000D03*
%TO.P,IC1,30,~{RESET}*%
%TO.N,/microcontroller/RESET*%
X38640000Y-63500000D03*
%TO.P,IC1,31,VCC_2*%
%TO.N,+3V3*%
X39140000Y-63500000D03*
%TO.P,IC1,32,GND_2*%
%TO.N,GND*%
X39640000Y-63500000D03*
%TO.P,IC1,33,XTAL2*%
%TO.N,Net-(IC1-Pad33)*%
X40140000Y-63500000D03*
%TO.P,IC1,34,XTAL1*%
%TO.N,Net-(IC1-Pad34)*%
X40640000Y-63500000D03*
%TO.P,IC1,35,(ICP4)_PL0*%
%TO.N,unconnected-(IC1-Pad35)*%
X41140000Y-63500000D03*
%TO.P,IC1,36,(ICP5)_PL1*%
%TO.N,unconnected-(IC1-Pad36)*%
X41640000Y-63500000D03*
%TO.P,IC1,37,(T5)_PL2*%
%TO.N,unconnected-(IC1-Pad37)*%
X42140000Y-63500000D03*
%TO.P,IC1,38,(OC5A)_PL3*%
%TO.N,unconnected-(IC1-Pad38)*%
X42640000Y-63500000D03*
%TO.P,IC1,39,(OC5B)_PL4*%
%TO.N,unconnected-(IC1-Pad39)*%
X43140000Y-63500000D03*
%TO.P,IC1,40,(OC5C)_PL5*%
%TO.N,unconnected-(IC1-Pad40)*%
X43640000Y-63500000D03*
%TO.P,IC1,41,PL6*%
%TO.N,unconnected-(IC1-Pad41)*%
X44140000Y-63500000D03*
%TO.P,IC1,42,PL7*%
%TO.N,unconnected-(IC1-Pad42)*%
X44640000Y-63500000D03*
%TO.P,IC1,43,(SCL/INT0)_PD0*%
%TO.N,/SCL*%
X45140000Y-63500000D03*
%TO.P,IC1,44,(SDA/INT1)_PD1*%
%TO.N,/SDA*%
X45640000Y-63500000D03*
%TO.P,IC1,45,(RXD1/INT2)_PD2*%
%TO.N,/RX1*%
X46140000Y-63500000D03*
%TO.P,IC1,46,(TXD1/INT3)_PD3*%
%TO.N,/TX1*%
X46640000Y-63500000D03*
%TO.P,IC1,47,(ICP1)_PD4*%
%TO.N,unconnected-(IC1-Pad47)*%
X47140000Y-63500000D03*
%TO.P,IC1,48,(XCK1)_PD5*%
%TO.N,unconnected-(IC1-Pad48)*%
X47640000Y-63500000D03*
%TO.P,IC1,49,(T1)_PD6*%
%TO.N,unconnected-(IC1-Pad49)*%
X48140000Y-63500000D03*
%TO.P,IC1,50,(T0)_PD7*%
%TO.N,unconnected-(IC1-Pad50)*%
X48640000Y-63500000D03*
D13*
%TO.P,IC1,51,PG0_(~{WR})*%
%TO.N,unconnected-(IC1-Pad51)*%
X50390000Y-61750000D03*
%TO.P,IC1,52,PG1_(~{RD})*%
%TO.N,unconnected-(IC1-Pad52)*%
X50390000Y-61250000D03*
%TO.P,IC1,53,PC0_(A8)*%
%TO.N,unconnected-(IC1-Pad53)*%
X50390000Y-60750000D03*
%TO.P,IC1,54,PC1_(A9)*%
%TO.N,unconnected-(IC1-Pad54)*%
X50390000Y-60250000D03*
%TO.P,IC1,55,PC2_(A10)*%
%TO.N,/ID1*%
X50390000Y-59750000D03*
%TO.P,IC1,56,PC3_(A11)*%
%TO.N,/ID2*%
X50390000Y-59250000D03*
%TO.P,IC1,57,PC4_(A12)*%
%TO.N,/ID3*%
X50390000Y-58750000D03*
%TO.P,IC1,58,PC5_(A13)*%
%TO.N,/IGNITION*%
X50390000Y-58250000D03*
%TO.P,IC1,59,PC6_(A14)*%
%TO.N,/Relay_1*%
X50390000Y-57750000D03*
%TO.P,IC1,60,PC7_(A15)*%
%TO.N,/Relay_2*%
X50390000Y-57250000D03*
%TO.P,IC1,61,VCC_3*%
%TO.N,+3V3*%
X50390000Y-56750000D03*
%TO.P,IC1,62,GND_3*%
%TO.N,GND*%
X50390000Y-56250000D03*
%TO.P,IC1,63,PJ0_(RXD3/PCINT9)*%
%TO.N,unconnected-(IC1-Pad63)*%
X50390000Y-55750000D03*
%TO.P,IC1,64,PJ1_(TXD3/PCINT10)*%
%TO.N,unconnected-(IC1-Pad64)*%
X50390000Y-55250000D03*
%TO.P,IC1,65,PJ2_(XCK3/PCINT11)*%
%TO.N,unconnected-(IC1-Pad65)*%
X50390000Y-54750000D03*
%TO.P,IC1,66,PJ3_(PCINT12)*%
%TO.N,unconnected-(IC1-Pad66)*%
X50390000Y-54250000D03*
%TO.P,IC1,67,PJ4_(PCINT13)*%
%TO.N,unconnected-(IC1-Pad67)*%
X50390000Y-53750000D03*
%TO.P,IC1,68,PJ5_(PCINT14)*%
%TO.N,unconnected-(IC1-Pad68)*%
X50390000Y-53250000D03*
%TO.P,IC1,69,PJ6_(PCINT15)*%
%TO.N,unconnected-(IC1-Pad69)*%
X50390000Y-52750000D03*
%TO.P,IC1,70,PG2_(ALE)*%
%TO.N,unconnected-(IC1-Pad70)*%
X50390000Y-52250000D03*
%TO.P,IC1,71,PA7_(AD7)*%
%TO.N,unconnected-(IC1-Pad71)*%
X50390000Y-51750000D03*
%TO.P,IC1,72,PA6_(AD6)*%
%TO.N,unconnected-(IC1-Pad72)*%
X50390000Y-51250000D03*
%TO.P,IC1,73,PA5_(AD5)*%
%TO.N,unconnected-(IC1-Pad73)*%
X50390000Y-50750000D03*
%TO.P,IC1,74,PA4_(AD4)*%
%TO.N,unconnected-(IC1-Pad74)*%
X50390000Y-50250000D03*
%TO.P,IC1,75,PA3_(AD3)*%
%TO.N,unconnected-(IC1-Pad75)*%
X50390000Y-49750000D03*
D14*
%TO.P,IC1,76,PA2_(AD2)*%
%TO.N,unconnected-(IC1-Pad76)*%
X48640000Y-48000000D03*
%TO.P,IC1,77,PA1_(AD1)*%
%TO.N,/LoRa_CS*%
X48140000Y-48000000D03*
%TO.P,IC1,78,PA0_(AD0)*%
%TO.N,/LoRa_RESET*%
X47640000Y-48000000D03*
%TO.P,IC1,79,PJ7*%
%TO.N,unconnected-(IC1-Pad79)*%
X47140000Y-48000000D03*
%TO.P,IC1,80,VCC_4*%
%TO.N,+3V3*%
X46640000Y-48000000D03*
%TO.P,IC1,81,GND_4*%
%TO.N,GND*%
X46140000Y-48000000D03*
%TO.P,IC1,82,PK7_(ADC15/PCINT23)*%
%TO.N,unconnected-(IC1-Pad82)*%
X45640000Y-48000000D03*
%TO.P,IC1,83,PK6_(ADC14/PCINT22)*%
%TO.N,unconnected-(IC1-Pad83)*%
X45140000Y-48000000D03*
%TO.P,IC1,84,PK5_(ADC13/PCINT21)*%
%TO.N,unconnected-(IC1-Pad84)*%
X44640000Y-48000000D03*
%TO.P,IC1,85,PK4_(ADC12/PCINT20)*%
%TO.N,unconnected-(IC1-Pad85)*%
X44140000Y-48000000D03*
%TO.P,IC1,86,PK3_(ADC11/PCINT19)*%
%TO.N,unconnected-(IC1-Pad86)*%
X43640000Y-48000000D03*
%TO.P,IC1,87,PK2_(ADC10/PCINT18)*%
%TO.N,unconnected-(IC1-Pad87)*%
X43140000Y-48000000D03*
%TO.P,IC1,88,PK1_(ADC9/PCINT17)*%
%TO.N,unconnected-(IC1-Pad88)*%
X42640000Y-48000000D03*
%TO.P,IC1,89,PK0_(ADC8/PCINT16)*%
%TO.N,unconnected-(IC1-Pad89)*%
X42140000Y-48000000D03*
%TO.P,IC1,90,PF7_(ADC7/TDI)*%
%TO.N,unconnected-(IC1-Pad90)*%
X41640000Y-48000000D03*
%TO.P,IC1,91,PF6_(ADC6/TDO)*%
%TO.N,unconnected-(IC1-Pad91)*%
X41140000Y-48000000D03*
%TO.P,IC1,92,PF5_(ADC5/TMS)*%
%TO.N,unconnected-(IC1-Pad92)*%
X40640000Y-48000000D03*
%TO.P,IC1,93,PF4_(ADC4/TCK)*%
%TO.N,unconnected-(IC1-Pad93)*%
X40140000Y-48000000D03*
%TO.P,IC1,94,PF3_(ADC3)*%
%TO.N,unconnected-(IC1-Pad94)*%
X39640000Y-48000000D03*
%TO.P,IC1,95,PF2_(ADC2)*%
%TO.N,unconnected-(IC1-Pad95)*%
X39140000Y-48000000D03*
%TO.P,IC1,96,PF1_(ADC1)*%
%TO.N,unconnected-(IC1-Pad96)*%
X38640000Y-48000000D03*
%TO.P,IC1,97,PF0_(ADC0)*%
%TO.N,unconnected-(IC1-Pad97)*%
X38140000Y-48000000D03*
%TO.P,IC1,98,AREF*%
%TO.N,+3V3*%
X37640000Y-48000000D03*
%TO.P,IC1,99,GND_5*%
%TO.N,GND*%
X37140000Y-48000000D03*
%TO.P,IC1,100,AVCC*%
%TO.N,+3V3*%
X36640000Y-48000000D03*
%TD*%
D15*
%TO.P,D1,1,A*%
%TO.N,/microcontroller/RESET*%
X32908000Y-43116000D03*
%TO.P,D1,2,NC*%
%TO.N,unconnected-(D1-Pad2)*%
X32908000Y-45016000D03*
%TO.P,D1,3,K*%
%TO.N,+3V3*%
X35528000Y-44066000D03*
%TD*%
D16*
%TO.P,IC5,1,VDDIO*%
%TO.N,+3V3*%
X62992500Y-56396000D03*
%TO.P,IC5,2,SCK*%
%TO.N,/SCL*%
X62992500Y-56896000D03*
D17*
%TO.P,IC5,3,VSS_1*%
%TO.N,GND*%
X63255500Y-57408000D03*
%TO.P,IC5,4,SDI*%
%TO.N,/SDA*%
X63755500Y-57408000D03*
%TO.P,IC5,5,SDO*%
%TO.N,GND*%
X64255500Y-57408000D03*
D16*
%TO.P,IC5,6,CSB*%
%TO.N,Net-(IC5-Pad6)*%
X64518500Y-56896000D03*
%TO.P,IC5,7,INT*%
%TO.N,/BMP_INT*%
X64518500Y-56396000D03*
D17*
%TO.P,IC5,8,VSS_2*%
%TO.N,GND*%
X64255500Y-55884000D03*
%TO.P,IC5,9,VSS_3*%
X63755500Y-55884000D03*
%TO.P,IC5,10,VDD*%
%TO.N,+3V3*%
X63255500Y-55884000D03*
%TD*%
D18*
%TO.P,TP12,1,1*%
%TO.N,/SDA*%
X49752000Y-68450000D03*
%TD*%
D19*
%TO.P,IC3,1,SCL/SPI_SCK*%
%TO.N,/SCL*%
X60186000Y-32253000D03*
%TO.P,IC3,2,VDD*%
%TO.N,+3V3*%
X59686000Y-32253000D03*
%TO.P,IC3,3,NC_1*%
%TO.N,unconnected-(IC3-Pad3)*%
X59186000Y-32253000D03*
%TO.P,IC3,4,SPI_CS*%
%TO.N,+3V3*%
X58686000Y-32253000D03*
D20*
%TO.P,IC3,5,SPI_SDO*%
%TO.N,unconnected-(IC3-Pad5)*%
X58161000Y-32778000D03*
%TO.P,IC3,6,NC_2*%
%TO.N,unconnected-(IC3-Pad6)*%
X58161000Y-33278000D03*
%TO.P,IC3,7,NC_3*%
%TO.N,unconnected-(IC3-Pad7)*%
X58161000Y-33778000D03*
%TO.P,IC3,8,NC_4*%
%TO.N,unconnected-(IC3-Pad8)*%
X58161000Y-34278000D03*
D19*
%TO.P,IC3,9,GND_1*%
%TO.N,GND*%
X58686000Y-34803000D03*
%TO.P,IC3,10,CAP*%
%TO.N,Net-(C21-Pad1)*%
X59186000Y-34803000D03*
%TO.P,IC3,11,GND_2*%
%TO.N,GND*%
X59686000Y-34803000D03*
%TO.P,IC3,12,NC_5*%
%TO.N,unconnected-(IC3-Pad12)*%
X60186000Y-34803000D03*
D20*
%TO.P,IC3,13,VDDIO*%
%TO.N,+3V3*%
X60711000Y-34278000D03*
%TO.P,IC3,14,NC_6*%
%TO.N,unconnected-(IC3-Pad14)*%
X60711000Y-33778000D03*
%TO.P,IC3,15,INT*%
%TO.N,/MMC_INT*%
X60711000Y-33278000D03*
%TO.P,IC3,16,SDA/SPI_SDI*%
%TO.N,/SDA*%
X60711000Y-32778000D03*
%TD*%
D18*
%TO.P,TP14,1,1*%
%TO.N,/Buzzer*%
X53263000Y-79606000D03*
%TD*%
D21*
%TO.P,C21,1*%
%TO.N,Net-(C21-Pad1)*%
X59703000Y-37084000D03*
%TO.P,C21,2*%
%TO.N,GND*%
X58153000Y-37084000D03*
%TD*%
D22*
%TO.P,IC6,1,CLKIN*%
%TO.N,GND*%
X59468000Y-66822000D03*
%TO.P,IC6,2,NC_1*%
%TO.N,unconnected-(IC6-Pad2)*%
X59468000Y-67322000D03*
%TO.P,IC6,3,NC_2*%
%TO.N,unconnected-(IC6-Pad3)*%
X59468000Y-67822000D03*
%TO.P,IC6,4,NC_3*%
%TO.N,unconnected-(IC6-Pad4)*%
X59468000Y-68322000D03*
%TO.P,IC6,5,NC_4*%
%TO.N,unconnected-(IC6-Pad5)*%
X59468000Y-68822000D03*
%TO.P,IC6,6,AUX_DA*%
%TO.N,unconnected-(IC6-Pad6)*%
X59468000Y-69322000D03*
D23*
%TO.P,IC6,7,AUX_CL*%
%TO.N,unconnected-(IC6-Pad7)*%
X60218000Y-70047000D03*
%TO.P,IC6,8,VLOGIC*%
%TO.N,+3V3*%
X60718000Y-70047000D03*
%TO.P,IC6,9,AD0*%
%TO.N,Net-(IC6-Pad9)*%
X61218000Y-70047000D03*
%TO.P,IC6,10,REGOUT*%
%TO.N,Net-(C8-Pad1)*%
X61718000Y-70047000D03*
%TO.P,IC6,11,FSYNC*%
%TO.N,GND*%
X62218000Y-70047000D03*
%TO.P,IC6,12,INT*%
%TO.N,/MPU_INT*%
X62718000Y-70047000D03*
D22*
%TO.P,IC6,13,VDD*%
%TO.N,+3V3*%
X63468000Y-69322000D03*
%TO.P,IC6,14,NC_5*%
%TO.N,unconnected-(IC6-Pad14)*%
X63468000Y-68822000D03*
%TO.P,IC6,15,NC_6*%
%TO.N,unconnected-(IC6-Pad15)*%
X63468000Y-68322000D03*
%TO.P,IC6,16,NC_7*%
%TO.N,unconnected-(IC6-Pad16)*%
X63468000Y-67822000D03*
%TO.P,IC6,17,NC_8*%
%TO.N,unconnected-(IC6-Pad17)*%
X63468000Y-67322000D03*
%TO.P,IC6,18,GND*%
%TO.N,GND*%
X63468000Y-66822000D03*
D23*
%TO.P,IC6,19,RESV_1*%
%TO.N,unconnected-(IC6-Pad19)*%
X62718000Y-66097000D03*
%TO.P,IC6,20,CPOUT*%
%TO.N,Net-(C6-Pad2)*%
X62218000Y-66097000D03*
%TO.P,IC6,21,RESV_2*%
%TO.N,unconnected-(IC6-Pad21)*%
X61718000Y-66097000D03*
%TO.P,IC6,22,RESV_3*%
%TO.N,unconnected-(IC6-Pad22)*%
X61218000Y-66097000D03*
%TO.P,IC6,23,SCL*%
%TO.N,/SCL*%
X60718000Y-66097000D03*
%TO.P,IC6,24,SDA*%
%TO.N,/SDA*%
X60218000Y-66097000D03*
D24*
%TO.P,IC6,25,EP*%
%TO.N,unconnected-(IC6-Pad25)*%
X61468000Y-68072000D03*
%TD*%
D12*
%TO.P,C22,1*%
%TO.N,+3V3*%
X62747000Y-35801000D03*
%TO.P,C22,2*%
%TO.N,GND*%
X62747000Y-37351000D03*
%TD*%
D25*
%TO.P,R2,1*%
%TO.N,+3V3*%
X35402000Y-67434000D03*
%TO.P,R2,2*%
%TO.N,/microcontroller/RESET*%
X37052000Y-67434000D03*
%TD*%
D18*
%TO.P,TP10,1,1*%
%TO.N,/TX1*%
X73152000Y-83820000D03*
%TD*%
%TO.P,TP2,1,1*%
%TO.N,/MPU_INT*%
X66040000Y-73660000D03*
%TD*%
%TO.P,TP13,1,1*%
%TO.N,/SCL*%
X46196000Y-68450000D03*
%TD*%
D26*
%TO.P,L1,1,1*%
%TO.N,+3V3*%
X94081600Y-73553600D03*
%TO.P,L1,2,2*%
%TO.N,/ANT_NEO*%
X94081600Y-74523600D03*
%TD*%
D12*
%TO.P,C3,1*%
%TO.N,+3V3*%
X33528000Y-67297000D03*
%TO.P,C3,2*%
%TO.N,GND*%
X33528000Y-68847000D03*
%TD*%
D27*
%TO.P,U1,1,VIN*%
%TO.N,+BATT*%
X49716000Y-18035000D03*
D28*
%TO.P,U1,2,GND*%
%TO.N,GND*%
X56896000Y-20320000D03*
D27*
%TO.P,U1,3,VOUT*%
%TO.N,+5V*%
X49716000Y-22605000D03*
%TD*%
D29*
%TO.P,C10,1*%
%TO.N,+3V3*%
X61964500Y-53598000D03*
%TO.P,C10,2*%
%TO.N,GND*%
X63514500Y-53598000D03*
%TD*%
D30*
%TO.P,JP1,1,A*%
%TO.N,+3V3*%
X67819500Y-57154000D03*
%TO.P,JP1,2,C*%
%TO.N,Net-(IC5-Pad6)*%
X67819500Y-58454000D03*
%TO.P,JP1,3,B*%
%TO.N,GND*%
X67819500Y-59754000D03*
%TD*%
D31*
%TO.P,J1,1,Pin_1*%
%TO.N,/MISO*%
X44921000Y-34937000D03*
D32*
%TO.P,J1,2,Pin_2*%
%TO.N,+3V3*%
X47461000Y-34937000D03*
%TO.P,J1,3,Pin_3*%
%TO.N,/SCK*%
X44921000Y-37477000D03*
%TO.P,J1,4,Pin_4*%
%TO.N,/MOSI*%
X47461000Y-37477000D03*
%TO.P,J1,5,Pin_5*%
%TO.N,/microcontroller/RESET*%
X44921000Y-40017000D03*
%TO.P,J1,6,Pin_6*%
%TO.N,GND*%
X47461000Y-40017000D03*
%TD*%
D12*
%TO.P,C5,1*%
%TO.N,+3V3*%
X32870000Y-54985000D03*
%TO.P,C5,2*%
%TO.N,GND*%
X32870000Y-56535000D03*
%TD*%
%TO.P,C7,1*%
%TO.N,GND*%
X66028000Y-64785000D03*
%TO.P,C7,2*%
%TO.N,+3V3*%
X66028000Y-66335000D03*
%TD*%
D25*
%TO.P,R7,1*%
%TO.N,GND*%
X45898000Y-83670000D03*
%TO.P,R7,2*%
%TO.N,Net-(Q1-Pad1)*%
X47548000Y-83670000D03*
%TD*%
%TO.P,R1,1*%
%TO.N,Net-(IC1-Pad33)*%
X40300000Y-72130000D03*
%TO.P,R1,2*%
%TO.N,Net-(IC1-Pad34)*%
X41950000Y-72130000D03*
%TD*%
D33*
%TO.P,R3,1*%
%TO.N,+3V3*%
X46323000Y-74355000D03*
%TO.P,R3,2*%
%TO.N,/SCL*%
X46323000Y-72705000D03*
%TD*%
D18*
%TO.P,TP1,1,1*%
%TO.N,/MMC_INT*%
X63255000Y-33528000D03*
%TD*%
%TO.P,TP5,1,1*%
%TO.N,/LoRa_CS*%
X72644000Y-24892000D03*
%TD*%
D21*
%TO.P,C1,1*%
%TO.N,/microcontroller/RESET*%
X37002000Y-69339000D03*
%TO.P,C1,2*%
%TO.N,GND*%
X35452000Y-69339000D03*
%TD*%
D34*
%TO.P,R6,1*%
%TO.N,/Buzzer*%
X50279000Y-79302000D03*
%TO.P,R6,2*%
%TO.N,Net-(Q1-Pad1)*%
X50279000Y-80952000D03*
%TD*%
D35*
%TO.P,R8,1*%
%TO.N,/LoRa_RESET*%
X71945000Y-27432000D03*
%TO.P,R8,2*%
%TO.N,+3V3*%
X70295000Y-27432000D03*
%TD*%
D12*
%TO.P,C14,1*%
%TO.N,GND*%
X92557600Y-70358000D03*
%TO.P,C14,2*%
%TO.N,+3V3*%
X92557600Y-71908000D03*
%TD*%
D36*
%TO.P,D2,1,A*%
%TO.N,Net-(BZ1-Pad3)*%
X47686000Y-85558000D03*
%TO.P,D2,2,NC*%
%TO.N,unconnected-(D2-Pad2)*%
X45786000Y-85558000D03*
%TO.P,D2,3,K*%
%TO.N,+5V*%
X46736000Y-88178000D03*
%TD*%
D18*
%TO.P,TP11,1,1*%
%TO.N,/RX1*%
X73660000Y-80772000D03*
%TD*%
D12*
%TO.P,C12,1*%
%TO.N,+3V3*%
X94262726Y-22085000D03*
%TO.P,C12,2*%
%TO.N,GND*%
X94262726Y-23635000D03*
%TD*%
D21*
%TO.P,C4,1*%
%TO.N,+3V3*%
X46980000Y-45460000D03*
%TO.P,C4,2*%
%TO.N,GND*%
X45430000Y-45460000D03*
%TD*%
D37*
%TO.P,J3,1,In*%
%TO.N,/ANT_NEO*%
X100657000Y-78943200D03*
D38*
%TO.P,J3,2,Ext*%
%TO.N,GND*%
X100657000Y-76173200D03*
%TO.P,J3,3*%
%TO.N,N/C*%
X100657000Y-81713200D03*
%TD*%
D39*
%TO.P,J5,MP1,SHIELD*%
%TO.N,GND*%
X27061000Y-71681000D03*
%TO.P,J5,MP2,SHIELD*%
X18061000Y-71681000D03*
%TO.P,J5,MP3,SHIELD*%
X18061000Y-87831000D03*
%TO.P,J5,MP4,SHIELD*%
X27061000Y-87831000D03*
D40*
%TO.P,J5,P1,DAT2*%
%TO.N,unconnected-(J5-PadP1)*%
X29061000Y-81861000D03*
%TO.P,J5,P2,CD/DAT3*%
%TO.N,Net-(J5-PadP2)*%
X29061000Y-80761000D03*
%TO.P,J5,P3,CMD*%
%TO.N,/MOSI*%
X29061000Y-79661000D03*
%TO.P,J5,P4,VDD*%
%TO.N,+3V3*%
X29061000Y-78561000D03*
%TO.P,J5,P5,CLK*%
%TO.N,/SCK*%
X29061000Y-77461000D03*
%TO.P,J5,P6,VSS*%
%TO.N,GND*%
X29061000Y-76361000D03*
%TO.P,J5,P7,DAT0*%
%TO.N,/MISO*%
X29061000Y-75261000D03*
%TO.P,J5,P8,DAT1*%
%TO.N,unconnected-(J5-PadP8)*%
X29061000Y-74161000D03*
%TO.P,J5,P9,CD*%
%TO.N,/SD_CS*%
X29061000Y-73061000D03*
%TD*%
D21*
%TO.P,C6,1*%
%TO.N,GND*%
X64275000Y-63500000D03*
%TO.P,C6,2*%
%TO.N,Net-(C6-Pad2)*%
X62725000Y-63500000D03*
%TD*%
D41*
%TO.P,BZ1,1*%
%TO.N,N/C*%
X53086000Y-86563200D03*
%TO.P,BZ1,2,+*%
%TO.N,+5V*%
X56642000Y-86563200D03*
%TO.P,BZ1,3,+*%
%TO.N,Net-(BZ1-Pad3)*%
X56642000Y-81737200D03*
%TD*%
D21*
%TO.P,C18,1*%
%TO.N,GND*%
X53217000Y-25400000D03*
%TO.P,C18,2*%
%TO.N,+5V*%
X51667000Y-25400000D03*
%TD*%
D42*
%TO.P,IC4,1,RESERVED_1*%
%TO.N,unconnected-(IC4-Pad1)*%
X88804000Y-87264000D03*
%TO.P,IC4,2,SS_N*%
%TO.N,unconnected-(IC4-Pad2)*%
X88804000Y-86164000D03*
%TO.P,IC4,3,TIMEPULSE*%
%TO.N,unconnected-(IC4-Pad3)*%
X88804000Y-85064000D03*
%TO.P,IC4,4,EXTINT0*%
%TO.N,unconnected-(IC4-Pad4)*%
X88804000Y-83964000D03*
%TO.P,IC4,5,USB_DM*%
%TO.N,unconnected-(IC4-Pad5)*%
X88804000Y-82864000D03*
%TO.P,IC4,6,USB_DP*%
%TO.N,unconnected-(IC4-Pad6)*%
X88804000Y-81764000D03*
%TO.P,IC4,7,VDDUSB*%
%TO.N,GND*%
X88804000Y-80664000D03*
%TO.P,IC4,8,RESERVED_2*%
%TO.N,Net-(IC4-Pad8)*%
X88804000Y-77664000D03*
%TO.P,IC4,9,VCC_RF*%
X88804000Y-76564000D03*
%TO.P,IC4,10,GND_1*%
%TO.N,GND*%
X88804000Y-75464000D03*
%TO.P,IC4,11,RF_IN*%
%TO.N,/ANT_NEO*%
X88804000Y-74364000D03*
%TO.P,IC4,12,GND_2*%
%TO.N,GND*%
X88804000Y-73264000D03*
%TO.P,IC4,13,GND_3*%
X76804000Y-73264000D03*
%TO.P,IC4,14,MOSI/CFG_COM0*%
%TO.N,unconnected-(IC4-Pad14)*%
X76804000Y-74364000D03*
%TO.P,IC4,15,MISO/CFG_COM1*%
%TO.N,unconnected-(IC4-Pad15)*%
X76804000Y-75464000D03*
%TO.P,IC4,16,CFG_GPS0/SCK*%
%TO.N,unconnected-(IC4-Pad16)*%
X76804000Y-76564000D03*
%TO.P,IC4,17,RESERVED_3*%
%TO.N,unconnected-(IC4-Pad17)*%
X76804000Y-77664000D03*
%TO.P,IC4,18,SDA2*%
%TO.N,unconnected-(IC4-Pad18)*%
X76804000Y-80664000D03*
%TO.P,IC4,19,SCL2*%
%TO.N,unconnected-(IC4-Pad19)*%
X76804000Y-81764000D03*
%TO.P,IC4,20,TXD1*%
%TO.N,/RX1*%
X76804000Y-82864000D03*
%TO.P,IC4,21,RXD1*%
%TO.N,/TX1*%
X76804000Y-83964000D03*
%TO.P,IC4,22,V_BCKP*%
%TO.N,GND*%
X76804000Y-85064000D03*
%TO.P,IC4,23,VCC*%
%TO.N,+3V3*%
X76804000Y-86164000D03*
%TO.P,IC4,24,GND_4*%
%TO.N,GND*%
X76804000Y-87264000D03*
%TD*%
D43*
%TO.P,C16,1*%
%TO.N,+3V3*%
X32253000Y-77991000D03*
%TO.P,C16,2*%
%TO.N,GND*%
X32253000Y-76441000D03*
%TD*%
D37*
%TO.P,J4,1,In*%
%TO.N,/ANT_LORA*%
X100690000Y-25654000D03*
D38*
%TO.P,J4,2,Ext*%
%TO.N,GND*%
X100690000Y-22884000D03*
%TO.P,J4,3*%
%TO.N,N/C*%
X100690000Y-28424000D03*
%TD*%
D43*
%TO.P,C20,1*%
%TO.N,GND*%
X42672000Y-20587000D03*
%TO.P,C20,2*%
%TO.N,+3V3*%
X42672000Y-19037000D03*
%TD*%
D12*
%TO.P,C8,1*%
%TO.N,Net-(C8-Pad1)*%
X62484000Y-72644000D03*
%TO.P,C8,2*%
%TO.N,GND*%
X62484000Y-74194000D03*
%TD*%
D43*
%TO.P,C2,1*%
%TO.N,+3V3*%
X52555000Y-56395000D03*
%TO.P,C2,2*%
%TO.N,GND*%
X52555000Y-54845000D03*
%TD*%
D31*
%TO.P,J2,1,Pin_1*%
%TO.N,+BATT*%
X17013000Y-36327000D03*
D32*
%TO.P,J2,2,Pin_2*%
%TO.N,+5V*%
X19553000Y-36327000D03*
%TO.P,J2,3,Pin_3*%
%TO.N,+3V3*%
X17013000Y-38867000D03*
%TO.P,J2,4,Pin_4*%
%TO.N,/SDA*%
X19553000Y-38867000D03*
%TO.P,J2,5,Pin_5*%
%TO.N,/SCL*%
X17013000Y-41407000D03*
%TO.P,J2,6,Pin_6*%
%TO.N,/TX0*%
X19553000Y-41407000D03*
%TO.P,J2,7,Pin_7*%
%TO.N,/RX0*%
X17013000Y-43947000D03*
%TO.P,J2,8,Pin_8*%
%TO.N,/OPT1*%
X19553000Y-43947000D03*
%TO.P,J2,9,Pin_9*%
%TO.N,/OPT2*%
X17013000Y-46487000D03*
%TO.P,J2,10,Pin_10*%
%TO.N,/OPT3*%
X19553000Y-46487000D03*
%TO.P,J2,11,Pin_11*%
%TO.N,GND*%
X17013000Y-49027000D03*
%TO.P,J2,12,Pin_12*%
%TO.N,/OPT4*%
X19553000Y-49027000D03*
%TO.P,J2,13,Pin_13*%
%TO.N,/OPT5*%
X17013000Y-51567000D03*
%TO.P,J2,14,Pin_14*%
%TO.N,/IGNITION*%
X19553000Y-51567000D03*
%TO.P,J2,15,Pin_15*%
%TO.N,/ID3*%
X17013000Y-54107000D03*
%TO.P,J2,16,Pin_16*%
%TO.N,/Relay_2*%
X19553000Y-54107000D03*
%TO.P,J2,17,Pin_17*%
%TO.N,/Relay_1*%
X17013000Y-56647000D03*
%TO.P,J2,18,Pin_18*%
%TO.N,/ID2*%
X19553000Y-56647000D03*
%TO.P,J2,19,Pin_19*%
%TO.N,/ID1*%
X17013000Y-59187000D03*
%TO.P,J2,20,Pin_20*%
%TO.N,GND*%
X19553000Y-59187000D03*
%TD*%
D33*
%TO.P,R4,1*%
%TO.N,+3V3*%
X49752000Y-74355000D03*
%TO.P,R4,2*%
%TO.N,/SDA*%
X49752000Y-72705000D03*
%TD*%
D44*
%TO.P,U2,1,GND*%
%TO.N,GND*%
X76928000Y-16876000D03*
%TO.P,U2,2,MISO*%
%TO.N,/MISO*%
X76928000Y-18876000D03*
%TO.P,U2,3,MOSI*%
%TO.N,/MOSI*%
X76928000Y-20876000D03*
%TO.P,U2,4,SCK*%
%TO.N,/SCK*%
X76928000Y-22876000D03*
%TO.P,U2,5,NSS*%
%TO.N,/LoRa_CS*%
X76928000Y-24876000D03*
%TO.P,U2,6,RESET*%
%TO.N,/LoRa_RESET*%
X76928000Y-26876000D03*
%TO.P,U2,7,DIO5*%
%TO.N,unconnected-(U2-Pad7)*%
X76928000Y-28876000D03*
%TO.P,U2,8,GND@1*%
%TO.N,GND*%
X76928000Y-30876000D03*
%TO.P,U2,9,ANT*%
%TO.N,/ANT_LORA*%
X91728000Y-30876000D03*
%TO.P,U2,10,GND@2*%
%TO.N,GND*%
X91728000Y-28876000D03*
%TO.P,U2,11,DIO3*%
%TO.N,unconnected-(U2-Pad11)*%
X91728000Y-26876000D03*
%TO.P,U2,12,DIO4*%
%TO.N,unconnected-(U2-Pad12)*%
X91728000Y-24876000D03*
%TO.P,U2,13,3_3V*%
%TO.N,+3V3*%
X91728000Y-22876000D03*
%TO.P,U2,14,DIO0*%
%TO.N,unconnected-(U2-Pad14)*%
X91728000Y-20876000D03*
%TO.P,U2,15,DIO1*%
%TO.N,unconnected-(U2-Pad15)*%
X91728000Y-18876000D03*
%TO.P,U2,16,DIO2*%
%TO.N,unconnected-(U2-Pad16)*%
X91728000Y-16876000D03*
%TD*%
D18*
%TO.P,TP6,1,1*%
%TO.N,/LoRa_RESET*%
X74168000Y-27432000D03*
%TD*%
D45*
%TO.P,JP2,1,A*%
%TO.N,GND*%
X59944000Y-73660000D03*
%TO.P,JP2,2,C*%
%TO.N,Net-(IC6-Pad9)*%
X58644000Y-73660000D03*
%TO.P,JP2,3,B*%
%TO.N,+3V3*%
X57344000Y-73660000D03*
%TD*%
D18*
%TO.P,TP3,1,1*%
%TO.N,/BMP_INT*%
X66295500Y-53090000D03*
%TD*%
D25*
%TO.P,R9,1*%
%TO.N,Net-(J5-PadP2)*%
X31687000Y-82296000D03*
%TO.P,R9,2*%
%TO.N,+3V3*%
X33337000Y-82296000D03*
%TD*%
D29*
%TO.P,C19,1*%
%TO.N,+BATT*%
X38341000Y-22860000D03*
%TO.P,C19,2*%
%TO.N,GND*%
X39891000Y-22860000D03*
%TD*%
D46*
%TO.P,SW1,1,1*%
%TO.N,GND*%
X36762000Y-38537000D03*
%TO.P,SW1,2,2*%
%TO.N,/microcontroller/RESET*%
X32262000Y-38537000D03*
%TO.P,SW1,3*%
%TO.N,N/C*%
X36762000Y-36387000D03*
%TO.P,SW1,4*%
X32262000Y-36387000D03*
%TD*%
D12*
%TO.P,C13,1*%
%TO.N,+3V3*%
X72644000Y-86334000D03*
%TO.P,C13,2*%
%TO.N,GND*%
X72644000Y-87884000D03*
%TD*%
D47*
%TO.P,Y1,1,INPUT*%
%TO.N,Net-(IC1-Pad33)*%
X39925000Y-68530000D03*
%TO.P,Y1,2,GND*%
%TO.N,GND*%
X41125000Y-68530000D03*
%TO.P,Y1,3,OUTPUT*%
%TO.N,Net-(IC1-Pad34)*%
X42325000Y-68530000D03*
%TD*%
D48*
%TO.P,IC2,1,GND*%
%TO.N,GND*%
X40366000Y-20762000D03*
%TO.P,IC2,2,VOUT*%
%TO.N,+3V3*%
X40366000Y-18862000D03*
%TO.P,IC2,3,VIN*%
%TO.N,+BATT*%
X37866000Y-19812000D03*
%TD*%
D12*
%TO.P,C11,1*%
%TO.N,+3V3*%
X59691500Y-55096000D03*
%TO.P,C11,2*%
%TO.N,GND*%
X59691500Y-56646000D03*
%TD*%
D49*
%TO.P,Q1,1,G*%
%TO.N,Net-(Q1-Pad1)*%
X42250400Y-84609700D03*
%TO.P,Q1,2,S*%
%TO.N,GND*%
X40350400Y-84609700D03*
%TO.P,Q1,3,D*%
%TO.N,Net-(BZ1-Pad3)*%
X41300400Y-86484700D03*
%TD*%
D18*
%TO.P,TP4,1,1*%
%TO.N,/SD_CS*%
X23114000Y-67310000D03*
%TD*%
D43*
%TO.P,C9,1*%
%TO.N,+3V3*%
X56896000Y-71120000D03*
%TO.P,C9,2*%
%TO.N,GND*%
X56896000Y-69570000D03*
%TD*%
D29*
%TO.P,C17,1*%
%TO.N,+BATT*%
X52175000Y-14732000D03*
%TO.P,C17,2*%
%TO.N,GND*%
X53725000Y-14732000D03*
%TD*%
D50*
%TO.N,GND*%
X100380800Y-72593200D03*
%TO.N,/microcontroller/RESET*%
X42418000Y-49530000D03*
X40581700Y-56583700D03*
X33528000Y-39624000D03*
X40640000Y-59944000D03*
%TO.N,GND*%
X64465200Y-65938400D03*
X56642000Y-37084000D03*
X61468000Y-16256000D03*
X67310000Y-61214000D03*
X64211200Y-74320400D03*
X31496000Y-56896000D03*
X89154000Y-28956000D03*
X86868000Y-81026000D03*
X36830000Y-45720000D03*
X65024000Y-54660800D03*
X76911200Y-70612000D03*
X44958000Y-82042000D03*
X71120000Y-88392000D03*
X58166000Y-56642000D03*
X43942000Y-45466000D03*
X53848000Y-54356000D03*
X37592000Y-37592000D03*
X41148000Y-73406000D03*
X57505600Y-67310000D03*
X79248000Y-19304000D03*
X32004000Y-68834000D03*
X23368000Y-77470000D03*
%TO.N,+3V3*%
X44450000Y-19304000D03*
X67310000Y-67056000D03*
X68072000Y-55372000D03*
X95504000Y-20066000D03*
X53848000Y-56388000D03*
X31242000Y-55372000D03*
X70104000Y-28956000D03*
X62733701Y-34802299D03*
X46820500Y-44450000D03*
X82804000Y-82296000D03*
X88544400Y-69443600D03*
X37084000Y-44450000D03*
X33782000Y-76962000D03*
X33528000Y-80518000D03*
X32004000Y-67310000D03*
X53594000Y-71882000D03*
X37084000Y-70612000D03*
%TO.N,+5V*%
X23622000Y-85090000D03*
%TO.N,/MMC_INT*%
X48514000Y-42418000D03*
X50546000Y-37338000D03*
X36576000Y-50800000D03*
X43434000Y-42672000D03*
%TO.N,/BMP_INT*%
X48260000Y-43688000D03*
X37524211Y-51116070D03*
X42926000Y-43688000D03*
X51016500Y-41656000D03*
%TO.N,/MPU_INT*%
X66040000Y-71374000D03*
X36576000Y-55372000D03*
%TO.N,/SD_CS*%
X24384000Y-66294000D03*
X30480000Y-60452000D03*
%TO.N,/SCK*%
X72644000Y-17780000D03*
X31499949Y-60947452D03*
X26416000Y-77470000D03*
%TO.N,/MOSI*%
X73914000Y-20828000D03*
%TO.N,/MISO*%
X26924000Y-75184000D03*
X73914000Y-19050000D03*
X40132000Y-51308000D03*
X32512000Y-60960000D03*
X38100000Y-56388000D03*
%TO.N,/Buzzer*%
X53086000Y-77470000D03*
X36571701Y-61472299D03*
%TO.N,/OPT1*%
X36851500Y-65278000D03*
X33020000Y-62992000D03*
%TO.N,/SCL*%
X59690000Y-33528000D03*
X61976000Y-59944000D03*
X54102000Y-29718000D03*
%TO.N,/SDA*%
X54102000Y-28702000D03*
X59436000Y-63500000D03*
X63755500Y-59688500D03*
X61468000Y-32512000D03*
%TO.N,/RX1*%
X70612000Y-81280000D03*
X48260000Y-66548000D03*
%TO.N,/TX1*%
X69088000Y-83820000D03*
X48260000Y-65532000D03*
%TO.N,/ID3*%
X46009155Y-54356000D03*
X23622000Y-54356000D03*
%TO.N,/IGNITION*%
X23368000Y-53340000D03*
X46733655Y-53352333D03*
%TO.N,/ID1*%
X44196000Y-55372000D03*
%TO.N,/ID2*%
X45166258Y-54893150D03*
%TO.N,/Relay_1*%
X46920364Y-52370424D03*
%TO.N,/Relay_2*%
X47752000Y-51816000D03*
%TO.N,/LoRa_CS*%
X74930000Y-24892000D03*
X49022000Y-46228000D03*
%TO.N,/LoRa_RESET*%
X47947542Y-46068375D03*
X70866000Y-26416000D03*
%TD*%
D51*
%TO.N,Net-(IC1-Pad33)*%
X40140000Y-63500000D02*
X40140000Y-64554396D01*
X40140000Y-64554396D02*
X41640802Y-66055198D01*
X41640802Y-66055198D02*
X40132000Y-67564000D01*
%TO.N,GND*%
X39640000Y-67040000D02*
X39640000Y-63500000D01*
X39640000Y-63500000D02*
X39624000Y-63484000D01*
D52*
X100657000Y-72869400D02*
X100380800Y-72593200D01*
X100657000Y-76173200D02*
X100657000Y-72869400D01*
%TO.N,+BATT*%
X17013000Y-36327000D02*
X17013000Y-28266800D01*
X17013000Y-28266800D02*
X25264600Y-20015200D01*
%TO.N,GND*%
X30384000Y-24936000D02*
X27963200Y-22515200D01*
X27963200Y-22515200D02*
X25264600Y-22515200D01*
X30384000Y-24936000D02*
X39326000Y-24936000D01*
%TO.N,+BATT*%
X25264600Y-20015200D02*
X27543800Y-17736000D01*
X27543800Y-17736000D02*
X35790000Y-17736000D01*
D51*
%TO.N,/microcontroller/RESET*%
X32262000Y-42470000D02*
X32908000Y-43116000D01*
X37052000Y-67434000D02*
X37052000Y-69289000D01*
X41656000Y-55509400D02*
X40581700Y-56583700D01*
X32262000Y-38537000D02*
X32262000Y-42470000D01*
X38640000Y-65846000D02*
X38640000Y-65500000D01*
X38640000Y-65500000D02*
X38640000Y-63500000D01*
X38640000Y-63500000D02*
X38640000Y-61944000D01*
X41656000Y-50292000D02*
X41656000Y-55509400D01*
X38640000Y-61944000D02*
X40640000Y-59944000D01*
X37052000Y-69289000D02*
X37002000Y-69339000D01*
X37052000Y-67434000D02*
X38640000Y-65846000D01*
X33528000Y-39624000D02*
X33349000Y-39624000D01*
X42418000Y-49530000D02*
X41656000Y-50292000D01*
X33349000Y-39624000D02*
X32262000Y-38537000D01*
%TO.N,GND*%
X29061000Y-76361000D02*
X32173000Y-76361000D01*
X58686000Y-36551000D02*
X58686000Y-34803000D01*
X64168400Y-65133600D02*
X64168400Y-65641600D01*
X91728000Y-28876000D02*
X89234000Y-28876000D01*
X22699000Y-76361000D02*
X29061000Y-76361000D01*
X21897000Y-72083000D02*
X22098000Y-71882000D01*
X57869200Y-67876800D02*
X58924000Y-66822000D01*
X41125000Y-73129000D02*
X41148000Y-73152000D01*
X81197400Y-81007000D02*
X78333600Y-83870800D01*
X58924000Y-66822000D02*
X59468000Y-66822000D01*
X65024000Y-59944000D02*
X65024000Y-58176500D01*
X39891000Y-21237000D02*
X40366000Y-20762000D01*
X39624000Y-73152000D02*
X38608000Y-72136000D01*
X40366000Y-20762000D02*
X42497000Y-20762000D01*
X64168400Y-65641600D02*
X64465200Y-65938400D01*
X87654000Y-75464000D02*
X86726000Y-74536000D01*
X71844000Y-85881183D02*
X71844000Y-87084000D01*
X18061000Y-71681000D02*
X27061000Y-71681000D01*
X65024000Y-58176500D02*
X64255500Y-57408000D01*
X62484000Y-74194000D02*
X61950000Y-73660000D01*
X71628000Y-87884000D02*
X71120000Y-88392000D01*
X56896000Y-20320000D02*
X60960000Y-16256000D01*
X21897000Y-75999000D02*
X21897000Y-72083000D01*
X91728000Y-28876000D02*
X93246726Y-27357274D01*
X32017000Y-68847000D02*
X32004000Y-68834000D01*
X64168400Y-65133600D02*
X65266000Y-64036000D01*
X89234000Y-28876000D02*
X89154000Y-28956000D01*
X40350400Y-84609700D02*
X41605200Y-83354900D01*
X64255500Y-54413300D02*
X64255500Y-55884000D01*
X80122000Y-87264000D02*
X84753400Y-82632600D01*
X21897000Y-87831000D02*
X27061000Y-87831000D01*
X76928000Y-30876000D02*
X79360000Y-30876000D01*
X76804000Y-73264000D02*
X88804000Y-73264000D01*
X53359000Y-54845000D02*
X53848000Y-54356000D01*
X42497000Y-20762000D02*
X42672000Y-20587000D01*
X71844000Y-87084000D02*
X72644000Y-87884000D01*
X60960000Y-16256000D02*
X61468000Y-16256000D01*
X58153000Y-37084000D02*
X58686000Y-36551000D01*
X31857000Y-56535000D02*
X31496000Y-56896000D01*
X38608000Y-72136000D02*
X38608000Y-68072000D01*
X37140000Y-46030000D02*
X36830000Y-45720000D01*
X52555000Y-54845000D02*
X53359000Y-54845000D01*
X84753400Y-81007000D02*
X81197400Y-81007000D01*
X32870000Y-56535000D02*
X33815000Y-55590000D01*
X64275000Y-63500000D02*
X64743000Y-63500000D01*
X41605200Y-82600800D02*
X42164000Y-82042000D01*
X64516000Y-60452000D02*
X65024000Y-59944000D01*
X63500000Y-72407183D02*
X63500000Y-73178000D01*
X95605600Y-70358000D02*
X92557600Y-70358000D01*
X78333600Y-84785200D02*
X78054800Y-85064000D01*
X35452000Y-69339000D02*
X34020000Y-69339000D01*
X32870000Y-56535000D02*
X31857000Y-56535000D01*
X45898000Y-82982000D02*
X44958000Y-82042000D01*
X67819500Y-59754000D02*
X67819500Y-60704500D01*
X59686000Y-35328000D02*
X61709000Y-37351000D01*
X41125000Y-68530000D02*
X41125000Y-73129000D01*
X45430000Y-45460000D02*
X43948000Y-45460000D01*
X34020000Y-69339000D02*
X33528000Y-68847000D01*
X41148000Y-73152000D02*
X41148000Y-73406000D01*
X79502000Y-19450000D02*
X76928000Y-16876000D01*
X72661183Y-85064000D02*
X71844000Y-85881183D01*
X63468000Y-65834000D02*
X64168400Y-65133600D01*
D52*
X58170000Y-56646000D02*
X58166000Y-56642000D01*
X39326000Y-24936000D02*
X39891000Y-24371000D01*
D51*
X32173000Y-76361000D02*
X32253000Y-76441000D01*
X88804000Y-80664000D02*
X87230000Y-80664000D01*
X45898000Y-83670000D02*
X45898000Y-82982000D01*
X36762000Y-38537000D02*
X36762000Y-38422000D01*
X64211200Y-74320400D02*
X64211200Y-74117200D01*
X57505600Y-67310000D02*
X57505600Y-67513200D01*
X56896000Y-69570000D02*
X56896000Y-68850000D01*
X64503000Y-54660800D02*
X64255500Y-54413300D01*
X88804000Y-75464000D02*
X87654000Y-75464000D01*
X65024000Y-59944000D02*
X65214000Y-59754000D01*
X65024000Y-54660800D02*
X64503000Y-54660800D01*
X50390000Y-56250000D02*
X51440000Y-56250000D01*
X53217000Y-23999000D02*
X56896000Y-20320000D01*
X53217000Y-25400000D02*
X53217000Y-23999000D01*
X86868000Y-81026000D02*
X86849000Y-81007000D01*
X76911200Y-70612000D02*
X76804000Y-70719200D01*
X62218000Y-71125183D02*
X63500000Y-72407183D01*
X86726000Y-74536000D02*
X86726000Y-73264000D01*
X94262726Y-23635000D02*
X95013726Y-22884000D01*
X65214000Y-59754000D02*
X67819500Y-59754000D01*
X93487726Y-23635000D02*
X94262726Y-23635000D01*
X61950000Y-73660000D02*
X59944000Y-73660000D01*
X87230000Y-80664000D02*
X86868000Y-81026000D01*
X33815000Y-54775000D02*
X34036000Y-54775000D01*
X45430000Y-45460000D02*
X46165000Y-46195000D01*
X64211200Y-74117200D02*
X63386000Y-73292000D01*
D52*
X59691500Y-56646000D02*
X58170000Y-56646000D01*
D51*
X43948000Y-45460000D02*
X43942000Y-45466000D01*
X62992000Y-60452000D02*
X64516000Y-60452000D01*
X51440000Y-56250000D02*
X52555000Y-55135000D01*
X76804000Y-87264000D02*
X80122000Y-87264000D01*
X72644000Y-87884000D02*
X71628000Y-87884000D01*
X95013726Y-22884000D02*
X100690000Y-22884000D01*
X76804000Y-70719200D02*
X76804000Y-73264000D01*
X84753400Y-82632600D02*
X84753400Y-81007000D01*
X62992000Y-57671500D02*
X62992000Y-60452000D01*
X63468000Y-66822000D02*
X63468000Y-65834000D01*
X79360000Y-30876000D02*
X79502000Y-30734000D01*
D52*
X56896000Y-17903000D02*
X56896000Y-20320000D01*
D51*
X93246726Y-27357274D02*
X93246726Y-23876000D01*
X64255500Y-54339000D02*
X64255500Y-54413300D01*
D52*
X39891000Y-24371000D02*
X39891000Y-22860000D01*
D51*
X62218000Y-70047000D02*
X62218000Y-71125183D01*
X21897000Y-75999000D02*
X22259000Y-76361000D01*
X22699000Y-76801000D02*
X23368000Y-77470000D01*
X36762000Y-38422000D02*
X37592000Y-37592000D01*
X41605200Y-83354900D02*
X41605200Y-82600800D01*
X37140000Y-48000000D02*
X37140000Y-46030000D01*
X59686000Y-34803000D02*
X59686000Y-35328000D01*
X63755500Y-55884000D02*
X64255500Y-55884000D01*
X58153000Y-37084000D02*
X56642000Y-37084000D01*
X42164000Y-82042000D02*
X44958000Y-82042000D01*
X39640000Y-63500000D02*
X39624000Y-63516000D01*
X76804000Y-85064000D02*
X72661183Y-85064000D01*
X78054800Y-85064000D02*
X76804000Y-85064000D01*
X86849000Y-81007000D02*
X84753400Y-81007000D01*
X21897000Y-87831000D02*
X21897000Y-75999000D01*
X56896000Y-68850000D02*
X57869200Y-67876800D01*
X79394000Y-19450000D02*
X79248000Y-19304000D01*
X57505600Y-67513200D02*
X57869200Y-67876800D01*
X41148000Y-73152000D02*
X39624000Y-73152000D01*
X63255500Y-57408000D02*
X62992000Y-57671500D01*
X62214000Y-37884000D02*
X58953000Y-37884000D01*
X73264000Y-87264000D02*
X76804000Y-87264000D01*
X22699000Y-76361000D02*
X22699000Y-76801000D01*
X67819500Y-60704500D02*
X67310000Y-61214000D01*
X58953000Y-37884000D02*
X58153000Y-37084000D01*
X89651600Y-73264000D02*
X88804000Y-73264000D01*
X39891000Y-22860000D02*
X39891000Y-21237000D01*
X92557600Y-70358000D02*
X89651600Y-73264000D01*
X72644000Y-87884000D02*
X73264000Y-87264000D01*
X78333600Y-83870800D02*
X78333600Y-84785200D01*
X52555000Y-55135000D02*
X52555000Y-54845000D01*
X64743000Y-63500000D02*
X66028000Y-64785000D01*
X46165000Y-46195000D02*
X46165000Y-47181000D01*
X79502000Y-19450000D02*
X79394000Y-19450000D01*
X61709000Y-37351000D02*
X62747000Y-37351000D01*
X22259000Y-76361000D02*
X22699000Y-76361000D01*
X79502000Y-30734000D02*
X79502000Y-19450000D01*
X63386000Y-73292000D02*
X62484000Y-74194000D01*
D52*
X53725000Y-14732000D02*
X56896000Y-17903000D01*
D51*
X18061000Y-87831000D02*
X21897000Y-87831000D01*
X63500000Y-73178000D02*
X63386000Y-73292000D01*
X33528000Y-68847000D02*
X32017000Y-68847000D01*
X93246726Y-23876000D02*
X93487726Y-23635000D01*
X38608000Y-68072000D02*
X39640000Y-67040000D01*
X63514500Y-53598000D02*
X64255500Y-54339000D01*
X33815000Y-55590000D02*
X33815000Y-54775000D01*
X62747000Y-37351000D02*
X62214000Y-37884000D01*
D52*
%TO.N,+3V3*%
X42497000Y-18862000D02*
X42672000Y-19037000D01*
D51*
X39140000Y-66016000D02*
X38608000Y-66548000D01*
X31629000Y-54985000D02*
X31242000Y-55372000D01*
X58686000Y-32253000D02*
X58686000Y-31728000D01*
X61189500Y-53598000D02*
X59691500Y-55096000D01*
X60711000Y-34278000D02*
X61224000Y-34278000D01*
X56134000Y-71882000D02*
X53594000Y-71882000D01*
X93471726Y-22876000D02*
X94262726Y-22085000D01*
X38100000Y-67056000D02*
X38100000Y-70104000D01*
X33337000Y-82296000D02*
X33337000Y-80709000D01*
X59691500Y-55096000D02*
X57934000Y-55096000D01*
X72814000Y-86164000D02*
X76804000Y-86164000D01*
X63255500Y-54889000D02*
X63255500Y-55884000D01*
D52*
X44183000Y-19037000D02*
X44450000Y-19304000D01*
D51*
X32753000Y-77991000D02*
X33782000Y-76962000D01*
X58711000Y-31703000D02*
X59524604Y-31703000D01*
X59524604Y-31703000D02*
X59686000Y-31864396D01*
X35528000Y-46196000D02*
X36576000Y-47244000D01*
X60718000Y-70722000D02*
X60292000Y-71148000D01*
X81407000Y-81407000D02*
X78994000Y-83820000D01*
X61964500Y-53598000D02*
X61189500Y-53598000D01*
X50390000Y-56750000D02*
X52200000Y-56750000D01*
X46323000Y-74355000D02*
X39811000Y-74355000D01*
X66028000Y-66335000D02*
X66589000Y-66335000D01*
X37084000Y-71628000D02*
X37084000Y-70612000D01*
X60718000Y-70047000D02*
X60718000Y-70722000D01*
D52*
X67819500Y-55624500D02*
X68072000Y-55372000D01*
D51*
X35135000Y-67167000D02*
X35402000Y-67434000D01*
X56896000Y-71120000D02*
X57344000Y-71568000D01*
X70295000Y-27432000D02*
X70295000Y-28765000D01*
X62747000Y-35801000D02*
X62747000Y-34815598D01*
X33580000Y-54275000D02*
X34036000Y-54275000D01*
X62992500Y-56147000D02*
X63255500Y-55884000D01*
X55118000Y-55118000D02*
X53848000Y-56388000D01*
X92557600Y-71908000D02*
X92557600Y-72416000D01*
X92557600Y-71908000D02*
X94081600Y-71908000D01*
X63468000Y-69322000D02*
X64044000Y-69322000D01*
X46980000Y-45460000D02*
X46980000Y-44609500D01*
X36700000Y-44066000D02*
X37084000Y-44450000D01*
X64044000Y-69322000D02*
X66028000Y-67338000D01*
X62747000Y-34815598D02*
X62733701Y-34802299D01*
X32870000Y-54985000D02*
X31629000Y-54985000D01*
X91728000Y-22876000D02*
X93471726Y-22876000D01*
D52*
X96418400Y-67157600D02*
X97586800Y-68326000D01*
D51*
X35265000Y-67297000D02*
X35402000Y-67434000D01*
X46640000Y-45800000D02*
X46980000Y-45460000D01*
X57912000Y-55118000D02*
X57934000Y-55096000D01*
X37640000Y-48000000D02*
X37640000Y-45006000D01*
X61224000Y-34278000D02*
X62747000Y-35801000D01*
X62992500Y-56396000D02*
X62992500Y-56147000D01*
D52*
X42672000Y-19037000D02*
X44183000Y-19037000D01*
D51*
X81407000Y-81407000D02*
X82296000Y-82296000D01*
X32870000Y-54985000D02*
X33580000Y-54275000D01*
X46640000Y-48000000D02*
X46640000Y-45800000D01*
X78994000Y-86106000D02*
X78936000Y-86164000D01*
X57912000Y-55118000D02*
X55118000Y-55118000D01*
D52*
X90830400Y-67157600D02*
X96418400Y-67157600D01*
D51*
X52200000Y-56750000D02*
X52555000Y-56395000D01*
X33528000Y-67297000D02*
X32017000Y-67297000D01*
X66028000Y-67338000D02*
X66028000Y-66335000D01*
X38608000Y-66548000D02*
X38100000Y-67056000D01*
X94262726Y-22085000D02*
X94262726Y-21307274D01*
X37592000Y-70612000D02*
X37084000Y-70612000D01*
X59686000Y-32253000D02*
X59686000Y-31864396D01*
D52*
X88544400Y-69443600D02*
X90830400Y-67157600D01*
D51*
X58686000Y-31728000D02*
X58711000Y-31703000D01*
X32017000Y-67297000D02*
X32004000Y-67310000D01*
D52*
X40366000Y-18862000D02*
X42497000Y-18862000D01*
D51*
X39140000Y-63500000D02*
X39140000Y-66016000D01*
X33337000Y-80709000D02*
X33528000Y-80518000D01*
X66589000Y-66335000D02*
X67310000Y-67056000D01*
D52*
X97586800Y-68326000D02*
X97586800Y-69926800D01*
D51*
X35528000Y-44066000D02*
X35528000Y-46196000D01*
X32253000Y-77991000D02*
X32753000Y-77991000D01*
X50695000Y-31703000D02*
X47461000Y-34937000D01*
X94081600Y-73455000D02*
X94081600Y-71908000D01*
X38100000Y-70104000D02*
X37592000Y-70612000D01*
X33528000Y-67297000D02*
X35265000Y-67297000D01*
X60292000Y-71148000D02*
X57138000Y-71148000D01*
X94081600Y-71908000D02*
X95605600Y-71908000D01*
D52*
X97586800Y-69926800D02*
X95605600Y-71908000D01*
D51*
X70295000Y-28765000D02*
X70104000Y-28956000D01*
X31683000Y-78561000D02*
X32253000Y-77991000D01*
X57344000Y-71568000D02*
X57344000Y-73660000D01*
X56896000Y-71120000D02*
X56134000Y-71882000D01*
X72644000Y-86334000D02*
X72814000Y-86164000D01*
X46980000Y-44609500D02*
X46820500Y-44450000D01*
X39811000Y-74355000D02*
X37084000Y-71628000D01*
X58711000Y-31703000D02*
X50695000Y-31703000D01*
X82296000Y-82296000D02*
X82804000Y-82296000D01*
X52555000Y-56395000D02*
X53841000Y-56395000D01*
X63255500Y-54889000D02*
X61964500Y-53598000D01*
X78936000Y-86164000D02*
X76804000Y-86164000D01*
X46323000Y-74355000D02*
X49752000Y-74355000D01*
X94262726Y-21307274D02*
X95504000Y-20066000D01*
X78994000Y-83820000D02*
X78994000Y-86106000D01*
X35528000Y-44066000D02*
X36700000Y-44066000D01*
D52*
X67819500Y-57154000D02*
X67819500Y-55624500D01*
D51*
X29061000Y-78561000D02*
X31683000Y-78561000D01*
X53841000Y-56395000D02*
X53848000Y-56388000D01*
X37640000Y-45006000D02*
X37084000Y-44450000D01*
%TO.N,Net-(C6-Pad2)*%
X62218000Y-64007000D02*
X62725000Y-63500000D01*
X62218000Y-66097000D02*
X62218000Y-64007000D01*
%TO.N,Net-(C8-Pad1)*%
X61718000Y-71878000D02*
X62484000Y-72644000D01*
X61718000Y-70047000D02*
X61718000Y-71878000D01*
D52*
%TO.N,+BATT*%
X48768000Y-14478000D02*
X49716000Y-15426000D01*
X35790000Y-17736000D02*
X37866000Y-19812000D01*
X40132000Y-14478000D02*
X48768000Y-14478000D01*
X38341000Y-22860000D02*
X38341000Y-20287000D01*
X36874000Y-17736000D02*
X40132000Y-14478000D01*
X35790000Y-17736000D02*
X36874000Y-17736000D01*
X49716000Y-17191000D02*
X52175000Y-14732000D01*
X49716000Y-15426000D02*
X49716000Y-18035000D01*
%TO.N,+5V*%
X28194000Y-30226000D02*
X36068000Y-30226000D01*
D51*
X28194000Y-85090000D02*
X31282000Y-88178000D01*
D52*
X19553000Y-36327000D02*
X22093000Y-36327000D01*
D51*
X51667000Y-25400000D02*
X51667000Y-24556000D01*
D52*
X43689000Y-22605000D02*
X49716000Y-22605000D01*
D51*
X51667000Y-24556000D02*
X49716000Y-22605000D01*
D52*
X22093000Y-36327000D02*
X28194000Y-30226000D01*
D51*
X52457596Y-88178000D02*
X46736000Y-88178000D01*
X31282000Y-88178000D02*
X46736000Y-88178000D01*
X23622000Y-85090000D02*
X28194000Y-85090000D01*
X56642000Y-86563200D02*
X54072396Y-86563200D01*
D52*
X36068000Y-30226000D02*
X43689000Y-22605000D01*
D51*
X54072396Y-86563200D02*
X52457596Y-88178000D01*
%TO.N,Net-(C21-Pad1)*%
X59703000Y-36072000D02*
X59186000Y-35555000D01*
X59703000Y-37084000D02*
X59703000Y-36072000D01*
X59186000Y-35555000D02*
X59186000Y-34803000D01*
%TO.N,Net-(BZ1-Pad3)*%
X46228000Y-86715600D02*
X41531300Y-86715600D01*
X52730400Y-81737200D02*
X56642000Y-81737200D01*
X47686000Y-85558000D02*
X47385600Y-85558000D01*
X47686000Y-85558000D02*
X48909600Y-85558000D01*
X48909600Y-85558000D02*
X52730400Y-81737200D01*
X47385600Y-85558000D02*
X46228000Y-86715600D01*
X41531300Y-86715600D02*
X41300400Y-86484700D01*
%TO.N,/RX0*%
X32978000Y-50250000D02*
X22960000Y-40232000D01*
X22960000Y-40232000D02*
X18876299Y-40232000D01*
X18188000Y-42772000D02*
X17013000Y-43947000D01*
X34890000Y-50250000D02*
X32978000Y-50250000D01*
X18188000Y-40920299D02*
X18188000Y-42772000D01*
X18876299Y-40232000D02*
X18188000Y-40920299D01*
%TO.N,/TX0*%
X23373000Y-41407000D02*
X19553000Y-41407000D01*
X34890000Y-50750000D02*
X32716000Y-50750000D01*
X32716000Y-50750000D02*
X23373000Y-41407000D01*
%TO.N,/OPT3*%
X24316000Y-51250000D02*
X19553000Y-46487000D01*
X34890000Y-51250000D02*
X24316000Y-51250000D01*
%TO.N,/OPT2*%
X19849701Y-47662000D02*
X18188000Y-47662000D01*
X18188000Y-47662000D02*
X17013000Y-46487000D01*
X34890000Y-51750000D02*
X23937701Y-51750000D01*
X23937701Y-51750000D02*
X19849701Y-47662000D01*
%TO.N,/MMC_INT*%
X36576000Y-52070000D02*
X36576000Y-50800000D01*
X43434000Y-42672000D02*
X48260000Y-42672000D01*
X35896000Y-52750000D02*
X36068000Y-52578000D01*
X34890000Y-52750000D02*
X35896000Y-52750000D01*
X63754000Y-39370000D02*
X53594000Y-39370000D01*
X64262000Y-38862000D02*
X63754000Y-39370000D01*
X60711000Y-33278000D02*
X63005000Y-33278000D01*
X50546000Y-37338000D02*
X51562000Y-37338000D01*
X63005000Y-33278000D02*
X63255000Y-33528000D01*
X36068000Y-52578000D02*
X36576000Y-52070000D01*
X48260000Y-42672000D02*
X48514000Y-42418000D01*
X64262000Y-34535000D02*
X64262000Y-38862000D01*
X63255000Y-33528000D02*
X64262000Y-34535000D01*
X51562000Y-37338000D02*
X53594000Y-39370000D01*
%TO.N,/BMP_INT*%
X66295500Y-55430000D02*
X65279500Y-56446000D01*
X36032396Y-53250000D02*
X37026000Y-52256396D01*
X65229500Y-56396000D02*
X64518500Y-56396000D01*
X66295500Y-53090000D02*
X66295500Y-48261500D01*
X61214000Y-43180000D02*
X56134000Y-43180000D01*
X37026000Y-51620000D02*
X37338000Y-51308000D01*
X37026000Y-52256396D02*
X37026000Y-51620000D01*
X37338000Y-51308000D02*
X37338000Y-51302281D01*
X66295500Y-53090000D02*
X66295500Y-55430000D01*
X51016500Y-41656000D02*
X52540500Y-43180000D01*
X52540500Y-43180000D02*
X56134000Y-43180000D01*
X42926000Y-43688000D02*
X48260000Y-43688000D01*
X37338000Y-51302281D02*
X37524211Y-51116070D01*
X66295500Y-48261500D02*
X61214000Y-43180000D01*
X65279500Y-56446000D02*
X65229500Y-56396000D01*
X34890000Y-53250000D02*
X36032396Y-53250000D01*
%TO.N,/MPU_INT*%
X36576000Y-54356000D02*
X36576000Y-55372000D01*
X66040000Y-73660000D02*
X66040000Y-71374000D01*
X34890000Y-53750000D02*
X35970000Y-53750000D01*
X65024000Y-72644000D02*
X66040000Y-73660000D01*
X62718000Y-70047000D02*
X62718000Y-70846000D01*
X62718000Y-70846000D02*
X64516000Y-72644000D01*
X35970000Y-53750000D02*
X36576000Y-54356000D01*
X64516000Y-72644000D02*
X65024000Y-72644000D01*
%TO.N,/SD_CS*%
X29061000Y-71281000D02*
X24384000Y-66604000D01*
X24384000Y-66294000D02*
X23114000Y-67564000D01*
X34890000Y-58750000D02*
X32182000Y-58750000D01*
X24384000Y-66604000D02*
X24384000Y-66294000D01*
X32182000Y-58750000D02*
X30480000Y-60452000D01*
X29061000Y-73061000D02*
X29061000Y-71281000D01*
%TO.N,/SCK*%
X33197401Y-59250000D02*
X34890000Y-59250000D01*
X36322000Y-49784000D02*
X39370000Y-49784000D01*
X34036000Y-43973000D02*
X34036000Y-47498000D01*
X26425000Y-77461000D02*
X26416000Y-77470000D01*
X31499949Y-60947452D02*
X33197401Y-59250000D01*
X34036000Y-47498000D02*
X36322000Y-49784000D01*
X39370000Y-51433604D02*
X37375000Y-53428604D01*
X73904695Y-21844000D02*
X72898000Y-21844000D01*
X72898000Y-21844000D02*
X72644000Y-21590000D01*
X39370000Y-49784000D02*
X39370000Y-51433604D01*
X29061000Y-77461000D02*
X26425000Y-77461000D01*
X76928000Y-22876000D02*
X74936695Y-22876000D01*
X44921000Y-37477000D02*
X40532000Y-37477000D01*
X40532000Y-37477000D02*
X34036000Y-43973000D01*
X37375000Y-53428604D02*
X37375000Y-57815000D01*
X37375000Y-57815000D02*
X35940000Y-59250000D01*
X72644000Y-21590000D02*
X72644000Y-17780000D01*
X35940000Y-59250000D02*
X34890000Y-59250000D01*
X74936695Y-22876000D02*
X73904695Y-21844000D01*
%TO.N,/MOSI*%
X36126500Y-67925962D02*
X36126500Y-62463500D01*
X38187000Y-60003000D02*
X42364000Y-55826000D01*
X48968000Y-49222000D02*
X50292000Y-47898000D01*
X73962000Y-20876000D02*
X73914000Y-20828000D01*
X38190000Y-62066000D02*
X36127000Y-60003000D01*
X35874000Y-59750000D02*
X34890000Y-59750000D01*
X36165000Y-62425000D02*
X38190000Y-62425000D01*
X36126500Y-62463500D02*
X36165000Y-62425000D01*
X50292000Y-47898000D02*
X50292000Y-40308000D01*
X76928000Y-20876000D02*
X73962000Y-20876000D01*
X34984396Y-77666000D02*
X35306000Y-77344396D01*
X29061000Y-79661000D02*
X32861000Y-79661000D01*
X32861000Y-79661000D02*
X34856000Y-77666000D01*
X36127000Y-60003000D02*
X38187000Y-60003000D01*
X36227000Y-68026462D02*
X36126500Y-67925962D01*
X38190000Y-62425000D02*
X38190000Y-62066000D01*
X42364000Y-51108000D02*
X44250000Y-49222000D01*
X42364000Y-55826000D02*
X42364000Y-51108000D01*
X50292000Y-40308000D02*
X47461000Y-37477000D01*
X36227000Y-75787000D02*
X36227000Y-68026462D01*
X36127000Y-60003000D02*
X35874000Y-59750000D01*
X44250000Y-49222000D02*
X48968000Y-49222000D01*
X34856000Y-77666000D02*
X34984396Y-77666000D01*
X35306000Y-76708000D02*
X36227000Y-75787000D01*
X35306000Y-77344396D02*
X35306000Y-76708000D01*
%TO.N,/MISO*%
X26924000Y-75184000D02*
X28984000Y-75184000D01*
X74088000Y-18876000D02*
X76928000Y-18876000D01*
X34890000Y-60250000D02*
X33222000Y-60250000D01*
X28984000Y-75184000D02*
X29061000Y-75261000D01*
X73914000Y-19050000D02*
X74088000Y-18876000D01*
X33222000Y-60250000D02*
X32512000Y-60960000D01*
X38100000Y-53340000D02*
X40132000Y-51308000D01*
X38100000Y-56388000D02*
X38100000Y-53340000D01*
%TO.N,/Buzzer*%
X53263000Y-79606000D02*
X50583000Y-79606000D01*
X53086000Y-77470000D02*
X53086000Y-79429000D01*
X50583000Y-79606000D02*
X50279000Y-79302000D01*
X53086000Y-79429000D02*
X53263000Y-79606000D01*
X34890000Y-60750000D02*
X35849402Y-60750000D01*
X35849402Y-60750000D02*
X36571701Y-61472299D01*
%TO.N,/OPT5*%
X32775305Y-61722000D02*
X14986000Y-61722000D01*
X33247305Y-61250000D02*
X32775305Y-61722000D01*
X14986000Y-61722000D02*
X14986000Y-53594000D01*
X14986000Y-53594000D02*
X17013000Y-51567000D01*
X34890000Y-61250000D02*
X33247305Y-61250000D01*
%TO.N,/OPT4*%
X14536000Y-61908396D02*
X14536000Y-52012001D01*
X18378000Y-50202000D02*
X19553000Y-49027000D01*
X34468000Y-62172000D02*
X14799604Y-62172000D01*
X34890000Y-61750000D02*
X34468000Y-62172000D01*
X14536000Y-52012001D02*
X16346001Y-50202000D01*
X14799604Y-62172000D02*
X14536000Y-61908396D01*
X16346001Y-50202000D02*
X18378000Y-50202000D01*
%TO.N,/OPT1*%
X18288000Y-45212000D02*
X19553000Y-43947000D01*
X36640000Y-65066500D02*
X36851500Y-65278000D01*
X16626299Y-45212000D02*
X18288000Y-45212000D01*
X13970000Y-62230000D02*
X13970000Y-47868299D01*
X36640000Y-63500000D02*
X36640000Y-65066500D01*
X33020000Y-62992000D02*
X14732000Y-62992000D01*
X14732000Y-62992000D02*
X13970000Y-62230000D01*
X13970000Y-47868299D02*
X16626299Y-45212000D01*
%TO.N,Net-(IC1-Pad33)*%
X39925000Y-68530000D02*
X39925000Y-71755000D01*
X39925000Y-71755000D02*
X40300000Y-72130000D01*
%TO.N,Net-(IC1-Pad34)*%
X42325000Y-66103000D02*
X42325000Y-68530000D01*
X42325000Y-71755000D02*
X41950000Y-72130000D01*
X40640000Y-63500000D02*
X40640000Y-64418000D01*
X40640000Y-64418000D02*
X42325000Y-66103000D01*
X42325000Y-68530000D02*
X42325000Y-71755000D01*
%TO.N,/SCL*%
X62992000Y-61976000D02*
X61976000Y-61976000D01*
X59690000Y-33528000D02*
X60161000Y-33057000D01*
X45140000Y-63500000D02*
X45140000Y-67394000D01*
X65024000Y-61468000D02*
X63504183Y-61468000D01*
X52324000Y-73152000D02*
X53848000Y-73152000D01*
X45165000Y-63475000D02*
X45165000Y-63370000D01*
X46196000Y-68450000D02*
X46196000Y-72578000D01*
X60161000Y-33057000D02*
X60161000Y-32512000D01*
X56388000Y-75692000D02*
X66548000Y-75692000D01*
X63504183Y-61468000D02*
X62996183Y-61976000D01*
X68580000Y-73660000D02*
X68580000Y-65024000D01*
X66548000Y-75692000D02*
X68580000Y-73660000D01*
X61976000Y-61976000D02*
X60718000Y-63234000D01*
X60718000Y-63234000D02*
X60718000Y-66097000D01*
X47248000Y-73630000D02*
X51846000Y-73630000D01*
X61976000Y-56896000D02*
X62992500Y-56896000D01*
X60186000Y-31716000D02*
X58188000Y-29718000D01*
X61976000Y-60960000D02*
X61976000Y-56896000D01*
X46323000Y-72705000D02*
X47248000Y-73630000D01*
X45140000Y-63500000D02*
X45165000Y-63475000D01*
X68580000Y-65024000D02*
X65024000Y-61468000D01*
X45140000Y-67394000D02*
X46196000Y-68450000D01*
X62992000Y-61976000D02*
X61976000Y-60960000D01*
X51846000Y-73630000D02*
X52324000Y-73152000D01*
X58188000Y-29718000D02*
X54102000Y-29718000D01*
X46196000Y-72578000D02*
X46323000Y-72705000D01*
X62996183Y-61976000D02*
X62992000Y-61976000D01*
X60186000Y-32253000D02*
X60186000Y-31716000D01*
X53848000Y-73152000D02*
X56388000Y-75692000D01*
%TO.N,/SDA*%
X60706000Y-31599604D02*
X57808396Y-28702000D01*
X60001000Y-66097000D02*
X60218000Y-66097000D01*
X61468000Y-31750000D02*
X61468000Y-32512000D01*
X51816000Y-64516000D02*
X58420000Y-64516000D01*
X48228000Y-68450000D02*
X49752000Y-68450000D01*
X49752000Y-68450000D02*
X49752000Y-66580000D01*
X63755500Y-59688500D02*
X63755500Y-57408000D01*
X57808396Y-28702000D02*
X54102000Y-28702000D01*
X60711000Y-32778000D02*
X60706000Y-32773000D01*
X45640000Y-63500000D02*
X45640000Y-65862000D01*
X61317604Y-31599604D02*
X61468000Y-31750000D01*
X49752000Y-68450000D02*
X49752000Y-72705000D01*
X58420000Y-64516000D02*
X60001000Y-66097000D01*
X59436000Y-63500000D02*
X58420000Y-64516000D01*
X49752000Y-66580000D02*
X51816000Y-64516000D01*
X61468000Y-32512000D02*
X60977000Y-32512000D01*
X60706000Y-31599604D02*
X61317604Y-31599604D01*
X60977000Y-32512000D02*
X60711000Y-32778000D01*
X45640000Y-65862000D02*
X48228000Y-68450000D01*
%TO.N,/RX1*%
X48001604Y-66548000D02*
X46140000Y-64686396D01*
X70612000Y-81280000D02*
X71120000Y-80772000D01*
X73660000Y-80772000D02*
X75752000Y-82864000D01*
X71120000Y-80772000D02*
X73660000Y-80772000D01*
X48260000Y-66548000D02*
X48001604Y-66548000D01*
X75752000Y-82864000D02*
X76804000Y-82864000D01*
X46140000Y-64686396D02*
X46140000Y-63500000D01*
%TO.N,/TX1*%
X69088000Y-83820000D02*
X73152000Y-83820000D01*
X46640000Y-63500000D02*
X46640000Y-64550000D01*
X46984000Y-64894000D02*
X47622000Y-64894000D01*
X73152000Y-83820000D02*
X76660000Y-83820000D01*
X76660000Y-83820000D02*
X76804000Y-83964000D01*
X47622000Y-64894000D02*
X48260000Y-65532000D01*
X46640000Y-64550000D02*
X46984000Y-64894000D01*
%TO.N,/ID3*%
X50390000Y-58750000D02*
X47953604Y-58750000D01*
X21463701Y-54356000D02*
X20039701Y-52932000D01*
X23622000Y-54356000D02*
X21463701Y-54356000D01*
X45974000Y-54356000D02*
X46009155Y-54356000D01*
X18188000Y-52932000D02*
X17013000Y-54107000D01*
X20039701Y-52932000D02*
X18188000Y-52932000D01*
X47953604Y-58750000D02*
X45974000Y-56770396D01*
X45974000Y-56770396D02*
X45974000Y-54356000D01*
%TO.N,/IGNITION*%
X21595000Y-51567000D02*
X19553000Y-51567000D01*
X46733655Y-56893655D02*
X46733655Y-53352333D01*
X47244000Y-57404000D02*
X46733655Y-56893655D01*
X23368000Y-53340000D02*
X21595000Y-51567000D01*
X48090000Y-58250000D02*
X47244000Y-57404000D01*
X50390000Y-58250000D02*
X48090000Y-58250000D01*
%TO.N,/ID1*%
X44196000Y-56642000D02*
X44196000Y-55372000D01*
X47304000Y-59750000D02*
X44450000Y-56896000D01*
X44450000Y-56896000D02*
X44196000Y-56642000D01*
X50390000Y-59750000D02*
X47304000Y-59750000D01*
%TO.N,/ID2*%
X47566000Y-59250000D02*
X46228000Y-57912000D01*
X45166258Y-56850258D02*
X45166258Y-54893150D01*
X46228000Y-57912000D02*
X45166258Y-56850258D01*
X50390000Y-59250000D02*
X47566000Y-59250000D01*
%TO.N,/Relay_1*%
X47844000Y-52670000D02*
X47219940Y-52670000D01*
X50390000Y-57750000D02*
X49365000Y-57750000D01*
X48427604Y-57700000D02*
X48006000Y-57278396D01*
X49365000Y-57750000D02*
X49315000Y-57700000D01*
X47219940Y-52670000D02*
X46920364Y-52370424D01*
X48006000Y-57278396D02*
X48006000Y-52832000D01*
X48006000Y-52832000D02*
X47844000Y-52670000D01*
X49315000Y-57700000D02*
X48427604Y-57700000D01*
%TO.N,/Relay_2*%
X48514000Y-57150000D02*
X48614000Y-57250000D01*
X48614000Y-57250000D02*
X50390000Y-57250000D01*
X48514000Y-52578000D02*
X48514000Y-57150000D01*
X47752000Y-51816000D02*
X48514000Y-52578000D01*
%TO.N,/LoRa_CS*%
X76912000Y-24892000D02*
X76928000Y-24876000D01*
X72644000Y-24892000D02*
X76912000Y-24892000D01*
X48140000Y-47110000D02*
X49022000Y-46228000D01*
X48140000Y-48000000D02*
X48140000Y-47110000D01*
%TO.N,/LoRa_RESET*%
X70929000Y-26416000D02*
X71945000Y-27432000D01*
X70866000Y-26416000D02*
X70929000Y-26416000D01*
X47640000Y-46375917D02*
X47947542Y-46068375D01*
X76372000Y-27432000D02*
X76928000Y-26876000D01*
X71945000Y-27432000D02*
X74168000Y-27432000D01*
X47640000Y-48000000D02*
X47640000Y-46375917D01*
X74168000Y-27432000D02*
X76372000Y-27432000D01*
%TO.N,Net-(IC4-Pad8)*%
X88804000Y-76564000D02*
X88804000Y-77664000D01*
D52*
%TO.N,/ANT_NEO*%
X98655400Y-79197200D02*
X100555400Y-79197200D01*
X94843600Y-74523600D02*
X94081600Y-74523600D01*
X95859600Y-75539600D02*
X95859600Y-76401400D01*
X95859600Y-76401400D02*
X98655400Y-79197200D01*
X93922000Y-74364000D02*
X94081600Y-74523600D01*
X88804000Y-74364000D02*
X93922000Y-74364000D01*
X95859600Y-75539600D02*
X94843600Y-74523600D01*
D51*
%TO.N,Net-(IC5-Pad6)*%
X64518500Y-56896000D02*
X65529500Y-56896000D01*
X65529500Y-56896000D02*
X67087500Y-58454000D01*
X67087500Y-58454000D02*
X67819500Y-58454000D01*
%TO.N,Net-(IC6-Pad9)*%
X60960000Y-72136000D02*
X59168000Y-72136000D01*
X58644000Y-72660000D02*
X58644000Y-73660000D01*
X59168000Y-72136000D02*
X58644000Y-72660000D01*
X61218000Y-70047000D02*
X61218000Y-71878000D01*
X61218000Y-71878000D02*
X60960000Y-72136000D01*
D52*
%TO.N,/ANT_LORA*%
X91728000Y-30876000D02*
X91856800Y-30876000D01*
X91856800Y-30876000D02*
X97078800Y-25654000D01*
X97078800Y-25654000D02*
X100690000Y-25654000D01*
D51*
%TO.N,Net-(J5-PadP2)*%
X31687000Y-82296000D02*
X30152000Y-80761000D01*
X30152000Y-80761000D02*
X29061000Y-80761000D01*
%TO.N,Net-(Q1-Pad1)*%
X42313700Y-84673000D02*
X42250400Y-84609700D01*
X47548000Y-83670000D02*
X46545000Y-84673000D01*
X50266000Y-80952000D02*
X47548000Y-83670000D01*
X46545000Y-84673000D02*
X42313700Y-84673000D01*
X50279000Y-80952000D02*
X50266000Y-80952000D01*
%TD*%
M02*
